<ttFont>
    <TTGlyph name="A" xMin="30" yMin="0" xMax="702" yMax="700">
      <contour>
        <pt x="509" y="206" on="1"/>
        <pt x="605" y="0" on="1"/>
        <pt x="702" y="0" on="1"/>
        <pt x="376" y="700" on="1"/>
        <pt x="326" y="700" on="1"/>
        <pt x="30" y="0" on="1"/>
        <pt x="76" y="0" on="1"/>
        <pt x="164" y="206" on="1"/>
      </contour>
      <contour>
        <pt x="488" y="251" on="1"/>
        <pt x="183" y="251" on="1"/>
        <pt x="327" y="588" on="1"/>
        <pt x="331" y="588" on="1"/>
      </contour>
    </TTGlyph>
    <TTGlyph name="AE" xMin="20" yMin="0" xMax="972" yMax="700">
      <contour>
        <pt x="512" y="254" on="1"/>
        <pt x="247" y="254" on="1"/>
        <pt x="512" y="650" on="1"/>
      </contour>
      <contour>
        <pt x="512" y="209" on="1"/>
        <pt x="512" y="0" on="1"/>
        <pt x="972" y="0" on="1"/>
        <pt x="972" y="55" on="1"/>
        <pt x="603" y="55" on="1"/>
        <pt x="603" y="350" on="1"/>
        <pt x="903" y="350" on="1"/>
        <pt x="903" y="394" on="1"/>
        <pt x="603" y="394" on="1"/>
        <pt x="603" y="644" on="1"/>
        <pt x="955" y="644" on="1"/>
        <pt x="955" y="700" on="1"/>
        <pt x="490" y="700" on="1"/>
        <pt x="20" y="0" on="1"/>
        <pt x="78" y="0" on="1"/>
        <pt x="217" y="209" on="1"/>
      </contour>
    </TTGlyph>
    <TTGlyph name="Aacute" xMin="30" yMin="0" xMax="702" yMax="912">
      <contour>
        <pt x="509" y="206" on="1"/>
        <pt x="605" y="0" on="1"/>
        <pt x="702" y="0" on="1"/>
        <pt x="376" y="700" on="1"/>
        <pt x="326" y="700" on="1"/>
        <pt x="30" y="0" on="1"/>
        <pt x="76" y="0" on="1"/>
        <pt x="164" y="206" on="1"/>
      </contour>
      <contour>
        <pt x="488" y="251" on="1"/>
        <pt x="183" y="251" on="1"/>
        <pt x="327" y="588" on="1"/>
        <pt x="331" y="588" on="1"/>
      </contour>
      <contour>
        <pt x="352" y="912" on="1"/>
        <pt x="463" y="912" on="1"/>
        <pt x="308" y="785" on="1"/>
        <pt x="269" y="785" on="1"/>
      </contour>
    </TTGlyph>
    <TTGlyph name="Abreve" xMin="30" yMin="0" xMax="702" yMax="912">
      <contour>
        <pt x="509" y="206" on="1"/>
        <pt x="605" y="0" on="1"/>
        <pt x="702" y="0" on="1"/>
        <pt x="376" y="700" on="1"/>
        <pt x="326" y="700" on="1"/>
        <pt x="30" y="0" on="1"/>
        <pt x="76" y="0" on="1"/>
        <pt x="164" y="206" on="1"/>
      </contour>
      <contour>
        <pt x="488" y="251" on="1"/>
        <pt x="183" y="251" on="1"/>
        <pt x="327" y="588" on="1"/>
        <pt x="331" y="588" on="1"/>
      </contour>
      <contour>
        <pt x="219" y="912" on="1"/>
        <pt x="219" y="884" on="0"/>
        <pt x="241" y="834" on="0"/>
        <pt x="281" y="797" on="0"/>
        <pt x="334" y="776" on="0"/>
        <pt x="366" y="776" on="1"/>
        <pt x="397" y="776" on="0"/>
        <pt x="451" y="797" on="0"/>
        <pt x="491" y="834" on="0"/>
        <pt x="513" y="884" on="0"/>
        <pt x="513" y="912" on="1"/>
        <pt x="471" y="912" on="1"/>
        <pt x="469" y="867" on="0"/>
        <pt x="408" y="812" on="0"/>
        <pt x="366" y="812" on="1"/>
        <pt x="325" y="812" on="0"/>
        <pt x="264" y="867" on="0"/>
        <pt x="261" y="912" on="1"/>
      </contour>
    </TTGlyph>
    <TTGlyph name="Acircumflex" xMin="30" yMin="0" xMax="702" yMax="912">
      <contour>
        <pt x="509" y="206" on="1"/>
        <pt x="605" y="0" on="1"/>
        <pt x="702" y="0" on="1"/>
        <pt x="376" y="700" on="1"/>
        <pt x="326" y="700" on="1"/>
        <pt x="30" y="0" on="1"/>
        <pt x="76" y="0" on="1"/>
        <pt x="164" y="206" on="1"/>
      </contour>
      <contour>
        <pt x="488" y="251" on="1"/>
        <pt x="183" y="251" on="1"/>
        <pt x="327" y="588" on="1"/>
        <pt x="331" y="588" on="1"/>
      </contour>
      <contour>
        <pt x="365" y="828" on="1"/>
        <pt x="365" y="828" on="0"/>
        <pt x="387" y="815" on="0"/>
        <pt x="420" y="795" on="0"/>
        <pt x="459" y="771" on="0"/>
        <pt x="492" y="750" on="0"/>
        <pt x="514" y="736" on="0"/>
        <pt x="514" y="736" on="1"/>
        <pt x="539" y="767" on="1"/>
        <pt x="539" y="767" on="0"/>
        <pt x="517" y="789" on="0"/>
        <pt x="484" y="821" on="0"/>
        <pt x="445" y="859" on="0"/>
        <pt x="412" y="891" on="0"/>
        <pt x="390" y="912" on="0"/>
        <pt x="390" y="912" on="1"/>
        <pt x="340" y="912" on="1"/>
        <pt x="340" y="912" on="0"/>
        <pt x="318" y="890" on="0"/>
        <pt x="285" y="858" on="0"/>
        <pt x="246" y="820" on="0"/>
        <pt x="213" y="788" on="0"/>
        <pt x="191" y="766" on="0"/>
        <pt x="191" y="767" on="1"/>
        <pt x="215" y="737" on="1"/>
        <pt x="215" y="737" on="0"/>
        <pt x="238" y="750" on="0"/>
        <pt x="271" y="771" on="0"/>
        <pt x="310" y="794" on="0"/>
        <pt x="343" y="815" on="0"/>
        <pt x="365" y="828" on="0"/>
      </contour>
    </TTGlyph>
    <TTGlyph name="Adieresis" xMin="30" yMin="0" xMax="702" yMax="912">
      <contour>
        <pt x="509" y="206" on="1"/>
        <pt x="605" y="0" on="1"/>
        <pt x="702" y="0" on="1"/>
        <pt x="376" y="700" on="1"/>
        <pt x="326" y="700" on="1"/>
        <pt x="30" y="0" on="1"/>
        <pt x="76" y="0" on="1"/>
        <pt x="164" y="206" on="1"/>
      </contour>
      <contour>
        <pt x="488" y="251" on="1"/>
        <pt x="183" y="251" on="1"/>
        <pt x="327" y="588" on="1"/>
        <pt x="331" y="588" on="1"/>
      </contour>
      <contour>
        <pt x="243" y="858" on="1"/>
        <pt x="243" y="836" on="0"/>
        <pt x="275" y="804" on="0"/>
        <pt x="297" y="804" on="1"/>
        <pt x="319" y="804" on="0"/>
        <pt x="351" y="836" on="0"/>
        <pt x="351" y="858" on="1"/>
        <pt x="351" y="880" on="0"/>
        <pt x="319" y="912" on="0"/>
        <pt x="297" y="912" on="1"/>
        <pt x="275" y="912" on="0"/>
        <pt x="243" y="880" on="0"/>
      </contour>
      <contour>
        <pt x="381" y="858" on="1"/>
        <pt x="381" y="836" on="0"/>
        <pt x="413" y="804" on="0"/>
        <pt x="435" y="804" on="1"/>
        <pt x="457" y="804" on="0"/>
        <pt x="489" y="836" on="0"/>
        <pt x="489" y="858" on="1"/>
        <pt x="489" y="880" on="0"/>
        <pt x="457" y="912" on="0"/>
        <pt x="435" y="912" on="1"/>
        <pt x="413" y="912" on="0"/>
        <pt x="381" y="880" on="0"/>
      </contour>
    </TTGlyph>
    <TTGlyph name="Agrave" xMin="30" yMin="0" xMax="702" yMax="912">
      <contour>
        <pt x="509" y="206" on="1"/>
        <pt x="605" y="0" on="1"/>
        <pt x="702" y="0" on="1"/>
        <pt x="376" y="700" on="1"/>
        <pt x="326" y="700" on="1"/>
        <pt x="30" y="0" on="1"/>
        <pt x="76" y="0" on="1"/>
        <pt x="164" y="206" on="1"/>
      </contour>
      <contour>
        <pt x="488" y="251" on="1"/>
        <pt x="183" y="251" on="1"/>
        <pt x="327" y="588" on="1"/>
        <pt x="331" y="588" on="1"/>
      </contour>
      <contour>
        <pt x="380" y="912" on="1"/>
        <pt x="269" y="912" on="1"/>
        <pt x="424" y="785" on="1"/>
        <pt x="463" y="785" on="1"/>
      </contour>
    </TTGlyph>
    <TTGlyph name="Amacron" xMin="30" yMin="0" xMax="702" yMax="823">
      <contour>
        <pt x="509" y="206" on="1"/>
        <pt x="605" y="0" on="1"/>
        <pt x="702" y="0" on="1"/>
        <pt x="376" y="700" on="1"/>
        <pt x="326" y="700" on="1"/>
        <pt x="30" y="0" on="1"/>
        <pt x="76" y="0" on="1"/>
        <pt x="164" y="206" on="1"/>
      </contour>
      <contour>
        <pt x="488" y="251" on="1"/>
        <pt x="183" y="251" on="1"/>
        <pt x="327" y="588" on="1"/>
        <pt x="331" y="588" on="1"/>
      </contour>
      <contour>
        <pt x="209" y="783" on="1"/>
        <pt x="522" y="783" on="1"/>
        <pt x="522" y="823" on="1"/>
        <pt x="209" y="823" on="1"/>
      </contour>
    </TTGlyph>
    <TTGlyph name="Aogonek" xMin="30" yMin="-190" xMax="702" yMax="700">
      <contour>
        <pt x="654" y="0" on="1"/>
        <pt x="608" y="-33" on="1"/>
        <pt x="581" y="-53" on="0"/>
        <pt x="536" y="-101" on="0"/>
        <pt x="536" y="-130" on="1"/>
        <pt x="536" y="-164" on="0"/>
        <pt x="583" y="-190" on="0"/>
        <pt x="610" y="-190" on="1"/>
        <pt x="633" y="-190" on="0"/>
        <pt x="678" y="-174" on="0"/>
        <pt x="694" y="-162" on="1"/>
        <pt x="683" y="-135" on="1"/>
        <pt x="673" y="-140" on="0"/>
        <pt x="643" y="-152" on="0"/>
        <pt x="629" y="-152" on="1"/>
        <pt x="608" y="-152" on="0"/>
        <pt x="597" y="-126" on="0"/>
        <pt x="597" y="-120" on="1"/>
        <pt x="597" y="-103" on="0"/>
        <pt x="615" y="-71" on="0"/>
        <pt x="645" y="-40" on="0"/>
        <pt x="683" y="-12" on="0"/>
        <pt x="702" y="0" on="1"/>
        <pt x="376" y="700" on="1"/>
        <pt x="326" y="700" on="1"/>
        <pt x="30" y="0" on="1"/>
        <pt x="76" y="0" on="1"/>
        <pt x="164" y="206" on="1"/>
        <pt x="509" y="206" on="1"/>
        <pt x="605" y="0" on="1"/>
      </contour>
      <contour>
        <pt x="488" y="251" on="1"/>
        <pt x="183" y="251" on="1"/>
        <pt x="327" y="588" on="1"/>
        <pt x="331" y="588" on="1"/>
      </contour>
    </TTGlyph>
    <TTGlyph name="Aring" xMin="30" yMin="0" xMax="702" yMax="920">
      <contour>
        <pt x="509" y="206" on="1"/>
        <pt x="605" y="0" on="1"/>
        <pt x="702" y="0" on="1"/>
        <pt x="376" y="700" on="1"/>
        <pt x="326" y="700" on="1"/>
        <pt x="30" y="0" on="1"/>
        <pt x="76" y="0" on="1"/>
        <pt x="164" y="206" on="1"/>
      </contour>
      <contour>
        <pt x="488" y="251" on="1"/>
        <pt x="183" y="251" on="1"/>
        <pt x="327" y="588" on="1"/>
        <pt x="331" y="588" on="1"/>
      </contour>
      <contour>
        <pt x="307" y="829" on="1"/>
        <pt x="307" y="854" on="0"/>
        <pt x="341" y="887" on="0"/>
        <pt x="366" y="887" on="1"/>
        <pt x="390" y="887" on="0"/>
        <pt x="425" y="854" on="0"/>
        <pt x="425" y="829" on="1"/>
        <pt x="425" y="804" on="0"/>
        <pt x="390" y="770" on="0"/>
        <pt x="366" y="770" on="1"/>
        <pt x="341" y="770" on="0"/>
        <pt x="307" y="804" on="0"/>
      </contour>
      <contour>
        <pt x="274" y="829" on="1"/>
        <pt x="274" y="810" on="0"/>
        <pt x="288" y="777" on="0"/>
        <pt x="313" y="752" on="0"/>
        <pt x="347" y="737" on="0"/>
        <pt x="366" y="737" on="1"/>
        <pt x="385" y="737" on="0"/>
        <pt x="419" y="752" on="0"/>
        <pt x="444" y="777" on="0"/>
        <pt x="458" y="810" on="0"/>
        <pt x="458" y="829" on="1"/>
        <pt x="458" y="844" on="0"/>
        <pt x="447" y="877" on="0"/>
        <pt x="424" y="903" on="0"/>
        <pt x="389" y="920" on="0"/>
        <pt x="366" y="920" on="1"/>
        <pt x="343" y="920" on="0"/>
        <pt x="309" y="903" on="0"/>
        <pt x="286" y="877" on="0"/>
        <pt x="274" y="844" on="0"/>
      </contour>
    </TTGlyph>
    <TTGlyph name="Atilde" xMin="30" yMin="0" xMax="702" yMax="900">
      <contour>
        <pt x="509" y="206" on="1"/>
        <pt x="605" y="0" on="1"/>
        <pt x="702" y="0" on="1"/>
        <pt x="376" y="700" on="1"/>
        <pt x="326" y="700" on="1"/>
        <pt x="30" y="0" on="1"/>
        <pt x="76" y="0" on="1"/>
        <pt x="164" y="206" on="1"/>
      </contour>
      <contour>
        <pt x="488" y="251" on="1"/>
        <pt x="183" y="251" on="1"/>
        <pt x="327" y="588" on="1"/>
        <pt x="331" y="588" on="1"/>
      </contour>
      <contour>
        <pt x="207" y="789" on="1"/>
        <pt x="218" y="808" on="0"/>
        <pt x="253" y="833" on="0"/>
        <pt x="270" y="833" on="1"/>
        <pt x="283" y="833" on="0"/>
        <pt x="308" y="825" on="0"/>
        <pt x="319" y="820" on="1"/>
        <pt x="355" y="806" on="0"/>
        <pt x="415" y="784" on="0"/>
        <pt x="441" y="784" on="1"/>
        <pt x="476" y="784" on="0"/>
        <pt x="535" y="831" on="0"/>
        <pt x="552" y="884" on="1"/>
        <pt x="522" y="898" on="1"/>
        <pt x="511" y="872" on="0"/>
        <pt x="477" y="853" on="0"/>
        <pt x="460" y="853" on="1"/>
        <pt x="448" y="853" on="0"/>
        <pt x="425" y="859" on="0"/>
        <pt x="416" y="861" on="1"/>
        <pt x="373" y="875" on="0"/>
        <pt x="312" y="900" on="0"/>
        <pt x="289" y="900" on="1"/>
        <pt x="251" y="900" on="0"/>
        <pt x="194" y="845" on="0"/>
        <pt x="180" y="804" on="1"/>
      </contour>
    </TTGlyph>
    <TTGlyph name="B" xMin="120" yMin="0" xMax="611" yMax="700">
      <contour>
        <pt x="120" y="0" on="1"/>
        <pt x="371" y="0" on="1"/>
        <pt x="438" y="0" on="0"/>
        <pt x="530" y="35" on="0"/>
        <pt x="586" y="91" on="0"/>
        <pt x="611" y="162" on="0"/>
        <pt x="611" y="198" on="1"/>
        <pt x="611" y="255" on="0"/>
        <pt x="562" y="323" on="0"/>
        <pt x="494" y="359" on="0"/>
        <pt x="422" y="371" on="0"/>
        <pt x="400" y="372" on="1"/>
        <pt x="400" y="376" on="1"/>
        <pt x="435" y="376" on="0"/>
        <pt x="497" y="403" on="0"/>
        <pt x="544" y="446" on="0"/>
        <pt x="572" y="503" on="0"/>
        <pt x="572" y="535" on="1"/>
        <pt x="572" y="563" on="0"/>
        <pt x="548" y="621" on="0"/>
        <pt x="499" y="669" on="0"/>
        <pt x="422" y="700" on="0"/>
        <pt x="370" y="700" on="1"/>
        <pt x="120" y="700" on="1"/>
      </contour>
      <contour>
        <pt x="211" y="44" on="1"/>
        <pt x="211" y="350" on="1"/>
        <pt x="321" y="350" on="1"/>
        <pt x="370" y="350" on="0"/>
        <pt x="442" y="324" on="0"/>
        <pt x="489" y="280" on="0"/>
        <pt x="512" y="222" on="0"/>
        <pt x="512" y="190" on="1"/>
        <pt x="512" y="155" on="0"/>
        <pt x="487" y="101" on="0"/>
        <pt x="445" y="63" on="0"/>
        <pt x="388" y="44" on="0"/>
        <pt x="356" y="44" on="1"/>
      </contour>
      <contour>
        <pt x="211" y="394" on="1"/>
        <pt x="211" y="656" on="1"/>
        <pt x="333" y="656" on="1"/>
        <pt x="372" y="656" on="0"/>
        <pt x="427" y="634" on="0"/>
        <pt x="462" y="598" on="0"/>
        <pt x="478" y="552" on="0"/>
        <pt x="478" y="529" on="1"/>
        <pt x="478" y="500" on="0"/>
        <pt x="455" y="450" on="0"/>
        <pt x="414" y="414" on="0"/>
        <pt x="361" y="394" on="0"/>
        <pt x="331" y="394" on="1"/>
      </contour>
    </TTGlyph>
    <TTGlyph name="C" xMin="50" yMin="-12" xMax="739" yMax="712">
      <contour>
        <pt x="709" y="129" on="1"/>
        <pt x="607" y="33" on="0"/>
        <pt x="467" y="33" on="1"/>
        <pt x="389" y="33" on="0"/>
        <pt x="269" y="87" on="0"/>
        <pt x="189" y="177" on="0"/>
        <pt x="148" y="295" on="0"/>
        <pt x="148" y="359" on="1"/>
        <pt x="148" y="427" on="0"/>
        <pt x="191" y="540" on="0"/>
        <pt x="269" y="622" on="0"/>
        <pt x="376" y="668" on="0"/>
        <pt x="439" y="668" on="1"/>
        <pt x="482" y="668" on="0"/>
        <pt x="553" y="648" on="0"/>
        <pt x="608" y="616" on="0"/>
        <pt x="643" y="575" on="0"/>
        <pt x="650" y="554" on="1"/>
        <pt x="724" y="554" on="1"/>
        <pt x="709" y="588" on="0"/>
        <pt x="662" y="646" on="0"/>
        <pt x="592" y="688" on="0"/>
        <pt x="498" y="712" on="0"/>
        <pt x="438" y="712" on="1"/>
        <pt x="351" y="712" on="0"/>
        <pt x="208" y="662" on="0"/>
        <pt x="106" y="569" on="0"/>
        <pt x="50" y="438" on="0"/>
        <pt x="50" y="357" on="1"/>
        <pt x="50" y="287" on="0"/>
        <pt x="95" y="154" on="0"/>
        <pt x="189" y="51" on="0"/>
        <pt x="335" y="-12" on="0"/>
        <pt x="436" y="-12" on="1"/>
        <pt x="500" y="-12" on="0"/>
        <pt x="601" y="12" on="0"/>
        <pt x="676" y="47" on="0"/>
        <pt x="726" y="87" on="0"/>
        <pt x="739" y="102" on="1"/>
      </contour>
    </TTGlyph>
    <TTGlyph name="Cacute" xMin="50" yMin="-12" xMax="739" yMax="912">
      <contour>
        <pt x="709" y="129" on="1"/>
        <pt x="607" y="33" on="0"/>
        <pt x="467" y="33" on="1"/>
        <pt x="389" y="33" on="0"/>
        <pt x="269" y="87" on="0"/>
        <pt x="189" y="177" on="0"/>
        <pt x="148" y="295" on="0"/>
        <pt x="148" y="359" on="1"/>
        <pt x="148" y="427" on="0"/>
        <pt x="191" y="540" on="0"/>
        <pt x="269" y="622" on="0"/>
        <pt x="376" y="668" on="0"/>
        <pt x="439" y="668" on="1"/>
        <pt x="482" y="668" on="0"/>
        <pt x="553" y="648" on="0"/>
        <pt x="608" y="616" on="0"/>
        <pt x="643" y="575" on="0"/>
        <pt x="650" y="554" on="1"/>
        <pt x="724" y="554" on="1"/>
        <pt x="709" y="588" on="0"/>
        <pt x="662" y="646" on="0"/>
        <pt x="592" y="688" on="0"/>
        <pt x="498" y="712" on="0"/>
        <pt x="438" y="712" on="1"/>
        <pt x="351" y="712" on="0"/>
        <pt x="208" y="662" on="0"/>
        <pt x="106" y="569" on="0"/>
        <pt x="50" y="438" on="0"/>
        <pt x="50" y="357" on="1"/>
        <pt x="50" y="287" on="0"/>
        <pt x="95" y="154" on="0"/>
        <pt x="189" y="51" on="0"/>
        <pt x="335" y="-12" on="0"/>
        <pt x="436" y="-12" on="1"/>
        <pt x="500" y="-12" on="0"/>
        <pt x="601" y="12" on="0"/>
        <pt x="676" y="47" on="0"/>
        <pt x="726" y="87" on="0"/>
        <pt x="739" y="102" on="1"/>
      </contour>
      <contour>
        <pt x="365" y="912" on="1"/>
        <pt x="476" y="912" on="1"/>
        <pt x="321" y="785" on="1"/>
        <pt x="282" y="785" on="1"/>
      </contour>
    </TTGlyph>
    <TTGlyph name="Ccaron" xMin="50" yMin="-12" xMax="739" yMax="913">
      <contour>
        <pt x="709" y="129" on="1"/>
        <pt x="607" y="33" on="0"/>
        <pt x="467" y="33" on="1"/>
        <pt x="389" y="33" on="0"/>
        <pt x="269" y="87" on="0"/>
        <pt x="189" y="177" on="0"/>
        <pt x="148" y="295" on="0"/>
        <pt x="148" y="359" on="1"/>
        <pt x="148" y="427" on="0"/>
        <pt x="191" y="540" on="0"/>
        <pt x="269" y="622" on="0"/>
        <pt x="376" y="668" on="0"/>
        <pt x="439" y="668" on="1"/>
        <pt x="482" y="668" on="0"/>
        <pt x="553" y="648" on="0"/>
        <pt x="608" y="616" on="0"/>
        <pt x="643" y="575" on="0"/>
        <pt x="650" y="554" on="1"/>
        <pt x="724" y="554" on="1"/>
        <pt x="709" y="588" on="0"/>
        <pt x="662" y="646" on="0"/>
        <pt x="592" y="688" on="0"/>
        <pt x="498" y="712" on="0"/>
        <pt x="438" y="712" on="1"/>
        <pt x="351" y="712" on="0"/>
        <pt x="208" y="662" on="0"/>
        <pt x="106" y="569" on="0"/>
        <pt x="50" y="438" on="0"/>
        <pt x="50" y="357" on="1"/>
        <pt x="50" y="287" on="0"/>
        <pt x="95" y="154" on="0"/>
        <pt x="189" y="51" on="0"/>
        <pt x="335" y="-12" on="0"/>
        <pt x="436" y="-12" on="1"/>
        <pt x="500" y="-12" on="0"/>
        <pt x="601" y="12" on="0"/>
        <pt x="676" y="47" on="0"/>
        <pt x="726" y="87" on="0"/>
        <pt x="739" y="102" on="1"/>
      </contour>
      <contour>
        <pt x="379" y="821" on="1"/>
        <pt x="379" y="820" on="0"/>
        <pt x="401" y="834" on="0"/>
        <pt x="434" y="854" on="0"/>
        <pt x="473" y="878" on="0"/>
        <pt x="506" y="899" on="0"/>
        <pt x="528" y="913" on="0"/>
        <pt x="528" y="913" on="1"/>
        <pt x="553" y="882" on="1"/>
        <pt x="553" y="882" on="0"/>
        <pt x="531" y="860" on="0"/>
        <pt x="498" y="828" on="0"/>
        <pt x="459" y="790" on="0"/>
        <pt x="426" y="758" on="0"/>
        <pt x="404" y="737" on="0"/>
        <pt x="404" y="737" on="1"/>
        <pt x="354" y="737" on="1"/>
        <pt x="354" y="737" on="0"/>
        <pt x="332" y="759" on="0"/>
        <pt x="299" y="791" on="0"/>
        <pt x="260" y="829" on="0"/>
        <pt x="227" y="861" on="0"/>
        <pt x="205" y="882" on="0"/>
        <pt x="205" y="882" on="1"/>
        <pt x="229" y="912" on="1"/>
        <pt x="229" y="912" on="0"/>
        <pt x="252" y="899" on="0"/>
        <pt x="285" y="878" on="0"/>
        <pt x="324" y="855" on="0"/>
        <pt x="357" y="834" on="0"/>
        <pt x="379" y="821" on="0"/>
      </contour>
    </TTGlyph>
    <TTGlyph name="Ccedilla" xMin="50" yMin="-196" xMax="739" yMax="712">
      <contour>
        <pt x="384" y="-190" on="1"/>
        <pt x="399" y="-192" on="0"/>
        <pt x="434" y="-196" on="0"/>
        <pt x="451" y="-196" on="1"/>
        <pt x="472" y="-196" on="0"/>
        <pt x="513" y="-187" on="0"/>
        <pt x="545" y="-166" on="0"/>
        <pt x="565" y="-135" on="0"/>
        <pt x="565" y="-112" on="1"/>
        <pt x="565" y="-80" on="0"/>
        <pt x="511" y="-43" on="0"/>
        <pt x="478" y="-43" on="1"/>
        <pt x="472" y="-43" on="0"/>
        <pt x="460" y="-43" on="0"/>
        <pt x="454" y="-44" on="1"/>
        <pt x="463" y="-11" on="1"/>
        <pt x="521" y="-8" on="0"/>
        <pt x="612" y="17" on="0"/>
        <pt x="681" y="50" on="0"/>
        <pt x="727" y="87" on="0"/>
        <pt x="739" y="102" on="1"/>
        <pt x="709" y="129" on="1"/>
        <pt x="607" y="33" on="0"/>
        <pt x="467" y="33" on="1"/>
        <pt x="389" y="33" on="0"/>
        <pt x="269" y="87" on="0"/>
        <pt x="189" y="177" on="0"/>
        <pt x="148" y="295" on="0"/>
        <pt x="148" y="359" on="1"/>
        <pt x="148" y="427" on="0"/>
        <pt x="191" y="540" on="0"/>
        <pt x="269" y="622" on="0"/>
        <pt x="376" y="668" on="0"/>
        <pt x="439" y="668" on="1"/>
        <pt x="482" y="668" on="0"/>
        <pt x="553" y="648" on="0"/>
        <pt x="608" y="616" on="0"/>
        <pt x="643" y="575" on="0"/>
        <pt x="650" y="554" on="1"/>
        <pt x="724" y="554" on="1"/>
        <pt x="709" y="588" on="0"/>
        <pt x="662" y="646" on="0"/>
        <pt x="592" y="688" on="0"/>
        <pt x="498" y="712" on="0"/>
        <pt x="438" y="712" on="1"/>
        <pt x="351" y="712" on="0"/>
        <pt x="208" y="662" on="0"/>
        <pt x="106" y="569" on="0"/>
        <pt x="50" y="438" on="0"/>
        <pt x="50" y="357" on="1"/>
        <pt x="50" y="288" on="0"/>
        <pt x="94" y="156" on="0"/>
        <pt x="186" y="53" on="0"/>
        <pt x="330" y="-11" on="0"/>
        <pt x="429" y="-12" on="1"/>
        <pt x="408" y="-82" on="1"/>
        <pt x="415" y="-80" on="0"/>
        <pt x="438" y="-78" on="0"/>
        <pt x="445" y="-78" on="1"/>
        <pt x="483" y="-78" on="0"/>
        <pt x="509" y="-102" on="0"/>
        <pt x="509" y="-114" on="1"/>
        <pt x="509" y="-131" on="0"/>
        <pt x="491" y="-151" on="0"/>
        <pt x="463" y="-161" on="0"/>
        <pt x="430" y="-165" on="0"/>
        <pt x="416" y="-165" on="1"/>
        <pt x="409" y="-165" on="0"/>
        <pt x="397" y="-165" on="0"/>
        <pt x="392" y="-163" on="1"/>
      </contour>
    </TTGlyph>
    <TTGlyph name="Ccircumflex" xMin="50" yMin="-12" xMax="739" yMax="912">
      <contour>
        <pt x="709" y="129" on="1"/>
        <pt x="607" y="33" on="0"/>
        <pt x="467" y="33" on="1"/>
        <pt x="389" y="33" on="0"/>
        <pt x="269" y="87" on="0"/>
        <pt x="189" y="177" on="0"/>
        <pt x="148" y="295" on="0"/>
        <pt x="148" y="359" on="1"/>
        <pt x="148" y="427" on="0"/>
        <pt x="191" y="540" on="0"/>
        <pt x="269" y="622" on="0"/>
        <pt x="376" y="668" on="0"/>
        <pt x="439" y="668" on="1"/>
        <pt x="482" y="668" on="0"/>
        <pt x="553" y="648" on="0"/>
        <pt x="608" y="616" on="0"/>
        <pt x="643" y="575" on="0"/>
        <pt x="650" y="554" on="1"/>
        <pt x="724" y="554" on="1"/>
        <pt x="709" y="588" on="0"/>
        <pt x="662" y="646" on="0"/>
        <pt x="592" y="688" on="0"/>
        <pt x="498" y="712" on="0"/>
        <pt x="438" y="712" on="1"/>
        <pt x="351" y="712" on="0"/>
        <pt x="208" y="662" on="0"/>
        <pt x="106" y="569" on="0"/>
        <pt x="50" y="438" on="0"/>
        <pt x="50" y="357" on="1"/>
        <pt x="50" y="287" on="0"/>
        <pt x="95" y="154" on="0"/>
        <pt x="189" y="51" on="0"/>
        <pt x="335" y="-12" on="0"/>
        <pt x="436" y="-12" on="1"/>
        <pt x="500" y="-12" on="0"/>
        <pt x="601" y="12" on="0"/>
        <pt x="676" y="47" on="0"/>
        <pt x="726" y="87" on="0"/>
        <pt x="739" y="102" on="1"/>
      </contour>
      <contour>
        <pt x="379" y="828" on="1"/>
        <pt x="379" y="828" on="0"/>
        <pt x="401" y="815" on="0"/>
        <pt x="434" y="795" on="0"/>
        <pt x="473" y="771" on="0"/>
        <pt x="506" y="750" on="0"/>
        <pt x="528" y="736" on="0"/>
        <pt x="528" y="736" on="1"/>
        <pt x="553" y="767" on="1"/>
        <pt x="553" y="767" on="0"/>
        <pt x="531" y="789" on="0"/>
        <pt x="498" y="821" on="0"/>
        <pt x="459" y="859" on="0"/>
        <pt x="426" y="891" on="0"/>
        <pt x="404" y="912" on="0"/>
        <pt x="404" y="912" on="1"/>
        <pt x="354" y="912" on="1"/>
        <pt x="354" y="912" on="0"/>
        <pt x="332" y="890" on="0"/>
        <pt x="299" y="858" on="0"/>
        <pt x="260" y="820" on="0"/>
        <pt x="227" y="788" on="0"/>
        <pt x="205" y="766" on="0"/>
        <pt x="205" y="767" on="1"/>
        <pt x="229" y="737" on="1"/>
        <pt x="229" y="737" on="0"/>
        <pt x="252" y="750" on="0"/>
        <pt x="285" y="771" on="0"/>
        <pt x="324" y="794" on="0"/>
        <pt x="357" y="815" on="0"/>
        <pt x="379" y="828" on="0"/>
      </contour>
    </TTGlyph>
    <TTGlyph name="Cdotaccent" xMin="50" yMin="-12" xMax="739" yMax="912">
      <contour>
        <pt x="709" y="129" on="1"/>
        <pt x="607" y="33" on="0"/>
        <pt x="467" y="33" on="1"/>
        <pt x="389" y="33" on="0"/>
        <pt x="269" y="87" on="0"/>
        <pt x="189" y="177" on="0"/>
        <pt x="148" y="295" on="0"/>
        <pt x="148" y="359" on="1"/>
        <pt x="148" y="427" on="0"/>
        <pt x="191" y="540" on="0"/>
        <pt x="269" y="622" on="0"/>
        <pt x="376" y="668" on="0"/>
        <pt x="439" y="668" on="1"/>
        <pt x="482" y="668" on="0"/>
        <pt x="553" y="648" on="0"/>
        <pt x="608" y="616" on="0"/>
        <pt x="643" y="575" on="0"/>
        <pt x="650" y="554" on="1"/>
        <pt x="724" y="554" on="1"/>
        <pt x="709" y="588" on="0"/>
        <pt x="662" y="646" on="0"/>
        <pt x="592" y="688" on="0"/>
        <pt x="498" y="712" on="0"/>
        <pt x="438" y="712" on="1"/>
        <pt x="351" y="712" on="0"/>
        <pt x="208" y="662" on="0"/>
        <pt x="106" y="569" on="0"/>
        <pt x="50" y="438" on="0"/>
        <pt x="50" y="357" on="1"/>
        <pt x="50" y="287" on="0"/>
        <pt x="95" y="154" on="0"/>
        <pt x="189" y="51" on="0"/>
        <pt x="335" y="-12" on="0"/>
        <pt x="436" y="-12" on="1"/>
        <pt x="500" y="-12" on="0"/>
        <pt x="601" y="12" on="0"/>
        <pt x="676" y="47" on="0"/>
        <pt x="726" y="87" on="0"/>
        <pt x="739" y="102" on="1"/>
      </contour>
      <contour>
        <pt x="325" y="858" on="1"/>
        <pt x="325" y="836" on="0"/>
        <pt x="357" y="804" on="0"/>
        <pt x="379" y="804" on="1"/>
        <pt x="401" y="804" on="0"/>
        <pt x="433" y="836" on="0"/>
        <pt x="433" y="858" on="1"/>
        <pt x="433" y="880" on="0"/>
        <pt x="401" y="912" on="0"/>
        <pt x="379" y="912" on="1"/>
        <pt x="357" y="912" on="0"/>
        <pt x="325" y="880" on="0"/>
      </contour>
    </TTGlyph>
    <TTGlyph name="D" xMin="130" yMin="0" xMax="735" yMax="700">
      <contour>
        <pt x="130" y="0" on="1"/>
        <pt x="130" y="700" on="1"/>
        <pt x="360" y="700" on="1"/>
        <pt x="443" y="700" on="0"/>
        <pt x="581" y="647" on="0"/>
        <pt x="680" y="554" on="0"/>
        <pt x="735" y="426" on="0"/>
        <pt x="735" y="352" on="1"/>
        <pt x="735" y="275" on="0"/>
        <pt x="678" y="146" on="0"/>
        <pt x="579" y="52" on="0"/>
        <pt x="447" y="0" on="0"/>
        <pt x="372" y="0" on="1"/>
      </contour>
      <contour>
        <pt x="221" y="44" on="1"/>
        <pt x="331" y="44" on="1"/>
        <pt x="413" y="44" on="0"/>
        <pt x="528" y="99" on="0"/>
        <pt x="602" y="187" on="0"/>
        <pt x="636" y="296" on="0"/>
        <pt x="636" y="350" on="1"/>
        <pt x="636" y="410" on="0"/>
        <pt x="596" y="521" on="0"/>
        <pt x="519" y="606" on="0"/>
        <pt x="405" y="656" on="0"/>
        <pt x="331" y="656" on="1"/>
        <pt x="221" y="656" on="1"/>
      </contour>
    </TTGlyph>
    <TTGlyph name="Dcaron" xMin="130" yMin="0" xMax="735" yMax="913">
      <contour>
        <pt x="130" y="0" on="1"/>
        <pt x="130" y="700" on="1"/>
        <pt x="360" y="700" on="1"/>
        <pt x="443" y="700" on="0"/>
        <pt x="581" y="647" on="0"/>
        <pt x="680" y="554" on="0"/>
        <pt x="735" y="426" on="0"/>
        <pt x="735" y="352" on="1"/>
        <pt x="735" y="275" on="0"/>
        <pt x="678" y="146" on="0"/>
        <pt x="579" y="52" on="0"/>
        <pt x="447" y="0" on="0"/>
        <pt x="372" y="0" on="1"/>
      </contour>
      <contour>
        <pt x="221" y="44" on="1"/>
        <pt x="331" y="44" on="1"/>
        <pt x="413" y="44" on="0"/>
        <pt x="528" y="99" on="0"/>
        <pt x="602" y="187" on="0"/>
        <pt x="636" y="296" on="0"/>
        <pt x="636" y="350" on="1"/>
        <pt x="636" y="410" on="0"/>
        <pt x="596" y="521" on="0"/>
        <pt x="519" y="606" on="0"/>
        <pt x="405" y="656" on="0"/>
        <pt x="331" y="656" on="1"/>
        <pt x="221" y="656" on="1"/>
      </contour>
      <contour>
        <pt x="382" y="821" on="1"/>
        <pt x="382" y="820" on="0"/>
        <pt x="404" y="834" on="0"/>
        <pt x="437" y="854" on="0"/>
        <pt x="476" y="878" on="0"/>
        <pt x="509" y="899" on="0"/>
        <pt x="531" y="913" on="0"/>
        <pt x="531" y="913" on="1"/>
        <pt x="556" y="882" on="1"/>
        <pt x="556" y="882" on="0"/>
        <pt x="534" y="860" on="0"/>
        <pt x="501" y="828" on="0"/>
        <pt x="462" y="790" on="0"/>
        <pt x="429" y="758" on="0"/>
        <pt x="407" y="737" on="0"/>
        <pt x="407" y="737" on="1"/>
        <pt x="357" y="737" on="1"/>
        <pt x="357" y="737" on="0"/>
        <pt x="335" y="759" on="0"/>
        <pt x="302" y="791" on="0"/>
        <pt x="263" y="829" on="0"/>
        <pt x="230" y="861" on="0"/>
        <pt x="208" y="882" on="0"/>
        <pt x="208" y="882" on="1"/>
        <pt x="232" y="912" on="1"/>
        <pt x="232" y="912" on="0"/>
        <pt x="255" y="899" on="0"/>
        <pt x="288" y="878" on="0"/>
        <pt x="327" y="855" on="0"/>
        <pt x="360" y="834" on="0"/>
        <pt x="382" y="821" on="0"/>
      </contour>
    </TTGlyph>
    <TTGlyph name="Dcroat" xMin="10" yMin="0" xMax="726" yMax="700">
      <contour>
        <pt x="10" y="371" on="1"/>
        <pt x="120" y="371" on="1"/>
        <pt x="120" y="700" on="1"/>
        <pt x="350" y="700" on="1"/>
        <pt x="433" y="700" on="0"/>
        <pt x="572" y="646" on="0"/>
        <pt x="671" y="552" on="0"/>
        <pt x="726" y="422" on="0"/>
        <pt x="726" y="347" on="1"/>
        <pt x="726" y="271" on="0"/>
        <pt x="668" y="144" on="0"/>
        <pt x="569" y="52" on="0"/>
        <pt x="437" y="0" on="0"/>
        <pt x="362" y="0" on="1"/>
        <pt x="120" y="0" on="1"/>
        <pt x="120" y="331" on="1"/>
        <pt x="10" y="331" on="1"/>
      </contour>
      <contour>
        <pt x="211" y="44" on="1"/>
        <pt x="321" y="44" on="1"/>
        <pt x="403" y="44" on="0"/>
        <pt x="518" y="100" on="0"/>
        <pt x="592" y="189" on="0"/>
        <pt x="626" y="299" on="0"/>
        <pt x="626" y="353" on="1"/>
        <pt x="626" y="414" on="0"/>
        <pt x="586" y="524" on="0"/>
        <pt x="509" y="607" on="0"/>
        <pt x="395" y="656" on="0"/>
        <pt x="321" y="656" on="1"/>
        <pt x="211" y="656" on="1"/>
        <pt x="211" y="371" on="1"/>
        <pt x="323" y="371" on="1"/>
        <pt x="323" y="331" on="1"/>
        <pt x="211" y="331" on="1"/>
      </contour>
    </TTGlyph>
    <TTGlyph name="Delta" xMin="30" yMin="0" xMax="732" yMax="700">
      <contour>
        <pt x="732" y="0" on="1"/>
        <pt x="428" y="700" on="1"/>
        <pt x="324" y="700" on="1"/>
        <pt x="30" y="0" on="1"/>
      </contour>
      <contour>
        <pt x="357" y="641" on="1"/>
        <pt x="601" y="67" on="1"/>
        <pt x="117" y="67" on="1"/>
      </contour>
    </TTGlyph>
    <TTGlyph name="E" xMin="120" yMin="0" xMax="572" yMax="700">
      <contour>
        <pt x="120" y="700" on="1"/>
        <pt x="120" y="0" on="1"/>
        <pt x="572" y="0" on="1"/>
        <pt x="572" y="55" on="1"/>
        <pt x="211" y="55" on="1"/>
        <pt x="211" y="348" on="1"/>
        <pt x="521" y="348" on="1"/>
        <pt x="521" y="394" on="1"/>
        <pt x="211" y="394" on="1"/>
        <pt x="211" y="645" on="1"/>
        <pt x="572" y="645" on="1"/>
        <pt x="572" y="700" on="1"/>
      </contour>
    </TTGlyph>
    <TTGlyph name="Eacute" xMin="120" yMin="0" xMax="572" yMax="912">
      <contour>
        <pt x="120" y="700" on="1"/>
        <pt x="120" y="0" on="1"/>
        <pt x="572" y="0" on="1"/>
        <pt x="572" y="55" on="1"/>
        <pt x="211" y="55" on="1"/>
        <pt x="211" y="348" on="1"/>
        <pt x="521" y="348" on="1"/>
        <pt x="521" y="394" on="1"/>
        <pt x="211" y="394" on="1"/>
        <pt x="211" y="645" on="1"/>
        <pt x="572" y="645" on="1"/>
        <pt x="572" y="700" on="1"/>
      </contour>
      <contour>
        <pt x="287" y="912" on="1"/>
        <pt x="398" y="912" on="1"/>
        <pt x="243" y="785" on="1"/>
        <pt x="204" y="785" on="1"/>
      </contour>
    </TTGlyph>
    <TTGlyph name="Ebreve" xMin="120" yMin="0" xMax="572" yMax="912">
      <contour>
        <pt x="120" y="700" on="1"/>
        <pt x="120" y="0" on="1"/>
        <pt x="572" y="0" on="1"/>
        <pt x="572" y="55" on="1"/>
        <pt x="211" y="55" on="1"/>
        <pt x="211" y="348" on="1"/>
        <pt x="521" y="348" on="1"/>
        <pt x="521" y="394" on="1"/>
        <pt x="211" y="394" on="1"/>
        <pt x="211" y="645" on="1"/>
        <pt x="572" y="645" on="1"/>
        <pt x="572" y="700" on="1"/>
      </contour>
      <contour>
        <pt x="154" y="912" on="1"/>
        <pt x="154" y="884" on="0"/>
        <pt x="176" y="834" on="0"/>
        <pt x="216" y="797" on="0"/>
        <pt x="269" y="776" on="0"/>
        <pt x="301" y="776" on="1"/>
        <pt x="332" y="776" on="0"/>
        <pt x="386" y="797" on="0"/>
        <pt x="426" y="834" on="0"/>
        <pt x="448" y="884" on="0"/>
        <pt x="448" y="912" on="1"/>
        <pt x="406" y="912" on="1"/>
        <pt x="404" y="867" on="0"/>
        <pt x="343" y="812" on="0"/>
        <pt x="301" y="812" on="1"/>
        <pt x="260" y="812" on="0"/>
        <pt x="199" y="867" on="0"/>
        <pt x="196" y="912" on="1"/>
      </contour>
    </TTGlyph>
    <TTGlyph name="Ecaron" xMin="120" yMin="0" xMax="572" yMax="913">
      <contour>
        <pt x="120" y="700" on="1"/>
        <pt x="120" y="0" on="1"/>
        <pt x="572" y="0" on="1"/>
        <pt x="572" y="55" on="1"/>
        <pt x="211" y="55" on="1"/>
        <pt x="211" y="348" on="1"/>
        <pt x="521" y="348" on="1"/>
        <pt x="521" y="394" on="1"/>
        <pt x="211" y="394" on="1"/>
        <pt x="211" y="645" on="1"/>
        <pt x="572" y="645" on="1"/>
        <pt x="572" y="700" on="1"/>
      </contour>
      <contour>
        <pt x="300" y="821" on="1"/>
        <pt x="300" y="820" on="0"/>
        <pt x="322" y="834" on="0"/>
        <pt x="355" y="854" on="0"/>
        <pt x="394" y="878" on="0"/>
        <pt x="427" y="899" on="0"/>
        <pt x="449" y="913" on="0"/>
        <pt x="449" y="913" on="1"/>
        <pt x="474" y="882" on="1"/>
        <pt x="474" y="882" on="0"/>
        <pt x="452" y="860" on="0"/>
        <pt x="419" y="828" on="0"/>
        <pt x="380" y="790" on="0"/>
        <pt x="347" y="758" on="0"/>
        <pt x="325" y="737" on="0"/>
        <pt x="325" y="737" on="1"/>
        <pt x="275" y="737" on="1"/>
        <pt x="275" y="737" on="0"/>
        <pt x="253" y="759" on="0"/>
        <pt x="220" y="791" on="0"/>
        <pt x="181" y="829" on="0"/>
        <pt x="148" y="861" on="0"/>
        <pt x="126" y="882" on="0"/>
        <pt x="126" y="882" on="1"/>
        <pt x="150" y="912" on="1"/>
        <pt x="150" y="912" on="0"/>
        <pt x="173" y="899" on="0"/>
        <pt x="206" y="878" on="0"/>
        <pt x="245" y="855" on="0"/>
        <pt x="278" y="834" on="0"/>
        <pt x="300" y="821" on="0"/>
      </contour>
    </TTGlyph>
    <TTGlyph name="Ecircumflex" xMin="120" yMin="0" xMax="572" yMax="912">
      <contour>
        <pt x="120" y="700" on="1"/>
        <pt x="120" y="0" on="1"/>
        <pt x="572" y="0" on="1"/>
        <pt x="572" y="55" on="1"/>
        <pt x="211" y="55" on="1"/>
        <pt x="211" y="348" on="1"/>
        <pt x="521" y="348" on="1"/>
        <pt x="521" y="394" on="1"/>
        <pt x="211" y="394" on="1"/>
        <pt x="211" y="645" on="1"/>
        <pt x="572" y="645" on="1"/>
        <pt x="572" y="700" on="1"/>
      </contour>
      <contour>
        <pt x="300" y="828" on="1"/>
        <pt x="300" y="828" on="0"/>
        <pt x="322" y="815" on="0"/>
        <pt x="355" y="795" on="0"/>
        <pt x="394" y="771" on="0"/>
        <pt x="427" y="750" on="0"/>
        <pt x="449" y="736" on="0"/>
        <pt x="449" y="736" on="1"/>
        <pt x="474" y="767" on="1"/>
        <pt x="474" y="767" on="0"/>
        <pt x="452" y="789" on="0"/>
        <pt x="419" y="821" on="0"/>
        <pt x="380" y="859" on="0"/>
        <pt x="347" y="891" on="0"/>
        <pt x="325" y="912" on="0"/>
        <pt x="325" y="912" on="1"/>
        <pt x="275" y="912" on="1"/>
        <pt x="275" y="912" on="0"/>
        <pt x="253" y="890" on="0"/>
        <pt x="220" y="858" on="0"/>
        <pt x="181" y="820" on="0"/>
        <pt x="148" y="788" on="0"/>
        <pt x="126" y="766" on="0"/>
        <pt x="126" y="767" on="1"/>
        <pt x="150" y="737" on="1"/>
        <pt x="150" y="737" on="0"/>
        <pt x="173" y="750" on="0"/>
        <pt x="206" y="771" on="0"/>
        <pt x="245" y="794" on="0"/>
        <pt x="278" y="815" on="0"/>
        <pt x="300" y="828" on="0"/>
      </contour>
    </TTGlyph>
    <TTGlyph name="Edieresis" xMin="120" yMin="0" xMax="572" yMax="912">
      <contour>
        <pt x="120" y="700" on="1"/>
        <pt x="120" y="0" on="1"/>
        <pt x="572" y="0" on="1"/>
        <pt x="572" y="55" on="1"/>
        <pt x="211" y="55" on="1"/>
        <pt x="211" y="348" on="1"/>
        <pt x="521" y="348" on="1"/>
        <pt x="521" y="394" on="1"/>
        <pt x="211" y="394" on="1"/>
        <pt x="211" y="645" on="1"/>
        <pt x="572" y="645" on="1"/>
        <pt x="572" y="700" on="1"/>
      </contour>
      <contour>
        <pt x="178" y="858" on="1"/>
        <pt x="178" y="836" on="0"/>
        <pt x="210" y="804" on="0"/>
        <pt x="232" y="804" on="1"/>
        <pt x="254" y="804" on="0"/>
        <pt x="286" y="836" on="0"/>
        <pt x="286" y="858" on="1"/>
        <pt x="286" y="880" on="0"/>
        <pt x="254" y="912" on="0"/>
        <pt x="232" y="912" on="1"/>
        <pt x="210" y="912" on="0"/>
        <pt x="178" y="880" on="0"/>
      </contour>
      <contour>
        <pt x="316" y="858" on="1"/>
        <pt x="316" y="836" on="0"/>
        <pt x="348" y="804" on="0"/>
        <pt x="370" y="804" on="1"/>
        <pt x="392" y="804" on="0"/>
        <pt x="424" y="836" on="0"/>
        <pt x="424" y="858" on="1"/>
        <pt x="424" y="880" on="0"/>
        <pt x="392" y="912" on="0"/>
        <pt x="370" y="912" on="1"/>
        <pt x="348" y="912" on="0"/>
        <pt x="316" y="880" on="0"/>
      </contour>
    </TTGlyph>
    <TTGlyph name="Edotaccent" xMin="120" yMin="0" xMax="572" yMax="912">
      <contour>
        <pt x="120" y="700" on="1"/>
        <pt x="120" y="0" on="1"/>
        <pt x="572" y="0" on="1"/>
        <pt x="572" y="55" on="1"/>
        <pt x="211" y="55" on="1"/>
        <pt x="211" y="348" on="1"/>
        <pt x="521" y="348" on="1"/>
        <pt x="521" y="394" on="1"/>
        <pt x="211" y="394" on="1"/>
        <pt x="211" y="645" on="1"/>
        <pt x="572" y="645" on="1"/>
        <pt x="572" y="700" on="1"/>
      </contour>
      <contour>
        <pt x="247" y="858" on="1"/>
        <pt x="247" y="836" on="0"/>
        <pt x="279" y="804" on="0"/>
        <pt x="301" y="804" on="1"/>
        <pt x="323" y="804" on="0"/>
        <pt x="355" y="836" on="0"/>
        <pt x="355" y="858" on="1"/>
        <pt x="355" y="880" on="0"/>
        <pt x="323" y="912" on="0"/>
        <pt x="301" y="912" on="1"/>
        <pt x="279" y="912" on="0"/>
        <pt x="247" y="880" on="0"/>
      </contour>
    </TTGlyph>
    <TTGlyph name="Egrave" xMin="120" yMin="0" xMax="572" yMax="912">
      <contour>
        <pt x="120" y="700" on="1"/>
        <pt x="120" y="0" on="1"/>
        <pt x="572" y="0" on="1"/>
        <pt x="572" y="55" on="1"/>
        <pt x="211" y="55" on="1"/>
        <pt x="211" y="348" on="1"/>
        <pt x="521" y="348" on="1"/>
        <pt x="521" y="394" on="1"/>
        <pt x="211" y="394" on="1"/>
        <pt x="211" y="645" on="1"/>
        <pt x="572" y="645" on="1"/>
        <pt x="572" y="700" on="1"/>
      </contour>
      <contour>
        <pt x="315" y="912" on="1"/>
        <pt x="204" y="912" on="1"/>
        <pt x="359" y="785" on="1"/>
        <pt x="398" y="785" on="1"/>
      </contour>
    </TTGlyph>
    <TTGlyph name="Emacron" xMin="120" yMin="0" xMax="572" yMax="823">
      <contour>
        <pt x="120" y="700" on="1"/>
        <pt x="120" y="0" on="1"/>
        <pt x="572" y="0" on="1"/>
        <pt x="572" y="55" on="1"/>
        <pt x="211" y="55" on="1"/>
        <pt x="211" y="348" on="1"/>
        <pt x="521" y="348" on="1"/>
        <pt x="521" y="394" on="1"/>
        <pt x="211" y="394" on="1"/>
        <pt x="211" y="645" on="1"/>
        <pt x="572" y="645" on="1"/>
        <pt x="572" y="700" on="1"/>
      </contour>
      <contour>
        <pt x="144" y="783" on="1"/>
        <pt x="457" y="783" on="1"/>
        <pt x="457" y="823" on="1"/>
        <pt x="144" y="823" on="1"/>
      </contour>
    </TTGlyph>
    <TTGlyph name="Eogonek" xMin="120" yMin="-190" xMax="572" yMax="700">
      <contour>
        <pt x="524" y="0" on="1"/>
        <pt x="478" y="-33" on="1"/>
        <pt x="451" y="-53" on="0"/>
        <pt x="406" y="-101" on="0"/>
        <pt x="406" y="-130" on="1"/>
        <pt x="406" y="-164" on="0"/>
        <pt x="453" y="-190" on="0"/>
        <pt x="480" y="-190" on="1"/>
        <pt x="503" y="-190" on="0"/>
        <pt x="548" y="-174" on="0"/>
        <pt x="564" y="-162" on="1"/>
        <pt x="553" y="-135" on="1"/>
        <pt x="543" y="-140" on="0"/>
        <pt x="513" y="-152" on="0"/>
        <pt x="499" y="-152" on="1"/>
        <pt x="478" y="-152" on="0"/>
        <pt x="467" y="-126" on="0"/>
        <pt x="467" y="-120" on="1"/>
        <pt x="467" y="-103" on="0"/>
        <pt x="485" y="-71" on="0"/>
        <pt x="515" y="-40" on="0"/>
        <pt x="553" y="-12" on="0"/>
        <pt x="572" y="0" on="1"/>
        <pt x="572" y="55" on="1"/>
        <pt x="211" y="55" on="1"/>
        <pt x="211" y="348" on="1"/>
        <pt x="521" y="348" on="1"/>
        <pt x="521" y="394" on="1"/>
        <pt x="211" y="394" on="1"/>
        <pt x="211" y="645" on="1"/>
        <pt x="572" y="645" on="1"/>
        <pt x="572" y="700" on="1"/>
        <pt x="120" y="700" on="1"/>
        <pt x="120" y="0" on="1"/>
      </contour>
    </TTGlyph>
    <TTGlyph name="Eth" xMin="10" yMin="0" xMax="726" yMax="700">
      <contour>
        <pt x="10" y="371" on="1"/>
        <pt x="120" y="371" on="1"/>
        <pt x="120" y="700" on="1"/>
        <pt x="350" y="700" on="1"/>
        <pt x="433" y="700" on="0"/>
        <pt x="572" y="646" on="0"/>
        <pt x="671" y="552" on="0"/>
        <pt x="726" y="422" on="0"/>
        <pt x="726" y="347" on="1"/>
        <pt x="726" y="271" on="0"/>
        <pt x="668" y="144" on="0"/>
        <pt x="569" y="52" on="0"/>
        <pt x="437" y="0" on="0"/>
        <pt x="362" y="0" on="1"/>
        <pt x="120" y="0" on="1"/>
        <pt x="120" y="331" on="1"/>
        <pt x="10" y="331" on="1"/>
      </contour>
      <contour>
        <pt x="211" y="44" on="1"/>
        <pt x="321" y="44" on="1"/>
        <pt x="403" y="44" on="0"/>
        <pt x="518" y="100" on="0"/>
        <pt x="592" y="189" on="0"/>
        <pt x="626" y="299" on="0"/>
        <pt x="626" y="353" on="1"/>
        <pt x="626" y="414" on="0"/>
        <pt x="586" y="524" on="0"/>
        <pt x="509" y="607" on="0"/>
        <pt x="395" y="656" on="0"/>
        <pt x="321" y="656" on="1"/>
        <pt x="211" y="656" on="1"/>
        <pt x="211" y="371" on="1"/>
        <pt x="323" y="371" on="1"/>
        <pt x="323" y="331" on="1"/>
        <pt x="211" y="331" on="1"/>
      </contour>
    </TTGlyph>
    <TTGlyph name="Euro" xMin="1" yMin="-12" xMax="544" yMax="711">
      <contour>
        <pt x="325" y="711" on="1"/>
        <pt x="267" y="711" on="0"/>
        <pt x="177" y="662" on="0"/>
        <pt x="114" y="581" on="0"/>
        <pt x="76" y="478" on="0"/>
        <pt x="70" y="424" on="1"/>
        <pt x="25" y="424" on="1"/>
        <pt x="1" y="380" on="1"/>
        <pt x="67" y="380" on="1"/>
        <pt x="66" y="374" on="0"/>
        <pt x="66" y="362" on="0"/>
        <pt x="66" y="356" on="1"/>
        <pt x="66" y="348" on="0"/>
        <pt x="66" y="332" on="0"/>
        <pt x="67" y="324" on="1"/>
        <pt x="25" y="324" on="1"/>
        <pt x="1" y="280" on="1"/>
        <pt x="71" y="280" on="1"/>
        <pt x="75" y="223" on="0"/>
        <pt x="113" y="118" on="0"/>
        <pt x="180" y="37" on="0"/>
        <pt x="272" y="-12" on="0"/>
        <pt x="330" y="-12" on="1"/>
        <pt x="398" y="-12" on="0"/>
        <pt x="499" y="42" on="0"/>
        <pt x="540" y="103" on="1"/>
        <pt x="507" y="128" on="1"/>
        <pt x="501" y="119" on="0"/>
        <pt x="477" y="87" on="0"/>
        <pt x="436" y="55" on="0"/>
        <pt x="379" y="31" on="0"/>
        <pt x="340" y="31" on="1"/>
        <pt x="292" y="31" on="0"/>
        <pt x="226" y="74" on="0"/>
        <pt x="185" y="145" on="0"/>
        <pt x="166" y="234" on="0"/>
        <pt x="166" y="280" on="1"/>
        <pt x="366" y="280" on="1"/>
        <pt x="389" y="324" on="1"/>
        <pt x="165" y="324" on="1"/>
        <pt x="165" y="380" on="1"/>
        <pt x="419" y="380" on="1"/>
        <pt x="442" y="424" on="1"/>
        <pt x="165" y="424" on="1"/>
        <pt x="167" y="466" on="0"/>
        <pt x="183" y="552" on="0"/>
        <pt x="220" y="623" on="0"/>
        <pt x="285" y="667" on="0"/>
        <pt x="336" y="667" on="1"/>
        <pt x="356" y="667" on="0"/>
        <pt x="407" y="657" on="0"/>
        <pt x="453" y="627" on="0"/>
        <pt x="486" y="573" on="0"/>
        <pt x="489" y="530" on="1"/>
        <pt x="544" y="530" on="1"/>
        <pt x="534" y="580" on="0"/>
        <pt x="508" y="620" on="1"/>
        <pt x="497" y="637" on="0"/>
        <pt x="464" y="670" on="0"/>
        <pt x="420" y="695" on="0"/>
        <pt x="362" y="711" on="0"/>
      </contour>
    </TTGlyph>
    <TTGlyph name="F" xMin="120" yMin="0" xMax="572" yMax="700">
      <contour>
        <pt x="120" y="700" on="1"/>
        <pt x="120" y="0" on="1"/>
        <pt x="211" y="0" on="1"/>
        <pt x="211" y="348" on="1"/>
        <pt x="521" y="348" on="1"/>
        <pt x="521" y="394" on="1"/>
        <pt x="211" y="394" on="1"/>
        <pt x="211" y="645" on="1"/>
        <pt x="572" y="645" on="1"/>
        <pt x="572" y="700" on="1"/>
      </contour>
    </TTGlyph>
    <TTGlyph name="G" xMin="60" yMin="-12" xMax="759" yMax="712">
      <contour>
        <pt x="757" y="312" on="1"/>
        <pt x="559" y="312" on="1"/>
        <pt x="559" y="271" on="1"/>
        <pt x="671" y="271" on="1"/>
        <pt x="671" y="90" on="1"/>
        <pt x="626" y="61" on="0"/>
        <pt x="532" y="33" on="0"/>
        <pt x="472" y="33" on="1"/>
        <pt x="393" y="33" on="0"/>
        <pt x="275" y="81" on="0"/>
        <pt x="197" y="166" on="0"/>
        <pt x="158" y="283" on="0"/>
        <pt x="158" y="353" on="1"/>
        <pt x="158" y="422" on="0"/>
        <pt x="195" y="538" on="0"/>
        <pt x="269" y="622" on="0"/>
        <pt x="376" y="668" on="0"/>
        <pt x="447" y="668" on="1"/>
        <pt x="494" y="668" on="0"/>
        <pt x="576" y="648" on="0"/>
        <pt x="640" y="616" on="0"/>
        <pt x="681" y="575" on="0"/>
        <pt x="687" y="554" on="1"/>
        <pt x="759" y="554" on="1"/>
        <pt x="750" y="576" on="0"/>
        <pt x="707" y="631" on="0"/>
        <pt x="633" y="679" on="0"/>
        <pt x="524" y="712" on="0"/>
        <pt x="450" y="712" on="1"/>
        <pt x="365" y="712" on="0"/>
        <pt x="222" y="664" on="0"/>
        <pt x="118" y="574" on="0"/>
        <pt x="60" y="443" on="0"/>
        <pt x="60" y="360" on="1"/>
        <pt x="60" y="289" on="0"/>
        <pt x="105" y="156" on="0"/>
        <pt x="198" y="51" on="0"/>
        <pt x="342" y="-12" on="0"/>
        <pt x="442" y="-12" on="1"/>
        <pt x="517" y="-12" on="0"/>
        <pt x="633" y="21" on="0"/>
        <pt x="671" y="41" on="1"/>
        <pt x="671" y="0" on="1"/>
        <pt x="757" y="0" on="1"/>
      </contour>
    </TTGlyph>
    <TTGlyph name="Gbreve" xMin="60" yMin="-12" xMax="759" yMax="912">
      <contour>
        <pt x="757" y="312" on="1"/>
        <pt x="559" y="312" on="1"/>
        <pt x="559" y="271" on="1"/>
        <pt x="671" y="271" on="1"/>
        <pt x="671" y="90" on="1"/>
        <pt x="626" y="61" on="0"/>
        <pt x="532" y="33" on="0"/>
        <pt x="472" y="33" on="1"/>
        <pt x="393" y="33" on="0"/>
        <pt x="275" y="81" on="0"/>
        <pt x="197" y="166" on="0"/>
        <pt x="158" y="283" on="0"/>
        <pt x="158" y="353" on="1"/>
        <pt x="158" y="422" on="0"/>
        <pt x="195" y="538" on="0"/>
        <pt x="269" y="622" on="0"/>
        <pt x="376" y="668" on="0"/>
        <pt x="447" y="668" on="1"/>
        <pt x="494" y="668" on="0"/>
        <pt x="576" y="648" on="0"/>
        <pt x="640" y="616" on="0"/>
        <pt x="681" y="575" on="0"/>
        <pt x="687" y="554" on="1"/>
        <pt x="759" y="554" on="1"/>
        <pt x="750" y="576" on="0"/>
        <pt x="707" y="631" on="0"/>
        <pt x="633" y="679" on="0"/>
        <pt x="524" y="712" on="0"/>
        <pt x="450" y="712" on="1"/>
        <pt x="365" y="712" on="0"/>
        <pt x="222" y="664" on="0"/>
        <pt x="118" y="574" on="0"/>
        <pt x="60" y="443" on="0"/>
        <pt x="60" y="360" on="1"/>
        <pt x="60" y="289" on="0"/>
        <pt x="105" y="156" on="0"/>
        <pt x="198" y="51" on="0"/>
        <pt x="342" y="-12" on="0"/>
        <pt x="442" y="-12" on="1"/>
        <pt x="517" y="-12" on="0"/>
        <pt x="633" y="21" on="0"/>
        <pt x="671" y="41" on="1"/>
        <pt x="671" y="0" on="1"/>
        <pt x="757" y="0" on="1"/>
      </contour>
      <contour>
        <pt x="261" y="912" on="1"/>
        <pt x="261" y="884" on="0"/>
        <pt x="283" y="834" on="0"/>
        <pt x="323" y="797" on="0"/>
        <pt x="376" y="776" on="0"/>
        <pt x="408" y="776" on="1"/>
        <pt x="439" y="776" on="0"/>
        <pt x="493" y="797" on="0"/>
        <pt x="533" y="834" on="0"/>
        <pt x="555" y="884" on="0"/>
        <pt x="555" y="912" on="1"/>
        <pt x="513" y="912" on="1"/>
        <pt x="511" y="867" on="0"/>
        <pt x="450" y="812" on="0"/>
        <pt x="408" y="812" on="1"/>
        <pt x="367" y="812" on="0"/>
        <pt x="306" y="867" on="0"/>
        <pt x="303" y="912" on="1"/>
      </contour>
    </TTGlyph>
    <TTGlyph name="Gcircumflex" xMin="60" yMin="-12" xMax="759" yMax="912">
      <contour>
        <pt x="757" y="312" on="1"/>
        <pt x="559" y="312" on="1"/>
        <pt x="559" y="271" on="1"/>
        <pt x="671" y="271" on="1"/>
        <pt x="671" y="90" on="1"/>
        <pt x="626" y="61" on="0"/>
        <pt x="532" y="33" on="0"/>
        <pt x="472" y="33" on="1"/>
        <pt x="393" y="33" on="0"/>
        <pt x="275" y="81" on="0"/>
        <pt x="197" y="166" on="0"/>
        <pt x="158" y="283" on="0"/>
        <pt x="158" y="353" on="1"/>
        <pt x="158" y="422" on="0"/>
        <pt x="195" y="538" on="0"/>
        <pt x="269" y="622" on="0"/>
        <pt x="376" y="668" on="0"/>
        <pt x="447" y="668" on="1"/>
        <pt x="494" y="668" on="0"/>
        <pt x="576" y="648" on="0"/>
        <pt x="640" y="616" on="0"/>
        <pt x="681" y="575" on="0"/>
        <pt x="687" y="554" on="1"/>
        <pt x="759" y="554" on="1"/>
        <pt x="750" y="576" on="0"/>
        <pt x="707" y="631" on="0"/>
        <pt x="633" y="679" on="0"/>
        <pt x="524" y="712" on="0"/>
        <pt x="450" y="712" on="1"/>
        <pt x="365" y="712" on="0"/>
        <pt x="222" y="664" on="0"/>
        <pt x="118" y="574" on="0"/>
        <pt x="60" y="443" on="0"/>
        <pt x="60" y="360" on="1"/>
        <pt x="60" y="289" on="0"/>
        <pt x="105" y="156" on="0"/>
        <pt x="198" y="51" on="0"/>
        <pt x="342" y="-12" on="0"/>
        <pt x="442" y="-12" on="1"/>
        <pt x="517" y="-12" on="0"/>
        <pt x="633" y="21" on="0"/>
        <pt x="671" y="41" on="1"/>
        <pt x="671" y="0" on="1"/>
        <pt x="757" y="0" on="1"/>
      </contour>
      <contour>
        <pt x="408" y="828" on="1"/>
        <pt x="408" y="828" on="0"/>
        <pt x="430" y="815" on="0"/>
        <pt x="463" y="795" on="0"/>
        <pt x="502" y="771" on="0"/>
        <pt x="535" y="750" on="0"/>
        <pt x="557" y="736" on="0"/>
        <pt x="557" y="736" on="1"/>
        <pt x="582" y="767" on="1"/>
        <pt x="582" y="767" on="0"/>
        <pt x="560" y="789" on="0"/>
        <pt x="527" y="821" on="0"/>
        <pt x="488" y="859" on="0"/>
        <pt x="455" y="891" on="0"/>
        <pt x="433" y="912" on="0"/>
        <pt x="433" y="912" on="1"/>
        <pt x="383" y="912" on="1"/>
        <pt x="383" y="912" on="0"/>
        <pt x="361" y="890" on="0"/>
        <pt x="328" y="858" on="0"/>
        <pt x="289" y="820" on="0"/>
        <pt x="256" y="788" on="0"/>
        <pt x="234" y="766" on="0"/>
        <pt x="234" y="767" on="1"/>
        <pt x="258" y="737" on="1"/>
        <pt x="258" y="737" on="0"/>
        <pt x="281" y="750" on="0"/>
        <pt x="314" y="771" on="0"/>
        <pt x="353" y="794" on="0"/>
        <pt x="386" y="815" on="0"/>
        <pt x="408" y="828" on="0"/>
      </contour>
    </TTGlyph>
    <TTGlyph name="Gdotaccent" xMin="60" yMin="-12" xMax="759" yMax="912">
      <contour>
        <pt x="757" y="312" on="1"/>
        <pt x="559" y="312" on="1"/>
        <pt x="559" y="271" on="1"/>
        <pt x="671" y="271" on="1"/>
        <pt x="671" y="90" on="1"/>
        <pt x="626" y="61" on="0"/>
        <pt x="532" y="33" on="0"/>
        <pt x="472" y="33" on="1"/>
        <pt x="393" y="33" on="0"/>
        <pt x="275" y="81" on="0"/>
        <pt x="197" y="166" on="0"/>
        <pt x="158" y="283" on="0"/>
        <pt x="158" y="353" on="1"/>
        <pt x="158" y="422" on="0"/>
        <pt x="195" y="538" on="0"/>
        <pt x="269" y="622" on="0"/>
        <pt x="376" y="668" on="0"/>
        <pt x="447" y="668" on="1"/>
        <pt x="494" y="668" on="0"/>
        <pt x="576" y="648" on="0"/>
        <pt x="640" y="616" on="0"/>
        <pt x="681" y="575" on="0"/>
        <pt x="687" y="554" on="1"/>
        <pt x="759" y="554" on="1"/>
        <pt x="750" y="576" on="0"/>
        <pt x="707" y="631" on="0"/>
        <pt x="633" y="679" on="0"/>
        <pt x="524" y="712" on="0"/>
        <pt x="450" y="712" on="1"/>
        <pt x="365" y="712" on="0"/>
        <pt x="222" y="664" on="0"/>
        <pt x="118" y="574" on="0"/>
        <pt x="60" y="443" on="0"/>
        <pt x="60" y="360" on="1"/>
        <pt x="60" y="289" on="0"/>
        <pt x="105" y="156" on="0"/>
        <pt x="198" y="51" on="0"/>
        <pt x="342" y="-12" on="0"/>
        <pt x="442" y="-12" on="1"/>
        <pt x="517" y="-12" on="0"/>
        <pt x="633" y="21" on="0"/>
        <pt x="671" y="41" on="1"/>
        <pt x="671" y="0" on="1"/>
        <pt x="757" y="0" on="1"/>
      </contour>
      <contour>
        <pt x="354" y="858" on="1"/>
        <pt x="354" y="836" on="0"/>
        <pt x="386" y="804" on="0"/>
        <pt x="408" y="804" on="1"/>
        <pt x="430" y="804" on="0"/>
        <pt x="462" y="836" on="0"/>
        <pt x="462" y="858" on="1"/>
        <pt x="462" y="880" on="0"/>
        <pt x="430" y="912" on="0"/>
        <pt x="408" y="912" on="1"/>
        <pt x="386" y="912" on="0"/>
        <pt x="354" y="880" on="0"/>
      </contour>
    </TTGlyph>
    <TTGlyph name="H" xMin="120" yMin="0" xMax="721" yMax="700">
      <contour>
        <pt x="211" y="348" on="1"/>
        <pt x="630" y="348" on="1"/>
        <pt x="630" y="0" on="1"/>
        <pt x="721" y="0" on="1"/>
        <pt x="721" y="700" on="1"/>
        <pt x="630" y="700" on="1"/>
        <pt x="630" y="394" on="1"/>
        <pt x="211" y="394" on="1"/>
        <pt x="211" y="700" on="1"/>
        <pt x="120" y="700" on="1"/>
        <pt x="120" y="0" on="1"/>
        <pt x="211" y="0" on="1"/>
      </contour>
    </TTGlyph>
    <TTGlyph name="Hbar" xMin="36" yMin="0" xMax="807" yMax="700">
      <contour>
        <pt x="36" y="500" on="1"/>
        <pt x="120" y="500" on="1"/>
        <pt x="120" y="0" on="1"/>
        <pt x="211" y="0" on="1"/>
        <pt x="211" y="350" on="1"/>
        <pt x="630" y="350" on="1"/>
        <pt x="630" y="0" on="1"/>
        <pt x="721" y="0" on="1"/>
        <pt x="721" y="500" on="1"/>
        <pt x="807" y="500" on="1"/>
        <pt x="807" y="540" on="1"/>
        <pt x="721" y="540" on="1"/>
        <pt x="721" y="700" on="1"/>
        <pt x="630" y="700" on="1"/>
        <pt x="630" y="540" on="1"/>
        <pt x="211" y="540" on="1"/>
        <pt x="211" y="700" on="1"/>
        <pt x="120" y="700" on="1"/>
        <pt x="120" y="540" on="1"/>
        <pt x="36" y="540" on="1"/>
      </contour>
      <contour>
        <pt x="211" y="394" on="1"/>
        <pt x="211" y="500" on="1"/>
        <pt x="630" y="500" on="1"/>
        <pt x="630" y="394" on="1"/>
      </contour>
    </TTGlyph>
    <TTGlyph name="Hcircumflex" xMin="120" yMin="0" xMax="721" yMax="912">
      <contour>
        <pt x="211" y="348" on="1"/>
        <pt x="630" y="348" on="1"/>
        <pt x="630" y="0" on="1"/>
        <pt x="721" y="0" on="1"/>
        <pt x="721" y="700" on="1"/>
        <pt x="630" y="700" on="1"/>
        <pt x="630" y="394" on="1"/>
        <pt x="211" y="394" on="1"/>
        <pt x="211" y="700" on="1"/>
        <pt x="120" y="700" on="1"/>
        <pt x="120" y="0" on="1"/>
        <pt x="211" y="0" on="1"/>
      </contour>
      <contour>
        <pt x="420" y="828" on="1"/>
        <pt x="420" y="828" on="0"/>
        <pt x="442" y="815" on="0"/>
        <pt x="475" y="795" on="0"/>
        <pt x="514" y="771" on="0"/>
        <pt x="547" y="750" on="0"/>
        <pt x="569" y="736" on="0"/>
        <pt x="569" y="736" on="1"/>
        <pt x="594" y="767" on="1"/>
        <pt x="594" y="767" on="0"/>
        <pt x="572" y="789" on="0"/>
        <pt x="539" y="821" on="0"/>
        <pt x="500" y="859" on="0"/>
        <pt x="467" y="891" on="0"/>
        <pt x="445" y="912" on="0"/>
        <pt x="445" y="912" on="1"/>
        <pt x="395" y="912" on="1"/>
        <pt x="395" y="912" on="0"/>
        <pt x="373" y="890" on="0"/>
        <pt x="340" y="858" on="0"/>
        <pt x="301" y="820" on="0"/>
        <pt x="268" y="788" on="0"/>
        <pt x="246" y="766" on="0"/>
        <pt x="246" y="767" on="1"/>
        <pt x="270" y="737" on="1"/>
        <pt x="270" y="737" on="0"/>
        <pt x="293" y="750" on="0"/>
        <pt x="326" y="771" on="0"/>
        <pt x="365" y="794" on="0"/>
        <pt x="398" y="815" on="0"/>
        <pt x="420" y="828" on="0"/>
      </contour>
    </TTGlyph>
    <TTGlyph name="I" xMin="160" yMin="0" xMax="251" yMax="700">
      <contour>
        <pt x="160" y="700" on="1"/>
        <pt x="160" y="0" on="1"/>
        <pt x="251" y="0" on="1"/>
        <pt x="251" y="700" on="1"/>
      </contour>
    </TTGlyph>
    <TTGlyph name="Iacute" xMin="108" yMin="0" xMax="302" yMax="912">
      <contour>
        <pt x="160" y="700" on="1"/>
        <pt x="160" y="0" on="1"/>
        <pt x="251" y="0" on="1"/>
        <pt x="251" y="700" on="1"/>
      </contour>
      <contour>
        <pt x="191" y="912" on="1"/>
        <pt x="302" y="912" on="1"/>
        <pt x="147" y="785" on="1"/>
        <pt x="108" y="785" on="1"/>
      </contour>
    </TTGlyph>
    <TTGlyph name="Ibreve" xMin="58" yMin="0" xMax="352" yMax="912">
      <contour>
        <pt x="160" y="700" on="1"/>
        <pt x="160" y="0" on="1"/>
        <pt x="251" y="0" on="1"/>
        <pt x="251" y="700" on="1"/>
      </contour>
      <contour>
        <pt x="58" y="912" on="1"/>
        <pt x="58" y="884" on="0"/>
        <pt x="80" y="834" on="0"/>
        <pt x="120" y="797" on="0"/>
        <pt x="173" y="776" on="0"/>
        <pt x="205" y="776" on="1"/>
        <pt x="236" y="776" on="0"/>
        <pt x="290" y="797" on="0"/>
        <pt x="330" y="834" on="0"/>
        <pt x="352" y="884" on="0"/>
        <pt x="352" y="912" on="1"/>
        <pt x="310" y="912" on="1"/>
        <pt x="308" y="867" on="0"/>
        <pt x="247" y="812" on="0"/>
        <pt x="205" y="812" on="1"/>
        <pt x="164" y="812" on="0"/>
        <pt x="103" y="867" on="0"/>
        <pt x="100" y="912" on="1"/>
      </contour>
    </TTGlyph>
    <TTGlyph name="Icircumflex" xMin="31" yMin="0" xMax="379" yMax="912">
      <contour>
        <pt x="160" y="700" on="1"/>
        <pt x="160" y="0" on="1"/>
        <pt x="251" y="0" on="1"/>
        <pt x="251" y="700" on="1"/>
      </contour>
      <contour>
        <pt x="205" y="828" on="1"/>
        <pt x="205" y="828" on="0"/>
        <pt x="227" y="815" on="0"/>
        <pt x="260" y="795" on="0"/>
        <pt x="299" y="771" on="0"/>
        <pt x="332" y="750" on="0"/>
        <pt x="354" y="736" on="0"/>
        <pt x="354" y="736" on="1"/>
        <pt x="379" y="767" on="1"/>
        <pt x="379" y="767" on="0"/>
        <pt x="357" y="789" on="0"/>
        <pt x="324" y="821" on="0"/>
        <pt x="285" y="859" on="0"/>
        <pt x="252" y="891" on="0"/>
        <pt x="230" y="912" on="0"/>
        <pt x="230" y="912" on="1"/>
        <pt x="180" y="912" on="1"/>
        <pt x="180" y="912" on="0"/>
        <pt x="158" y="890" on="0"/>
        <pt x="125" y="858" on="0"/>
        <pt x="86" y="820" on="0"/>
        <pt x="53" y="788" on="0"/>
        <pt x="31" y="766" on="0"/>
        <pt x="31" y="767" on="1"/>
        <pt x="55" y="737" on="1"/>
        <pt x="55" y="737" on="0"/>
        <pt x="78" y="750" on="0"/>
        <pt x="111" y="771" on="0"/>
        <pt x="150" y="794" on="0"/>
        <pt x="183" y="815" on="0"/>
        <pt x="205" y="828" on="0"/>
      </contour>
    </TTGlyph>
    <TTGlyph name="Idieresis" xMin="82" yMin="0" xMax="328" yMax="912">
      <contour>
        <pt x="160" y="700" on="1"/>
        <pt x="160" y="0" on="1"/>
        <pt x="251" y="0" on="1"/>
        <pt x="251" y="700" on="1"/>
      </contour>
      <contour>
        <pt x="82" y="858" on="1"/>
        <pt x="82" y="836" on="0"/>
        <pt x="114" y="804" on="0"/>
        <pt x="136" y="804" on="1"/>
        <pt x="158" y="804" on="0"/>
        <pt x="190" y="836" on="0"/>
        <pt x="190" y="858" on="1"/>
        <pt x="190" y="880" on="0"/>
        <pt x="158" y="912" on="0"/>
        <pt x="136" y="912" on="1"/>
        <pt x="114" y="912" on="0"/>
        <pt x="82" y="880" on="0"/>
      </contour>
      <contour>
        <pt x="220" y="858" on="1"/>
        <pt x="220" y="836" on="0"/>
        <pt x="252" y="804" on="0"/>
        <pt x="274" y="804" on="1"/>
        <pt x="296" y="804" on="0"/>
        <pt x="328" y="836" on="0"/>
        <pt x="328" y="858" on="1"/>
        <pt x="328" y="880" on="0"/>
        <pt x="296" y="912" on="0"/>
        <pt x="274" y="912" on="1"/>
        <pt x="252" y="912" on="0"/>
        <pt x="220" y="880" on="0"/>
      </contour>
    </TTGlyph>
    <TTGlyph name="Idotaccent" xMin="151" yMin="0" xMax="259" yMax="912">
      <contour>
        <pt x="160" y="700" on="1"/>
        <pt x="160" y="0" on="1"/>
        <pt x="251" y="0" on="1"/>
        <pt x="251" y="700" on="1"/>
      </contour>
      <contour>
        <pt x="151" y="858" on="1"/>
        <pt x="151" y="836" on="0"/>
        <pt x="183" y="804" on="0"/>
        <pt x="205" y="804" on="1"/>
        <pt x="227" y="804" on="0"/>
        <pt x="259" y="836" on="0"/>
        <pt x="259" y="858" on="1"/>
        <pt x="259" y="880" on="0"/>
        <pt x="227" y="912" on="0"/>
        <pt x="205" y="912" on="1"/>
        <pt x="183" y="912" on="0"/>
        <pt x="151" y="880" on="0"/>
      </contour>
    </TTGlyph>
    <TTGlyph name="Igrave" xMin="108" yMin="0" xMax="302" yMax="912">
      <contour>
        <pt x="160" y="700" on="1"/>
        <pt x="160" y="0" on="1"/>
        <pt x="251" y="0" on="1"/>
        <pt x="251" y="700" on="1"/>
      </contour>
      <contour>
        <pt x="219" y="912" on="1"/>
        <pt x="108" y="912" on="1"/>
        <pt x="263" y="785" on="1"/>
        <pt x="302" y="785" on="1"/>
      </contour>
    </TTGlyph>
    <TTGlyph name="Imacron" xMin="49" yMin="0" xMax="362" yMax="823">
      <contour>
        <pt x="160" y="700" on="1"/>
        <pt x="160" y="0" on="1"/>
        <pt x="251" y="0" on="1"/>
        <pt x="251" y="700" on="1"/>
      </contour>
      <contour>
        <pt x="49" y="783" on="1"/>
        <pt x="362" y="783" on="1"/>
        <pt x="362" y="823" on="1"/>
        <pt x="49" y="823" on="1"/>
      </contour>
    </TTGlyph>
    <TTGlyph name="Iogonek" xMin="85" yMin="-190" xMax="251" yMax="700">
      <contour>
        <pt x="203" y="0" on="1"/>
        <pt x="157" y="-33" on="1"/>
        <pt x="130" y="-53" on="0"/>
        <pt x="85" y="-101" on="0"/>
        <pt x="85" y="-130" on="1"/>
        <pt x="85" y="-164" on="0"/>
        <pt x="132" y="-190" on="0"/>
        <pt x="159" y="-190" on="1"/>
        <pt x="182" y="-190" on="0"/>
        <pt x="227" y="-174" on="0"/>
        <pt x="243" y="-162" on="1"/>
        <pt x="232" y="-135" on="1"/>
        <pt x="222" y="-140" on="0"/>
        <pt x="192" y="-152" on="0"/>
        <pt x="178" y="-152" on="1"/>
        <pt x="157" y="-152" on="0"/>
        <pt x="146" y="-126" on="0"/>
        <pt x="146" y="-120" on="1"/>
        <pt x="146" y="-103" on="0"/>
        <pt x="164" y="-71" on="0"/>
        <pt x="194" y="-40" on="0"/>
        <pt x="232" y="-12" on="0"/>
        <pt x="251" y="0" on="1"/>
        <pt x="251" y="700" on="1"/>
        <pt x="160" y="700" on="1"/>
        <pt x="160" y="0" on="1"/>
      </contour>
    </TTGlyph>
    <TTGlyph name="Itilde" xMin="19" yMin="0" xMax="391" yMax="900">
      <contour>
        <pt x="160" y="700" on="1"/>
        <pt x="160" y="0" on="1"/>
        <pt x="251" y="0" on="1"/>
        <pt x="251" y="700" on="1"/>
      </contour>
      <contour>
        <pt x="46" y="789" on="1"/>
        <pt x="57" y="808" on="0"/>
        <pt x="92" y="833" on="0"/>
        <pt x="109" y="833" on="1"/>
        <pt x="122" y="833" on="0"/>
        <pt x="147" y="825" on="0"/>
        <pt x="158" y="820" on="1"/>
        <pt x="194" y="806" on="0"/>
        <pt x="254" y="784" on="0"/>
        <pt x="280" y="784" on="1"/>
        <pt x="315" y="784" on="0"/>
        <pt x="374" y="831" on="0"/>
        <pt x="391" y="884" on="1"/>
        <pt x="361" y="898" on="1"/>
        <pt x="350" y="872" on="0"/>
        <pt x="316" y="853" on="0"/>
        <pt x="299" y="853" on="1"/>
        <pt x="287" y="853" on="0"/>
        <pt x="264" y="859" on="0"/>
        <pt x="255" y="861" on="1"/>
        <pt x="212" y="875" on="0"/>
        <pt x="151" y="900" on="0"/>
        <pt x="128" y="900" on="1"/>
        <pt x="90" y="900" on="0"/>
        <pt x="33" y="845" on="0"/>
        <pt x="19" y="804" on="1"/>
      </contour>
    </TTGlyph>
    <TTGlyph name="J" xMin="10" yMin="-12" xMax="402" yMax="700">
      <contour>
        <pt x="311" y="700" on="1"/>
        <pt x="311" y="195" on="1"/>
        <pt x="311" y="171" on="0"/>
        <pt x="308" y="114" on="0"/>
        <pt x="288" y="65" on="0"/>
        <pt x="247" y="32" on="0"/>
        <pt x="209" y="32" on="1"/>
        <pt x="176" y="32" on="0"/>
        <pt x="133" y="56" on="0"/>
        <pt x="108" y="92" on="0"/>
        <pt x="97" y="133" on="0"/>
        <pt x="97" y="149" on="1"/>
        <pt x="10" y="149" on="1"/>
        <pt x="12" y="72" on="0"/>
        <pt x="108" y="-12" on="0"/>
        <pt x="204" y="-12" on="1"/>
        <pt x="273" y="-12" on="0"/>
        <pt x="353" y="29" on="0"/>
        <pt x="392" y="92" on="0"/>
        <pt x="402" y="166" on="0"/>
        <pt x="402" y="198" on="1"/>
        <pt x="402" y="700" on="1"/>
      </contour>
    </TTGlyph>
    <TTGlyph name="Jcircumflex" xMin="10" yMin="-12" xMax="521" yMax="912">
      <contour>
        <pt x="311" y="700" on="1"/>
        <pt x="311" y="195" on="1"/>
        <pt x="311" y="171" on="0"/>
        <pt x="308" y="114" on="0"/>
        <pt x="288" y="65" on="0"/>
        <pt x="247" y="32" on="0"/>
        <pt x="209" y="32" on="1"/>
        <pt x="176" y="32" on="0"/>
        <pt x="133" y="56" on="0"/>
        <pt x="108" y="92" on="0"/>
        <pt x="97" y="133" on="0"/>
        <pt x="97" y="149" on="1"/>
        <pt x="10" y="149" on="1"/>
        <pt x="12" y="72" on="0"/>
        <pt x="108" y="-12" on="0"/>
        <pt x="204" y="-12" on="1"/>
        <pt x="273" y="-12" on="0"/>
        <pt x="353" y="29" on="0"/>
        <pt x="392" y="92" on="0"/>
        <pt x="402" y="166" on="0"/>
        <pt x="402" y="198" on="1"/>
        <pt x="402" y="700" on="1"/>
      </contour>
      <contour>
        <pt x="347" y="828" on="1"/>
        <pt x="347" y="828" on="0"/>
        <pt x="369" y="815" on="0"/>
        <pt x="402" y="795" on="0"/>
        <pt x="441" y="771" on="0"/>
        <pt x="474" y="750" on="0"/>
        <pt x="496" y="736" on="0"/>
        <pt x="496" y="736" on="1"/>
        <pt x="521" y="767" on="1"/>
        <pt x="521" y="767" on="0"/>
        <pt x="499" y="789" on="0"/>
        <pt x="466" y="821" on="0"/>
        <pt x="427" y="859" on="0"/>
        <pt x="394" y="891" on="0"/>
        <pt x="372" y="912" on="0"/>
        <pt x="372" y="912" on="1"/>
        <pt x="322" y="912" on="1"/>
        <pt x="322" y="912" on="0"/>
        <pt x="300" y="890" on="0"/>
        <pt x="267" y="858" on="0"/>
        <pt x="228" y="820" on="0"/>
        <pt x="195" y="788" on="0"/>
        <pt x="173" y="766" on="0"/>
        <pt x="173" y="767" on="1"/>
        <pt x="197" y="737" on="1"/>
        <pt x="197" y="737" on="0"/>
        <pt x="220" y="750" on="0"/>
        <pt x="253" y="771" on="0"/>
        <pt x="292" y="794" on="0"/>
        <pt x="325" y="815" on="0"/>
        <pt x="347" y="828" on="0"/>
      </contour>
    </TTGlyph>
    <TTGlyph name="K" xMin="120" yMin="0" xMax="694" yMax="700">
      <contour>
        <pt x="120" y="0" on="1"/>
        <pt x="211" y="0" on="1"/>
        <pt x="211" y="246" on="1"/>
        <pt x="324" y="367" on="1"/>
        <pt x="590" y="0" on="1"/>
        <pt x="694" y="0" on="1"/>
        <pt x="382" y="429" on="1"/>
        <pt x="636" y="700" on="1"/>
        <pt x="586" y="700" on="1"/>
        <pt x="211" y="306" on="1"/>
        <pt x="211" y="700" on="1"/>
        <pt x="120" y="700" on="1"/>
      </contour>
    </TTGlyph>
    <TTGlyph name="L" xMin="120" yMin="0" xMax="572" yMax="700">
      <contour>
        <pt x="120" y="0" on="1"/>
        <pt x="120" y="700" on="1"/>
        <pt x="211" y="700" on="1"/>
        <pt x="211" y="55" on="1"/>
        <pt x="572" y="55" on="1"/>
        <pt x="572" y="0" on="1"/>
      </contour>
    </TTGlyph>
    <TTGlyph name="Lacute" xMin="120" yMin="0" xMax="572" yMax="912">
      <contour>
        <pt x="120" y="0" on="1"/>
        <pt x="120" y="700" on="1"/>
        <pt x="211" y="700" on="1"/>
        <pt x="211" y="55" on="1"/>
        <pt x="572" y="55" on="1"/>
        <pt x="572" y="0" on="1"/>
      </contour>
      <contour>
        <pt x="207" y="912" on="1"/>
        <pt x="318" y="912" on="1"/>
        <pt x="163" y="785" on="1"/>
        <pt x="124" y="785" on="1"/>
      </contour>
    </TTGlyph>
    <TTGlyph name="Lcaron" xMin="120" yMin="0" xMax="572" yMax="701">
      <contour>
        <pt x="120" y="0" on="1"/>
        <pt x="120" y="700" on="1"/>
        <pt x="211" y="700" on="1"/>
        <pt x="211" y="55" on="1"/>
        <pt x="572" y="55" on="1"/>
        <pt x="572" y="0" on="1"/>
      </contour>
      <contour>
        <pt x="384" y="701" on="1"/>
        <pt x="289" y="701" on="1"/>
        <pt x="289" y="443" on="1"/>
        <pt x="325" y="443" on="1"/>
      </contour>
    </TTGlyph>
    <TTGlyph name="Ldot" xMin="120" yMin="0" xMax="572" yMax="700">
      <contour>
        <pt x="120" y="0" on="1"/>
        <pt x="120" y="700" on="1"/>
        <pt x="211" y="700" on="1"/>
        <pt x="211" y="55" on="1"/>
        <pt x="572" y="55" on="1"/>
        <pt x="572" y="0" on="1"/>
      </contour>
      <contour>
        <pt x="247" y="570" on="1"/>
        <pt x="247" y="548" on="0"/>
        <pt x="279" y="516" on="0"/>
        <pt x="301" y="516" on="1"/>
        <pt x="323" y="516" on="0"/>
        <pt x="355" y="548" on="0"/>
        <pt x="355" y="570" on="1"/>
        <pt x="355" y="592" on="0"/>
        <pt x="323" y="624" on="0"/>
        <pt x="301" y="624" on="1"/>
        <pt x="279" y="624" on="0"/>
        <pt x="247" y="592" on="0"/>
      </contour>
    </TTGlyph>
    <TTGlyph name="Lslash" xMin="26" yMin="0" xMax="572" yMax="700">
      <contour>
        <pt x="120" y="0" on="1"/>
        <pt x="120" y="273" on="1"/>
        <pt x="46" y="223" on="1"/>
        <pt x="26" y="252" on="1"/>
        <pt x="120" y="316" on="1"/>
        <pt x="120" y="700" on="1"/>
        <pt x="211" y="700" on="1"/>
        <pt x="211" y="378" on="1"/>
        <pt x="286" y="430" on="1"/>
        <pt x="307" y="400" on="1"/>
        <pt x="211" y="335" on="1"/>
        <pt x="211" y="55" on="1"/>
        <pt x="572" y="55" on="1"/>
        <pt x="572" y="0" on="1"/>
      </contour>
    </TTGlyph>
    <TTGlyph name="M" xMin="120" yMin="-12" xMax="906" yMax="700">
      <contour>
        <pt x="188" y="700" on="1"/>
        <pt x="120" y="700" on="1"/>
        <pt x="120" y="0" on="1"/>
        <pt x="164" y="0" on="1"/>
        <pt x="164" y="571" on="1"/>
        <pt x="168" y="571" on="1"/>
        <pt x="477" y="-12" on="1"/>
        <pt x="495" y="-12" on="1"/>
        <pt x="811" y="567" on="1"/>
        <pt x="815" y="567" on="1"/>
        <pt x="815" y="0" on="1"/>
        <pt x="906" y="0" on="1"/>
        <pt x="906" y="700" on="1"/>
        <pt x="837" y="700" on="1"/>
        <pt x="513" y="99" on="1"/>
        <pt x="509" y="99" on="1"/>
      </contour>
    </TTGlyph>
    <TTGlyph name="N" xMin="120" yMin="-12" xMax="730" yMax="712">
      <contour>
        <pt x="684" y="700" on="1"/>
        <pt x="684" y="165" on="1"/>
        <pt x="680" y="165" on="1"/>
        <pt x="125" y="712" on="1"/>
        <pt x="120" y="712" on="1"/>
        <pt x="120" y="0" on="1"/>
        <pt x="166" y="0" on="1"/>
        <pt x="166" y="535" on="1"/>
        <pt x="170" y="535" on="1"/>
        <pt x="725" y="-12" on="1"/>
        <pt x="730" y="-12" on="1"/>
        <pt x="730" y="700" on="1"/>
      </contour>
    </TTGlyph>
    <TTGlyph name="Nacute" xMin="120" yMin="-12" xMax="730" yMax="912">
      <contour>
        <pt x="684" y="700" on="1"/>
        <pt x="684" y="165" on="1"/>
        <pt x="680" y="165" on="1"/>
        <pt x="125" y="712" on="1"/>
        <pt x="120" y="712" on="1"/>
        <pt x="120" y="0" on="1"/>
        <pt x="166" y="0" on="1"/>
        <pt x="166" y="535" on="1"/>
        <pt x="170" y="535" on="1"/>
        <pt x="725" y="-12" on="1"/>
        <pt x="730" y="-12" on="1"/>
        <pt x="730" y="700" on="1"/>
      </contour>
      <contour>
        <pt x="411" y="912" on="1"/>
        <pt x="522" y="912" on="1"/>
        <pt x="367" y="785" on="1"/>
        <pt x="328" y="785" on="1"/>
      </contour>
    </TTGlyph>
    <TTGlyph name="Ncaron" xMin="120" yMin="-12" xMax="730" yMax="913">
      <contour>
        <pt x="684" y="700" on="1"/>
        <pt x="684" y="165" on="1"/>
        <pt x="680" y="165" on="1"/>
        <pt x="125" y="712" on="1"/>
        <pt x="120" y="712" on="1"/>
        <pt x="120" y="0" on="1"/>
        <pt x="166" y="0" on="1"/>
        <pt x="166" y="535" on="1"/>
        <pt x="170" y="535" on="1"/>
        <pt x="725" y="-12" on="1"/>
        <pt x="730" y="-12" on="1"/>
        <pt x="730" y="700" on="1"/>
      </contour>
      <contour>
        <pt x="424" y="821" on="1"/>
        <pt x="424" y="820" on="0"/>
        <pt x="446" y="834" on="0"/>
        <pt x="479" y="854" on="0"/>
        <pt x="518" y="878" on="0"/>
        <pt x="551" y="899" on="0"/>
        <pt x="573" y="913" on="0"/>
        <pt x="573" y="913" on="1"/>
        <pt x="598" y="882" on="1"/>
        <pt x="598" y="882" on="0"/>
        <pt x="576" y="860" on="0"/>
        <pt x="543" y="828" on="0"/>
        <pt x="504" y="790" on="0"/>
        <pt x="471" y="758" on="0"/>
        <pt x="449" y="737" on="0"/>
        <pt x="449" y="737" on="1"/>
        <pt x="399" y="737" on="1"/>
        <pt x="399" y="737" on="0"/>
        <pt x="377" y="759" on="0"/>
        <pt x="344" y="791" on="0"/>
        <pt x="305" y="829" on="0"/>
        <pt x="272" y="861" on="0"/>
        <pt x="250" y="882" on="0"/>
        <pt x="250" y="882" on="1"/>
        <pt x="274" y="912" on="1"/>
        <pt x="274" y="912" on="0"/>
        <pt x="297" y="899" on="0"/>
        <pt x="330" y="878" on="0"/>
        <pt x="369" y="855" on="0"/>
        <pt x="402" y="834" on="0"/>
        <pt x="424" y="821" on="0"/>
      </contour>
    </TTGlyph>
    <TTGlyph name="Ntilde" xMin="120" yMin="-12" xMax="730" yMax="900">
      <contour>
        <pt x="684" y="700" on="1"/>
        <pt x="684" y="165" on="1"/>
        <pt x="680" y="165" on="1"/>
        <pt x="125" y="712" on="1"/>
        <pt x="120" y="712" on="1"/>
        <pt x="120" y="0" on="1"/>
        <pt x="166" y="0" on="1"/>
        <pt x="166" y="535" on="1"/>
        <pt x="170" y="535" on="1"/>
        <pt x="725" y="-12" on="1"/>
        <pt x="730" y="-12" on="1"/>
        <pt x="730" y="700" on="1"/>
      </contour>
      <contour>
        <pt x="266" y="789" on="1"/>
        <pt x="277" y="808" on="0"/>
        <pt x="312" y="833" on="0"/>
        <pt x="329" y="833" on="1"/>
        <pt x="342" y="833" on="0"/>
        <pt x="367" y="825" on="0"/>
        <pt x="378" y="820" on="1"/>
        <pt x="414" y="806" on="0"/>
        <pt x="474" y="784" on="0"/>
        <pt x="500" y="784" on="1"/>
        <pt x="535" y="784" on="0"/>
        <pt x="594" y="831" on="0"/>
        <pt x="611" y="884" on="1"/>
        <pt x="581" y="898" on="1"/>
        <pt x="570" y="872" on="0"/>
        <pt x="536" y="853" on="0"/>
        <pt x="519" y="853" on="1"/>
        <pt x="507" y="853" on="0"/>
        <pt x="484" y="859" on="0"/>
        <pt x="475" y="861" on="1"/>
        <pt x="432" y="875" on="0"/>
        <pt x="371" y="900" on="0"/>
        <pt x="348" y="900" on="1"/>
        <pt x="310" y="900" on="0"/>
        <pt x="253" y="845" on="0"/>
        <pt x="239" y="804" on="1"/>
      </contour>
    </TTGlyph>
    <TTGlyph name="O" xMin="50" yMin="-12" xMax="815" yMax="712">
      <contour>
        <pt x="50" y="350" on="1"/>
        <pt x="50" y="294" on="0"/>
        <pt x="93" y="167" on="0"/>
        <pt x="185" y="59" on="0"/>
        <pt x="327" y="-12" on="0"/>
        <pt x="426" y="-12" on="1"/>
        <pt x="493" y="-12" on="0"/>
        <pt x="602" y="21" on="0"/>
        <pt x="689" y="77" on="0"/>
        <pt x="753" y="150" on="0"/>
        <pt x="794" y="231" on="0"/>
        <pt x="815" y="313" on="0"/>
        <pt x="815" y="350" on="1"/>
        <pt x="815" y="406" on="0"/>
        <pt x="769" y="533" on="0"/>
        <pt x="673" y="641" on="0"/>
        <pt x="526" y="712" on="0"/>
        <pt x="426" y="712" on="1"/>
        <pt x="327" y="712" on="0"/>
        <pt x="185" y="642" on="0"/>
        <pt x="93" y="535" on="0"/>
        <pt x="50" y="407" on="0"/>
      </contour>
      <contour>
        <pt x="148" y="350" on="1"/>
        <pt x="148" y="420" on="0"/>
        <pt x="191" y="537" on="0"/>
        <pt x="266" y="621" on="0"/>
        <pt x="368" y="668" on="0"/>
        <pt x="428" y="668" on="1"/>
        <pt x="487" y="668" on="0"/>
        <pt x="592" y="621" on="0"/>
        <pt x="671" y="537" on="0"/>
        <pt x="717" y="420" on="0"/>
        <pt x="717" y="350" on="1"/>
        <pt x="717" y="280" on="0"/>
        <pt x="671" y="163" on="0"/>
        <pt x="592" y="79" on="0"/>
        <pt x="487" y="32" on="0"/>
        <pt x="428" y="32" on="1"/>
        <pt x="368" y="32" on="0"/>
        <pt x="266" y="79" on="0"/>
        <pt x="191" y="163" on="0"/>
        <pt x="148" y="280" on="0"/>
      </contour>
    </TTGlyph>
    <TTGlyph name="OE" xMin="59" yMin="-12" xMax="1048" yMax="711">
      <contour>
        <pt x="588" y="71" on="1"/>
        <pt x="567" y="58" on="0"/>
        <pt x="498" y="32" on="0"/>
        <pt x="444" y="32" on="1"/>
        <pt x="389" y="32" on="0"/>
        <pt x="297" y="69" on="0"/>
        <pt x="226" y="131" on="0"/>
        <pt x="177" y="213" on="0"/>
        <pt x="167" y="258" on="1"/>
        <pt x="162" y="281" on="0"/>
        <pt x="159" y="326" on="0"/>
        <pt x="159" y="350" on="1"/>
        <pt x="159" y="375" on="0"/>
        <pt x="162" y="419" on="0"/>
        <pt x="167" y="442" on="1"/>
        <pt x="176" y="487" on="0"/>
        <pt x="224" y="568" on="0"/>
        <pt x="296" y="630" on="0"/>
        <pt x="389" y="667" on="0"/>
        <pt x="444" y="667" on="1"/>
        <pt x="498" y="667" on="0"/>
        <pt x="567" y="639" on="0"/>
        <pt x="588" y="627" on="1"/>
      </contour>
      <contour>
        <pt x="678" y="644" on="1"/>
        <pt x="1030" y="644" on="1"/>
        <pt x="1030" y="700" on="1"/>
        <pt x="548" y="700" on="1"/>
        <pt x="520" y="706" on="0"/>
        <pt x="470" y="711" on="0"/>
        <pt x="442" y="711" on="1"/>
        <pt x="392" y="711" on="0"/>
        <pt x="285" y="686" on="0"/>
        <pt x="187" y="629" on="0"/>
        <pt x="106" y="537" on="0"/>
        <pt x="81" y="469" on="1"/>
        <pt x="70" y="440" on="0"/>
        <pt x="59" y="381" on="0"/>
        <pt x="59" y="350" on="1"/>
        <pt x="59" y="293" on="0"/>
        <pt x="104" y="166" on="0"/>
        <pt x="197" y="59" on="0"/>
        <pt x="342" y="-12" on="0"/>
        <pt x="442" y="-12" on="1"/>
        <pt x="467" y="-12" on="0"/>
        <pt x="518" y="-5" on="0"/>
        <pt x="544" y="0" on="1"/>
        <pt x="1048" y="0" on="1"/>
        <pt x="1048" y="55" on="1"/>
        <pt x="678" y="55" on="1"/>
        <pt x="678" y="350" on="1"/>
        <pt x="978" y="350" on="1"/>
        <pt x="978" y="394" on="1"/>
        <pt x="678" y="394" on="1"/>
      </contour>
    </TTGlyph>
    <TTGlyph name="Oacute" xMin="50" yMin="-12" xMax="815" yMax="912">
      <contour>
        <pt x="50" y="350" on="1"/>
        <pt x="50" y="294" on="0"/>
        <pt x="93" y="167" on="0"/>
        <pt x="185" y="59" on="0"/>
        <pt x="327" y="-12" on="0"/>
        <pt x="426" y="-12" on="1"/>
        <pt x="493" y="-12" on="0"/>
        <pt x="602" y="21" on="0"/>
        <pt x="689" y="77" on="0"/>
        <pt x="753" y="150" on="0"/>
        <pt x="794" y="231" on="0"/>
        <pt x="815" y="313" on="0"/>
        <pt x="815" y="350" on="1"/>
        <pt x="815" y="406" on="0"/>
        <pt x="769" y="533" on="0"/>
        <pt x="673" y="641" on="0"/>
        <pt x="526" y="712" on="0"/>
        <pt x="426" y="712" on="1"/>
        <pt x="327" y="712" on="0"/>
        <pt x="185" y="642" on="0"/>
        <pt x="93" y="535" on="0"/>
        <pt x="50" y="407" on="0"/>
      </contour>
      <contour>
        <pt x="148" y="350" on="1"/>
        <pt x="148" y="420" on="0"/>
        <pt x="191" y="537" on="0"/>
        <pt x="266" y="621" on="0"/>
        <pt x="368" y="668" on="0"/>
        <pt x="428" y="668" on="1"/>
        <pt x="487" y="668" on="0"/>
        <pt x="592" y="621" on="0"/>
        <pt x="671" y="537" on="0"/>
        <pt x="717" y="420" on="0"/>
        <pt x="717" y="350" on="1"/>
        <pt x="717" y="280" on="0"/>
        <pt x="671" y="163" on="0"/>
        <pt x="592" y="79" on="0"/>
        <pt x="487" y="32" on="0"/>
        <pt x="428" y="32" on="1"/>
        <pt x="368" y="32" on="0"/>
        <pt x="266" y="79" on="0"/>
        <pt x="191" y="163" on="0"/>
        <pt x="148" y="280" on="0"/>
      </contour>
      <contour>
        <pt x="418" y="912" on="1"/>
        <pt x="529" y="912" on="1"/>
        <pt x="374" y="785" on="1"/>
        <pt x="335" y="785" on="1"/>
      </contour>
    </TTGlyph>
    <TTGlyph name="Obreve" xMin="50" yMin="-12" xMax="815" yMax="912">
      <contour>
        <pt x="50" y="350" on="1"/>
        <pt x="50" y="294" on="0"/>
        <pt x="93" y="167" on="0"/>
        <pt x="185" y="59" on="0"/>
        <pt x="327" y="-12" on="0"/>
        <pt x="426" y="-12" on="1"/>
        <pt x="493" y="-12" on="0"/>
        <pt x="602" y="21" on="0"/>
        <pt x="689" y="77" on="0"/>
        <pt x="753" y="150" on="0"/>
        <pt x="794" y="231" on="0"/>
        <pt x="815" y="313" on="0"/>
        <pt x="815" y="350" on="1"/>
        <pt x="815" y="406" on="0"/>
        <pt x="769" y="533" on="0"/>
        <pt x="673" y="641" on="0"/>
        <pt x="526" y="712" on="0"/>
        <pt x="426" y="712" on="1"/>
        <pt x="327" y="712" on="0"/>
        <pt x="185" y="642" on="0"/>
        <pt x="93" y="535" on="0"/>
        <pt x="50" y="407" on="0"/>
      </contour>
      <contour>
        <pt x="148" y="350" on="1"/>
        <pt x="148" y="420" on="0"/>
        <pt x="191" y="537" on="0"/>
        <pt x="266" y="621" on="0"/>
        <pt x="368" y="668" on="0"/>
        <pt x="428" y="668" on="1"/>
        <pt x="487" y="668" on="0"/>
        <pt x="592" y="621" on="0"/>
        <pt x="671" y="537" on="0"/>
        <pt x="717" y="420" on="0"/>
        <pt x="717" y="350" on="1"/>
        <pt x="717" y="280" on="0"/>
        <pt x="671" y="163" on="0"/>
        <pt x="592" y="79" on="0"/>
        <pt x="487" y="32" on="0"/>
        <pt x="428" y="32" on="1"/>
        <pt x="368" y="32" on="0"/>
        <pt x="266" y="79" on="0"/>
        <pt x="191" y="163" on="0"/>
        <pt x="148" y="280" on="0"/>
      </contour>
      <contour>
        <pt x="285" y="912" on="1"/>
        <pt x="285" y="884" on="0"/>
        <pt x="307" y="834" on="0"/>
        <pt x="347" y="797" on="0"/>
        <pt x="400" y="776" on="0"/>
        <pt x="432" y="776" on="1"/>
        <pt x="463" y="776" on="0"/>
        <pt x="517" y="797" on="0"/>
        <pt x="557" y="834" on="0"/>
        <pt x="579" y="884" on="0"/>
        <pt x="579" y="912" on="1"/>
        <pt x="537" y="912" on="1"/>
        <pt x="535" y="867" on="0"/>
        <pt x="474" y="812" on="0"/>
        <pt x="432" y="812" on="1"/>
        <pt x="391" y="812" on="0"/>
        <pt x="330" y="867" on="0"/>
        <pt x="327" y="912" on="1"/>
      </contour>
    </TTGlyph>
    <TTGlyph name="Ocircumflex" xMin="50" yMin="-12" xMax="815" yMax="912">
      <contour>
        <pt x="50" y="350" on="1"/>
        <pt x="50" y="294" on="0"/>
        <pt x="93" y="167" on="0"/>
        <pt x="185" y="59" on="0"/>
        <pt x="327" y="-12" on="0"/>
        <pt x="426" y="-12" on="1"/>
        <pt x="493" y="-12" on="0"/>
        <pt x="602" y="21" on="0"/>
        <pt x="689" y="77" on="0"/>
        <pt x="753" y="150" on="0"/>
        <pt x="794" y="231" on="0"/>
        <pt x="815" y="313" on="0"/>
        <pt x="815" y="350" on="1"/>
        <pt x="815" y="406" on="0"/>
        <pt x="769" y="533" on="0"/>
        <pt x="673" y="641" on="0"/>
        <pt x="526" y="712" on="0"/>
        <pt x="426" y="712" on="1"/>
        <pt x="327" y="712" on="0"/>
        <pt x="185" y="642" on="0"/>
        <pt x="93" y="535" on="0"/>
        <pt x="50" y="407" on="0"/>
      </contour>
      <contour>
        <pt x="148" y="350" on="1"/>
        <pt x="148" y="420" on="0"/>
        <pt x="191" y="537" on="0"/>
        <pt x="266" y="621" on="0"/>
        <pt x="368" y="668" on="0"/>
        <pt x="428" y="668" on="1"/>
        <pt x="487" y="668" on="0"/>
        <pt x="592" y="621" on="0"/>
        <pt x="671" y="537" on="0"/>
        <pt x="717" y="420" on="0"/>
        <pt x="717" y="350" on="1"/>
        <pt x="717" y="280" on="0"/>
        <pt x="671" y="163" on="0"/>
        <pt x="592" y="79" on="0"/>
        <pt x="487" y="32" on="0"/>
        <pt x="428" y="32" on="1"/>
        <pt x="368" y="32" on="0"/>
        <pt x="266" y="79" on="0"/>
        <pt x="191" y="163" on="0"/>
        <pt x="148" y="280" on="0"/>
      </contour>
      <contour>
        <pt x="432" y="828" on="1"/>
        <pt x="432" y="828" on="0"/>
        <pt x="454" y="815" on="0"/>
        <pt x="487" y="795" on="0"/>
        <pt x="526" y="771" on="0"/>
        <pt x="559" y="750" on="0"/>
        <pt x="581" y="736" on="0"/>
        <pt x="581" y="736" on="1"/>
        <pt x="606" y="767" on="1"/>
        <pt x="606" y="767" on="0"/>
        <pt x="584" y="789" on="0"/>
        <pt x="551" y="821" on="0"/>
        <pt x="512" y="859" on="0"/>
        <pt x="479" y="891" on="0"/>
        <pt x="457" y="912" on="0"/>
        <pt x="457" y="912" on="1"/>
        <pt x="407" y="912" on="1"/>
        <pt x="407" y="912" on="0"/>
        <pt x="385" y="890" on="0"/>
        <pt x="352" y="858" on="0"/>
        <pt x="313" y="820" on="0"/>
        <pt x="280" y="788" on="0"/>
        <pt x="258" y="766" on="0"/>
        <pt x="258" y="767" on="1"/>
        <pt x="282" y="737" on="1"/>
        <pt x="282" y="737" on="0"/>
        <pt x="305" y="750" on="0"/>
        <pt x="338" y="771" on="0"/>
        <pt x="377" y="794" on="0"/>
        <pt x="410" y="815" on="0"/>
        <pt x="432" y="828" on="0"/>
      </contour>
    </TTGlyph>
    <TTGlyph name="Odieresis" xMin="50" yMin="-12" xMax="815" yMax="912">
      <contour>
        <pt x="50" y="350" on="1"/>
        <pt x="50" y="294" on="0"/>
        <pt x="93" y="167" on="0"/>
        <pt x="185" y="59" on="0"/>
        <pt x="327" y="-12" on="0"/>
        <pt x="426" y="-12" on="1"/>
        <pt x="493" y="-12" on="0"/>
        <pt x="602" y="21" on="0"/>
        <pt x="689" y="77" on="0"/>
        <pt x="753" y="150" on="0"/>
        <pt x="794" y="231" on="0"/>
        <pt x="815" y="313" on="0"/>
        <pt x="815" y="350" on="1"/>
        <pt x="815" y="406" on="0"/>
        <pt x="769" y="533" on="0"/>
        <pt x="673" y="641" on="0"/>
        <pt x="526" y="712" on="0"/>
        <pt x="426" y="712" on="1"/>
        <pt x="327" y="712" on="0"/>
        <pt x="185" y="642" on="0"/>
        <pt x="93" y="535" on="0"/>
        <pt x="50" y="407" on="0"/>
      </contour>
      <contour>
        <pt x="148" y="350" on="1"/>
        <pt x="148" y="420" on="0"/>
        <pt x="191" y="537" on="0"/>
        <pt x="266" y="621" on="0"/>
        <pt x="368" y="668" on="0"/>
        <pt x="428" y="668" on="1"/>
        <pt x="487" y="668" on="0"/>
        <pt x="592" y="621" on="0"/>
        <pt x="671" y="537" on="0"/>
        <pt x="717" y="420" on="0"/>
        <pt x="717" y="350" on="1"/>
        <pt x="717" y="280" on="0"/>
        <pt x="671" y="163" on="0"/>
        <pt x="592" y="79" on="0"/>
        <pt x="487" y="32" on="0"/>
        <pt x="428" y="32" on="1"/>
        <pt x="368" y="32" on="0"/>
        <pt x="266" y="79" on="0"/>
        <pt x="191" y="163" on="0"/>
        <pt x="148" y="280" on="0"/>
      </contour>
      <contour>
        <pt x="309" y="858" on="1"/>
        <pt x="309" y="836" on="0"/>
        <pt x="341" y="804" on="0"/>
        <pt x="363" y="804" on="1"/>
        <pt x="385" y="804" on="0"/>
        <pt x="417" y="836" on="0"/>
        <pt x="417" y="858" on="1"/>
        <pt x="417" y="880" on="0"/>
        <pt x="385" y="912" on="0"/>
        <pt x="363" y="912" on="1"/>
        <pt x="341" y="912" on="0"/>
        <pt x="309" y="880" on="0"/>
      </contour>
      <contour>
        <pt x="447" y="858" on="1"/>
        <pt x="447" y="836" on="0"/>
        <pt x="479" y="804" on="0"/>
        <pt x="501" y="804" on="1"/>
        <pt x="523" y="804" on="0"/>
        <pt x="555" y="836" on="0"/>
        <pt x="555" y="858" on="1"/>
        <pt x="555" y="880" on="0"/>
        <pt x="523" y="912" on="0"/>
        <pt x="501" y="912" on="1"/>
        <pt x="479" y="912" on="0"/>
        <pt x="447" y="880" on="0"/>
      </contour>
    </TTGlyph>
    <TTGlyph name="Ograve" xMin="50" yMin="-12" xMax="815" yMax="912">
      <contour>
        <pt x="50" y="350" on="1"/>
        <pt x="50" y="294" on="0"/>
        <pt x="93" y="167" on="0"/>
        <pt x="185" y="59" on="0"/>
        <pt x="327" y="-12" on="0"/>
        <pt x="426" y="-12" on="1"/>
        <pt x="493" y="-12" on="0"/>
        <pt x="602" y="21" on="0"/>
        <pt x="689" y="77" on="0"/>
        <pt x="753" y="150" on="0"/>
        <pt x="794" y="231" on="0"/>
        <pt x="815" y="313" on="0"/>
        <pt x="815" y="350" on="1"/>
        <pt x="815" y="406" on="0"/>
        <pt x="769" y="533" on="0"/>
        <pt x="673" y="641" on="0"/>
        <pt x="526" y="712" on="0"/>
        <pt x="426" y="712" on="1"/>
        <pt x="327" y="712" on="0"/>
        <pt x="185" y="642" on="0"/>
        <pt x="93" y="535" on="0"/>
        <pt x="50" y="407" on="0"/>
      </contour>
      <contour>
        <pt x="148" y="350" on="1"/>
        <pt x="148" y="420" on="0"/>
        <pt x="191" y="537" on="0"/>
        <pt x="266" y="621" on="0"/>
        <pt x="368" y="668" on="0"/>
        <pt x="428" y="668" on="1"/>
        <pt x="487" y="668" on="0"/>
        <pt x="592" y="621" on="0"/>
        <pt x="671" y="537" on="0"/>
        <pt x="717" y="420" on="0"/>
        <pt x="717" y="350" on="1"/>
        <pt x="717" y="280" on="0"/>
        <pt x="671" y="163" on="0"/>
        <pt x="592" y="79" on="0"/>
        <pt x="487" y="32" on="0"/>
        <pt x="428" y="32" on="1"/>
        <pt x="368" y="32" on="0"/>
        <pt x="266" y="79" on="0"/>
        <pt x="191" y="163" on="0"/>
        <pt x="148" y="280" on="0"/>
      </contour>
      <contour>
        <pt x="446" y="912" on="1"/>
        <pt x="335" y="912" on="1"/>
        <pt x="490" y="785" on="1"/>
        <pt x="529" y="785" on="1"/>
      </contour>
    </TTGlyph>
    <TTGlyph name="Ohungarumlaut" xMin="50" yMin="-12" xMax="815" yMax="912">
      <contour>
        <pt x="50" y="350" on="1"/>
        <pt x="50" y="294" on="0"/>
        <pt x="93" y="167" on="0"/>
        <pt x="185" y="59" on="0"/>
        <pt x="327" y="-12" on="0"/>
        <pt x="426" y="-12" on="1"/>
        <pt x="493" y="-12" on="0"/>
        <pt x="602" y="21" on="0"/>
        <pt x="689" y="77" on="0"/>
        <pt x="753" y="150" on="0"/>
        <pt x="794" y="231" on="0"/>
        <pt x="815" y="313" on="0"/>
        <pt x="815" y="350" on="1"/>
        <pt x="815" y="406" on="0"/>
        <pt x="769" y="533" on="0"/>
        <pt x="673" y="641" on="0"/>
        <pt x="526" y="712" on="0"/>
        <pt x="426" y="712" on="1"/>
        <pt x="327" y="712" on="0"/>
        <pt x="185" y="642" on="0"/>
        <pt x="93" y="535" on="0"/>
        <pt x="50" y="407" on="0"/>
      </contour>
      <contour>
        <pt x="148" y="350" on="1"/>
        <pt x="148" y="420" on="0"/>
        <pt x="191" y="537" on="0"/>
        <pt x="266" y="621" on="0"/>
        <pt x="368" y="668" on="0"/>
        <pt x="428" y="668" on="1"/>
        <pt x="487" y="668" on="0"/>
        <pt x="592" y="621" on="0"/>
        <pt x="671" y="537" on="0"/>
        <pt x="717" y="420" on="0"/>
        <pt x="717" y="350" on="1"/>
        <pt x="717" y="280" on="0"/>
        <pt x="671" y="163" on="0"/>
        <pt x="592" y="79" on="0"/>
        <pt x="487" y="32" on="0"/>
        <pt x="428" y="32" on="1"/>
        <pt x="368" y="32" on="0"/>
        <pt x="266" y="79" on="0"/>
        <pt x="191" y="163" on="0"/>
        <pt x="148" y="280" on="0"/>
      </contour>
      <contour>
        <pt x="337" y="912" on="1"/>
        <pt x="448" y="912" on="1"/>
        <pt x="325" y="785" on="1"/>
        <pt x="286" y="785" on="1"/>
      </contour>
      <contour>
        <pt x="467" y="912" on="1"/>
        <pt x="578" y="912" on="1"/>
        <pt x="455" y="785" on="1"/>
        <pt x="416" y="785" on="1"/>
      </contour>
    </TTGlyph>
    <TTGlyph name="Omacron" xMin="50" yMin="-12" xMax="815" yMax="823">
      <contour>
        <pt x="50" y="350" on="1"/>
        <pt x="50" y="294" on="0"/>
        <pt x="93" y="167" on="0"/>
        <pt x="185" y="59" on="0"/>
        <pt x="327" y="-12" on="0"/>
        <pt x="426" y="-12" on="1"/>
        <pt x="493" y="-12" on="0"/>
        <pt x="602" y="21" on="0"/>
        <pt x="689" y="77" on="0"/>
        <pt x="753" y="150" on="0"/>
        <pt x="794" y="231" on="0"/>
        <pt x="815" y="313" on="0"/>
        <pt x="815" y="350" on="1"/>
        <pt x="815" y="406" on="0"/>
        <pt x="769" y="533" on="0"/>
        <pt x="673" y="641" on="0"/>
        <pt x="526" y="712" on="0"/>
        <pt x="426" y="712" on="1"/>
        <pt x="327" y="712" on="0"/>
        <pt x="185" y="642" on="0"/>
        <pt x="93" y="535" on="0"/>
        <pt x="50" y="407" on="0"/>
      </contour>
      <contour>
        <pt x="148" y="350" on="1"/>
        <pt x="148" y="420" on="0"/>
        <pt x="191" y="537" on="0"/>
        <pt x="266" y="621" on="0"/>
        <pt x="368" y="668" on="0"/>
        <pt x="428" y="668" on="1"/>
        <pt x="487" y="668" on="0"/>
        <pt x="592" y="621" on="0"/>
        <pt x="671" y="537" on="0"/>
        <pt x="717" y="420" on="0"/>
        <pt x="717" y="350" on="1"/>
        <pt x="717" y="280" on="0"/>
        <pt x="671" y="163" on="0"/>
        <pt x="592" y="79" on="0"/>
        <pt x="487" y="32" on="0"/>
        <pt x="428" y="32" on="1"/>
        <pt x="368" y="32" on="0"/>
        <pt x="266" y="79" on="0"/>
        <pt x="191" y="163" on="0"/>
        <pt x="148" y="280" on="0"/>
      </contour>
      <contour>
        <pt x="276" y="783" on="1"/>
        <pt x="589" y="783" on="1"/>
        <pt x="589" y="823" on="1"/>
        <pt x="276" y="823" on="1"/>
      </contour>
    </TTGlyph>
    <TTGlyph name="Omega" xMin="80" yMin="0" xMax="814" yMax="711">
      <contour>
        <pt x="795" y="74" on="1"/>
        <pt x="563" y="74" on="1"/>
        <pt x="563" y="111" on="1"/>
        <pt x="595" y="118" on="0"/>
        <pt x="681" y="150" on="0"/>
        <pt x="759" y="214" on="0"/>
        <pt x="814" y="319" on="0"/>
        <pt x="814" y="399" on="1"/>
        <pt x="814" y="474" on="0"/>
        <pt x="759" y="590" on="0"/>
        <pt x="662" y="670" on="0"/>
        <pt x="527" y="711" on="0"/>
        <pt x="447" y="711" on="1"/>
        <pt x="366" y="711" on="0"/>
        <pt x="232" y="670" on="0"/>
        <pt x="134" y="590" on="0"/>
        <pt x="80" y="474" on="0"/>
        <pt x="80" y="399" on="1"/>
        <pt x="80" y="319" on="0"/>
        <pt x="135" y="214" on="0"/>
        <pt x="213" y="150" on="0"/>
        <pt x="299" y="118" on="0"/>
        <pt x="331" y="111" on="1"/>
        <pt x="331" y="74" on="1"/>
        <pt x="97" y="74" on="1"/>
        <pt x="97" y="0" on="1"/>
        <pt x="381" y="0" on="1"/>
        <pt x="381" y="146" on="1"/>
        <pt x="321" y="159" on="0"/>
        <pt x="242" y="216" on="0"/>
        <pt x="197" y="288" on="0"/>
        <pt x="179" y="366" on="0"/>
        <pt x="179" y="399" on="1"/>
        <pt x="179" y="459" on="0"/>
        <pt x="216" y="558" on="0"/>
        <pt x="286" y="628" on="0"/>
        <pt x="385" y="667" on="0"/>
        <pt x="447" y="667" on="1"/>
        <pt x="509" y="667" on="0"/>
        <pt x="608" y="628" on="0"/>
        <pt x="678" y="558" on="0"/>
        <pt x="715" y="459" on="0"/>
        <pt x="715" y="399" on="1"/>
        <pt x="715" y="366" on="0"/>
        <pt x="697" y="288" on="0"/>
        <pt x="652" y="216" on="0"/>
        <pt x="573" y="159" on="0"/>
        <pt x="513" y="146" on="1"/>
        <pt x="513" y="0" on="1"/>
        <pt x="795" y="0" on="1"/>
      </contour>
    </TTGlyph>
    <TTGlyph name="Oslash" xMin="60" yMin="-12" xMax="816" yMax="712">
      <contour>
        <pt x="595" y="712" on="1"/>
        <pt x="577" y="678" on="1"/>
        <pt x="513" y="700" on="0"/>
        <pt x="436" y="700" on="1"/>
        <pt x="337" y="700" on="0"/>
        <pt x="195" y="632" on="0"/>
        <pt x="103" y="527" on="0"/>
        <pt x="60" y="401" on="0"/>
        <pt x="60" y="344" on="1"/>
        <pt x="60" y="305" on="0"/>
        <pt x="81" y="219" on="0"/>
        <pt x="124" y="137" on="0"/>
        <pt x="190" y="64" on="0"/>
        <pt x="236" y="38" on="1"/>
        <pt x="210" y="-12" on="1"/>
        <pt x="279" y="-12" on="1"/>
        <pt x="292" y="12" on="1"/>
        <pt x="324" y="1" on="0"/>
        <pt x="394" y="-12" on="0"/>
        <pt x="436" y="-12" on="1"/>
        <pt x="503" y="-12" on="0"/>
        <pt x="611" y="20" on="0"/>
        <pt x="695" y="75" on="0"/>
        <pt x="757" y="146" on="0"/>
        <pt x="797" y="225" on="0"/>
        <pt x="816" y="307" on="0"/>
        <pt x="816" y="344" on="1"/>
        <pt x="816" y="383" on="0"/>
        <pt x="795" y="470" on="0"/>
        <pt x="750" y="553" on="0"/>
        <pt x="681" y="626" on="0"/>
        <pt x="634" y="652" on="1"/>
        <pt x="666" y="712" on="1"/>
      </contour>
      <contour>
        <pt x="718" y="344" on="1"/>
        <pt x="718" y="274" on="0"/>
        <pt x="675" y="159" on="0"/>
        <pt x="599" y="76" on="0"/>
        <pt x="497" y="31" on="0"/>
        <pt x="438" y="31" on="1"/>
        <pt x="371" y="31" on="0"/>
        <pt x="317" y="58" on="1"/>
        <pt x="605" y="599" on="1"/>
        <pt x="657" y="558" on="0"/>
        <pt x="718" y="428" on="0"/>
      </contour>
      <contour>
        <pt x="158" y="344" on="1"/>
        <pt x="158" y="414" on="0"/>
        <pt x="201" y="529" on="0"/>
        <pt x="276" y="611" on="0"/>
        <pt x="378" y="656" on="0"/>
        <pt x="438" y="656" on="1"/>
        <pt x="497" y="656" on="0"/>
        <pt x="552" y="631" on="1"/>
        <pt x="265" y="92" on="1"/>
        <pt x="215" y="134" on="0"/>
        <pt x="158" y="262" on="0"/>
      </contour>
    </TTGlyph>
    <TTGlyph name="Otilde" xMin="50" yMin="-12" xMax="815" yMax="900">
      <contour>
        <pt x="50" y="350" on="1"/>
        <pt x="50" y="294" on="0"/>
        <pt x="93" y="167" on="0"/>
        <pt x="185" y="59" on="0"/>
        <pt x="327" y="-12" on="0"/>
        <pt x="426" y="-12" on="1"/>
        <pt x="493" y="-12" on="0"/>
        <pt x="602" y="21" on="0"/>
        <pt x="689" y="77" on="0"/>
        <pt x="753" y="150" on="0"/>
        <pt x="794" y="231" on="0"/>
        <pt x="815" y="313" on="0"/>
        <pt x="815" y="350" on="1"/>
        <pt x="815" y="406" on="0"/>
        <pt x="769" y="533" on="0"/>
        <pt x="673" y="641" on="0"/>
        <pt x="526" y="712" on="0"/>
        <pt x="426" y="712" on="1"/>
        <pt x="327" y="712" on="0"/>
        <pt x="185" y="642" on="0"/>
        <pt x="93" y="535" on="0"/>
        <pt x="50" y="407" on="0"/>
      </contour>
      <contour>
        <pt x="148" y="350" on="1"/>
        <pt x="148" y="420" on="0"/>
        <pt x="191" y="537" on="0"/>
        <pt x="266" y="621" on="0"/>
        <pt x="368" y="668" on="0"/>
        <pt x="428" y="668" on="1"/>
        <pt x="487" y="668" on="0"/>
        <pt x="592" y="621" on="0"/>
        <pt x="671" y="537" on="0"/>
        <pt x="717" y="420" on="0"/>
        <pt x="717" y="350" on="1"/>
        <pt x="717" y="280" on="0"/>
        <pt x="671" y="163" on="0"/>
        <pt x="592" y="79" on="0"/>
        <pt x="487" y="32" on="0"/>
        <pt x="428" y="32" on="1"/>
        <pt x="368" y="32" on="0"/>
        <pt x="266" y="79" on="0"/>
        <pt x="191" y="163" on="0"/>
        <pt x="148" y="280" on="0"/>
      </contour>
      <contour>
        <pt x="273" y="789" on="1"/>
        <pt x="284" y="808" on="0"/>
        <pt x="319" y="833" on="0"/>
        <pt x="336" y="833" on="1"/>
        <pt x="349" y="833" on="0"/>
        <pt x="374" y="825" on="0"/>
        <pt x="385" y="820" on="1"/>
        <pt x="421" y="806" on="0"/>
        <pt x="481" y="784" on="0"/>
        <pt x="507" y="784" on="1"/>
        <pt x="542" y="784" on="0"/>
        <pt x="601" y="831" on="0"/>
        <pt x="618" y="884" on="1"/>
        <pt x="588" y="898" on="1"/>
        <pt x="577" y="872" on="0"/>
        <pt x="543" y="853" on="0"/>
        <pt x="526" y="853" on="1"/>
        <pt x="514" y="853" on="0"/>
        <pt x="491" y="859" on="0"/>
        <pt x="482" y="861" on="1"/>
        <pt x="439" y="875" on="0"/>
        <pt x="378" y="900" on="0"/>
        <pt x="355" y="900" on="1"/>
        <pt x="317" y="900" on="0"/>
        <pt x="260" y="845" on="0"/>
        <pt x="246" y="804" on="1"/>
      </contour>
    </TTGlyph>
    <TTGlyph name="P" xMin="120" yMin="0" xMax="583" yMax="700">
      <contour>
        <pt x="211" y="292" on="1"/>
        <pt x="237" y="285" on="0"/>
        <pt x="297" y="276" on="0"/>
        <pt x="333" y="276" on="1"/>
        <pt x="394" y="276" on="0"/>
        <pt x="488" y="310" on="0"/>
        <pt x="551" y="369" on="0"/>
        <pt x="583" y="446" on="0"/>
        <pt x="583" y="490" on="1"/>
        <pt x="583" y="532" on="0"/>
        <pt x="555" y="609" on="0"/>
        <pt x="498" y="666" on="0"/>
        <pt x="412" y="700" on="0"/>
        <pt x="354" y="700" on="1"/>
        <pt x="120" y="700" on="1"/>
        <pt x="120" y="0" on="1"/>
        <pt x="211" y="0" on="1"/>
      </contour>
      <contour>
        <pt x="211" y="656" on="1"/>
        <pt x="316" y="656" on="1"/>
        <pt x="358" y="656" on="0"/>
        <pt x="422" y="626" on="0"/>
        <pt x="464" y="577" on="0"/>
        <pt x="485" y="516" on="0"/>
        <pt x="485" y="486" on="1"/>
        <pt x="485" y="457" on="0"/>
        <pt x="466" y="398" on="0"/>
        <pt x="424" y="350" on="0"/>
        <pt x="360" y="320" on="0"/>
        <pt x="315" y="320" on="1"/>
        <pt x="284" y="320" on="0"/>
        <pt x="232" y="325" on="0"/>
        <pt x="211" y="333" on="1"/>
      </contour>
    </TTGlyph>
    <TTGlyph name="Q" xMin="65" yMin="-88" xMax="839" yMax="712">
      <contour>
        <pt x="675" y="-88" on="1"/>
        <pt x="751" y="-61" on="1"/>
        <pt x="656" y="38" on="1"/>
        <pt x="705" y="67" on="0"/>
        <pt x="775" y="144" on="0"/>
        <pt x="819" y="228" on="0"/>
        <pt x="839" y="313" on="0"/>
        <pt x="839" y="351" on="1"/>
        <pt x="839" y="408" on="0"/>
        <pt x="794" y="535" on="0"/>
        <pt x="699" y="642" on="0"/>
        <pt x="552" y="712" on="0"/>
        <pt x="449" y="712" on="1"/>
        <pt x="347" y="712" on="0"/>
        <pt x="202" y="642" on="0"/>
        <pt x="109" y="536" on="0"/>
        <pt x="65" y="408" on="0"/>
        <pt x="65" y="351" on="1"/>
        <pt x="65" y="277" on="0"/>
        <pt x="121" y="145" on="0"/>
        <pt x="223" y="46" on="0"/>
        <pt x="364" y="-12" on="0"/>
        <pt x="449" y="-12" on="1"/>
        <pt x="483" y="-12" on="0"/>
        <pt x="549" y="-3" on="0"/>
        <pt x="581" y="8" on="1"/>
      </contour>
      <contour>
        <pt x="537" y="163" on="1"/>
        <pt x="474" y="122" on="1"/>
        <pt x="545" y="49" on="1"/>
        <pt x="519" y="39" on="0"/>
        <pt x="467" y="32" on="0"/>
        <pt x="440" y="32" on="1"/>
        <pt x="385" y="32" on="0"/>
        <pt x="285" y="75" on="0"/>
        <pt x="209" y="158" on="0"/>
        <pt x="164" y="276" on="0"/>
        <pt x="164" y="351" on="1"/>
        <pt x="164" y="422" on="0"/>
        <pt x="209" y="539" on="0"/>
        <pt x="286" y="622" on="0"/>
        <pt x="390" y="668" on="0"/>
        <pt x="449" y="668" on="1"/>
        <pt x="510" y="668" on="0"/>
        <pt x="616" y="622" on="0"/>
        <pt x="694" y="539" on="0"/>
        <pt x="739" y="422" on="0"/>
        <pt x="739" y="351" on="1"/>
        <pt x="739" y="332" on="0"/>
        <pt x="734" y="271" on="0"/>
        <pt x="710" y="198" on="0"/>
        <pt x="659" y="120" on="0"/>
        <pt x="613" y="84" on="1"/>
      </contour>
    </TTGlyph>
    <TTGlyph name="R" xMin="120" yMin="-12" xMax="688" yMax="700">
      <contour>
        <pt x="120" y="700" on="1"/>
        <pt x="120" y="0" on="1"/>
        <pt x="211" y="0" on="1"/>
        <pt x="211" y="309" on="1"/>
        <pt x="255" y="309" on="1"/>
        <pt x="283" y="309" on="0"/>
        <pt x="320" y="299" on="0"/>
        <pt x="350" y="275" on="0"/>
        <pt x="376" y="237" on="0"/>
        <pt x="394" y="209" on="1"/>
        <pt x="473" y="92" on="1"/>
        <pt x="488" y="69" on="0"/>
        <pt x="517" y="31" on="0"/>
        <pt x="551" y="4" on="0"/>
        <pt x="594" y="-12" on="0"/>
        <pt x="624" y="-12" on="1"/>
        <pt x="646" y="-12" on="0"/>
        <pt x="674" y="-8" on="0"/>
        <pt x="688" y="0" on="1"/>
        <pt x="688" y="37" on="1"/>
        <pt x="683" y="36" on="0"/>
        <pt x="673" y="35" on="0"/>
        <pt x="668" y="35" on="1"/>
        <pt x="647" y="35" on="0"/>
        <pt x="615" y="47" on="0"/>
        <pt x="587" y="70" on="0"/>
        <pt x="561" y="103" on="0"/>
        <pt x="547" y="124" on="1"/>
        <pt x="505" y="185" on="0"/>
        <pt x="459" y="258" on="0"/>
        <pt x="432" y="298" on="0"/>
        <pt x="415" y="316" on="0"/>
        <pt x="403" y="322" on="1"/>
        <pt x="393" y="327" on="1"/>
        <pt x="393" y="331" on="1"/>
        <pt x="441" y="334" on="0"/>
        <pt x="510" y="370" on="0"/>
        <pt x="554" y="424" on="0"/>
        <pt x="574" y="487" on="0"/>
        <pt x="574" y="517" on="1"/>
        <pt x="574" y="544" on="0"/>
        <pt x="553" y="608" on="0"/>
        <pt x="502" y="663" on="0"/>
        <pt x="414" y="700" on="0"/>
        <pt x="347" y="700" on="1"/>
      </contour>
      <contour>
        <pt x="211" y="656" on="1"/>
        <pt x="312" y="656" on="1"/>
        <pt x="350" y="656" on="0"/>
        <pt x="411" y="634" on="0"/>
        <pt x="455" y="595" on="0"/>
        <pt x="478" y="541" on="0"/>
        <pt x="478" y="509" on="1"/>
        <pt x="478" y="482" on="0"/>
        <pt x="457" y="427" on="0"/>
        <pt x="415" y="382" on="0"/>
        <pt x="354" y="354" on="0"/>
        <pt x="314" y="354" on="1"/>
        <pt x="211" y="354" on="1"/>
      </contour>
    </TTGlyph>
    <TTGlyph name="Racute" xMin="120" yMin="-12" xMax="688" yMax="912">
      <contour>
        <pt x="120" y="700" on="1"/>
        <pt x="120" y="0" on="1"/>
        <pt x="211" y="0" on="1"/>
        <pt x="211" y="309" on="1"/>
        <pt x="255" y="309" on="1"/>
        <pt x="283" y="309" on="0"/>
        <pt x="320" y="299" on="0"/>
        <pt x="350" y="275" on="0"/>
        <pt x="376" y="237" on="0"/>
        <pt x="394" y="209" on="1"/>
        <pt x="473" y="92" on="1"/>
        <pt x="488" y="69" on="0"/>
        <pt x="517" y="31" on="0"/>
        <pt x="551" y="4" on="0"/>
        <pt x="594" y="-12" on="0"/>
        <pt x="624" y="-12" on="1"/>
        <pt x="646" y="-12" on="0"/>
        <pt x="674" y="-8" on="0"/>
        <pt x="688" y="0" on="1"/>
        <pt x="688" y="37" on="1"/>
        <pt x="683" y="36" on="0"/>
        <pt x="673" y="35" on="0"/>
        <pt x="668" y="35" on="1"/>
        <pt x="647" y="35" on="0"/>
        <pt x="615" y="47" on="0"/>
        <pt x="587" y="70" on="0"/>
        <pt x="561" y="103" on="0"/>
        <pt x="547" y="124" on="1"/>
        <pt x="505" y="185" on="0"/>
        <pt x="459" y="258" on="0"/>
        <pt x="432" y="298" on="0"/>
        <pt x="415" y="316" on="0"/>
        <pt x="403" y="322" on="1"/>
        <pt x="393" y="327" on="1"/>
        <pt x="393" y="331" on="1"/>
        <pt x="441" y="334" on="0"/>
        <pt x="510" y="370" on="0"/>
        <pt x="554" y="424" on="0"/>
        <pt x="574" y="487" on="0"/>
        <pt x="574" y="517" on="1"/>
        <pt x="574" y="544" on="0"/>
        <pt x="553" y="608" on="0"/>
        <pt x="502" y="663" on="0"/>
        <pt x="414" y="700" on="0"/>
        <pt x="347" y="700" on="1"/>
      </contour>
      <contour>
        <pt x="211" y="656" on="1"/>
        <pt x="312" y="656" on="1"/>
        <pt x="350" y="656" on="0"/>
        <pt x="411" y="634" on="0"/>
        <pt x="455" y="595" on="0"/>
        <pt x="478" y="541" on="0"/>
        <pt x="478" y="509" on="1"/>
        <pt x="478" y="482" on="0"/>
        <pt x="457" y="427" on="0"/>
        <pt x="415" y="382" on="0"/>
        <pt x="354" y="354" on="0"/>
        <pt x="314" y="354" on="1"/>
        <pt x="211" y="354" on="1"/>
      </contour>
      <contour>
        <pt x="345" y="912" on="1"/>
        <pt x="456" y="912" on="1"/>
        <pt x="301" y="785" on="1"/>
        <pt x="262" y="785" on="1"/>
      </contour>
    </TTGlyph>
    <TTGlyph name="Rcaron" xMin="120" yMin="-12" xMax="688" yMax="913">
      <contour>
        <pt x="120" y="700" on="1"/>
        <pt x="120" y="0" on="1"/>
        <pt x="211" y="0" on="1"/>
        <pt x="211" y="309" on="1"/>
        <pt x="255" y="309" on="1"/>
        <pt x="283" y="309" on="0"/>
        <pt x="320" y="299" on="0"/>
        <pt x="350" y="275" on="0"/>
        <pt x="376" y="237" on="0"/>
        <pt x="394" y="209" on="1"/>
        <pt x="473" y="92" on="1"/>
        <pt x="488" y="69" on="0"/>
        <pt x="517" y="31" on="0"/>
        <pt x="551" y="4" on="0"/>
        <pt x="594" y="-12" on="0"/>
        <pt x="624" y="-12" on="1"/>
        <pt x="646" y="-12" on="0"/>
        <pt x="674" y="-8" on="0"/>
        <pt x="688" y="0" on="1"/>
        <pt x="688" y="37" on="1"/>
        <pt x="683" y="36" on="0"/>
        <pt x="673" y="35" on="0"/>
        <pt x="668" y="35" on="1"/>
        <pt x="647" y="35" on="0"/>
        <pt x="615" y="47" on="0"/>
        <pt x="587" y="70" on="0"/>
        <pt x="561" y="103" on="0"/>
        <pt x="547" y="124" on="1"/>
        <pt x="505" y="185" on="0"/>
        <pt x="459" y="258" on="0"/>
        <pt x="432" y="298" on="0"/>
        <pt x="415" y="316" on="0"/>
        <pt x="403" y="322" on="1"/>
        <pt x="393" y="327" on="1"/>
        <pt x="393" y="331" on="1"/>
        <pt x="441" y="334" on="0"/>
        <pt x="510" y="370" on="0"/>
        <pt x="554" y="424" on="0"/>
        <pt x="574" y="487" on="0"/>
        <pt x="574" y="517" on="1"/>
        <pt x="574" y="544" on="0"/>
        <pt x="553" y="608" on="0"/>
        <pt x="502" y="663" on="0"/>
        <pt x="414" y="700" on="0"/>
        <pt x="347" y="700" on="1"/>
      </contour>
      <contour>
        <pt x="211" y="656" on="1"/>
        <pt x="312" y="656" on="1"/>
        <pt x="350" y="656" on="0"/>
        <pt x="411" y="634" on="0"/>
        <pt x="455" y="595" on="0"/>
        <pt x="478" y="541" on="0"/>
        <pt x="478" y="509" on="1"/>
        <pt x="478" y="482" on="0"/>
        <pt x="457" y="427" on="0"/>
        <pt x="415" y="382" on="0"/>
        <pt x="354" y="354" on="0"/>
        <pt x="314" y="354" on="1"/>
        <pt x="211" y="354" on="1"/>
      </contour>
      <contour>
        <pt x="358" y="821" on="1"/>
        <pt x="358" y="820" on="0"/>
        <pt x="380" y="834" on="0"/>
        <pt x="413" y="854" on="0"/>
        <pt x="452" y="878" on="0"/>
        <pt x="485" y="899" on="0"/>
        <pt x="507" y="913" on="0"/>
        <pt x="507" y="913" on="1"/>
        <pt x="532" y="882" on="1"/>
        <pt x="532" y="882" on="0"/>
        <pt x="510" y="860" on="0"/>
        <pt x="477" y="828" on="0"/>
        <pt x="438" y="790" on="0"/>
        <pt x="405" y="758" on="0"/>
        <pt x="383" y="737" on="0"/>
        <pt x="383" y="737" on="1"/>
        <pt x="333" y="737" on="1"/>
        <pt x="333" y="737" on="0"/>
        <pt x="311" y="759" on="0"/>
        <pt x="278" y="791" on="0"/>
        <pt x="239" y="829" on="0"/>
        <pt x="206" y="861" on="0"/>
        <pt x="184" y="882" on="0"/>
        <pt x="184" y="882" on="1"/>
        <pt x="208" y="912" on="1"/>
        <pt x="208" y="912" on="0"/>
        <pt x="231" y="899" on="0"/>
        <pt x="264" y="878" on="0"/>
        <pt x="303" y="855" on="0"/>
        <pt x="336" y="834" on="0"/>
        <pt x="358" y="821" on="0"/>
      </contour>
    </TTGlyph>
    <TTGlyph name="S" xMin="37" yMin="-12" xMax="557" yMax="712">
      <contour>
        <pt x="37" y="177" on="1"/>
        <pt x="39" y="134" on="0"/>
        <pt x="80" y="64" on="0"/>
        <pt x="151" y="15" on="0"/>
        <pt x="247" y="-12" on="0"/>
        <pt x="304" y="-12" on="1"/>
        <pt x="362" y="-12" on="0"/>
        <pt x="455" y="16" on="0"/>
        <pt x="521" y="68" on="0"/>
        <pt x="557" y="142" on="0"/>
        <pt x="557" y="187" on="1"/>
        <pt x="557" y="249" on="0"/>
        <pt x="495" y="328" on="0"/>
        <pt x="402" y="381" on="0"/>
        <pt x="293" y="417" on="0"/>
        <pt x="200" y="457" on="0"/>
        <pt x="138" y="509" on="0"/>
        <pt x="138" y="552" on="1"/>
        <pt x="138" y="576" on="0"/>
        <pt x="159" y="618" on="0"/>
        <pt x="200" y="649" on="0"/>
        <pt x="260" y="668" on="0"/>
        <pt x="299" y="668" on="1"/>
        <pt x="364" y="668" on="0"/>
        <pt x="455" y="613" on="0"/>
        <pt x="463" y="554" on="1"/>
        <pt x="531" y="554" on="1"/>
        <pt x="525" y="591" on="0"/>
        <pt x="483" y="650" on="0"/>
        <pt x="419" y="691" on="0"/>
        <pt x="338" y="712" on="0"/>
        <pt x="294" y="712" on="1"/>
        <pt x="248" y="712" on="0"/>
        <pt x="165" y="688" on="0"/>
        <pt x="102" y="642" on="0"/>
        <pt x="65" y="572" on="0"/>
        <pt x="65" y="527" on="1"/>
        <pt x="65" y="468" on="0"/>
        <pt x="125" y="396" on="0"/>
        <pt x="216" y="348" on="0"/>
        <pt x="322" y="314" on="0"/>
        <pt x="413" y="271" on="0"/>
        <pt x="473" y="209" on="0"/>
        <pt x="473" y="157" on="1"/>
        <pt x="473" y="92" on="0"/>
        <pt x="378" y="32" on="0"/>
        <pt x="299" y="32" on="1"/>
        <pt x="236" y="32" on="0"/>
        <pt x="160" y="65" on="0"/>
        <pt x="120" y="111" on="0"/>
        <pt x="106" y="160" on="0"/>
        <pt x="105" y="177" on="1"/>
      </contour>
    </TTGlyph>
    <TTGlyph name="Sacute" xMin="37" yMin="-12" xMax="557" yMax="912">
      <contour>
        <pt x="37" y="177" on="1"/>
        <pt x="39" y="134" on="0"/>
        <pt x="80" y="64" on="0"/>
        <pt x="151" y="15" on="0"/>
        <pt x="247" y="-12" on="0"/>
        <pt x="304" y="-12" on="1"/>
        <pt x="362" y="-12" on="0"/>
        <pt x="455" y="16" on="0"/>
        <pt x="521" y="68" on="0"/>
        <pt x="557" y="142" on="0"/>
        <pt x="557" y="187" on="1"/>
        <pt x="557" y="249" on="0"/>
        <pt x="495" y="328" on="0"/>
        <pt x="402" y="381" on="0"/>
        <pt x="293" y="417" on="0"/>
        <pt x="200" y="457" on="0"/>
        <pt x="138" y="509" on="0"/>
        <pt x="138" y="552" on="1"/>
        <pt x="138" y="576" on="0"/>
        <pt x="159" y="618" on="0"/>
        <pt x="200" y="649" on="0"/>
        <pt x="260" y="668" on="0"/>
        <pt x="299" y="668" on="1"/>
        <pt x="364" y="668" on="0"/>
        <pt x="455" y="613" on="0"/>
        <pt x="463" y="554" on="1"/>
        <pt x="531" y="554" on="1"/>
        <pt x="525" y="591" on="0"/>
        <pt x="483" y="650" on="0"/>
        <pt x="419" y="691" on="0"/>
        <pt x="338" y="712" on="0"/>
        <pt x="294" y="712" on="1"/>
        <pt x="248" y="712" on="0"/>
        <pt x="165" y="688" on="0"/>
        <pt x="102" y="642" on="0"/>
        <pt x="65" y="572" on="0"/>
        <pt x="65" y="527" on="1"/>
        <pt x="65" y="468" on="0"/>
        <pt x="125" y="396" on="0"/>
        <pt x="216" y="348" on="0"/>
        <pt x="322" y="314" on="0"/>
        <pt x="413" y="271" on="0"/>
        <pt x="473" y="209" on="0"/>
        <pt x="473" y="157" on="1"/>
        <pt x="473" y="92" on="0"/>
        <pt x="378" y="32" on="0"/>
        <pt x="299" y="32" on="1"/>
        <pt x="236" y="32" on="0"/>
        <pt x="160" y="65" on="0"/>
        <pt x="120" y="111" on="0"/>
        <pt x="106" y="160" on="0"/>
        <pt x="105" y="177" on="1"/>
      </contour>
      <contour>
        <pt x="298" y="912" on="1"/>
        <pt x="409" y="912" on="1"/>
        <pt x="254" y="785" on="1"/>
        <pt x="215" y="785" on="1"/>
      </contour>
    </TTGlyph>
    <TTGlyph name="Scaron" xMin="37" yMin="-12" xMax="557" yMax="913">
      <contour>
        <pt x="37" y="177" on="1"/>
        <pt x="39" y="134" on="0"/>
        <pt x="80" y="64" on="0"/>
        <pt x="151" y="15" on="0"/>
        <pt x="247" y="-12" on="0"/>
        <pt x="304" y="-12" on="1"/>
        <pt x="362" y="-12" on="0"/>
        <pt x="455" y="16" on="0"/>
        <pt x="521" y="68" on="0"/>
        <pt x="557" y="142" on="0"/>
        <pt x="557" y="187" on="1"/>
        <pt x="557" y="249" on="0"/>
        <pt x="495" y="328" on="0"/>
        <pt x="402" y="381" on="0"/>
        <pt x="293" y="417" on="0"/>
        <pt x="200" y="457" on="0"/>
        <pt x="138" y="509" on="0"/>
        <pt x="138" y="552" on="1"/>
        <pt x="138" y="576" on="0"/>
        <pt x="159" y="618" on="0"/>
        <pt x="200" y="649" on="0"/>
        <pt x="260" y="668" on="0"/>
        <pt x="299" y="668" on="1"/>
        <pt x="364" y="668" on="0"/>
        <pt x="455" y="613" on="0"/>
        <pt x="463" y="554" on="1"/>
        <pt x="531" y="554" on="1"/>
        <pt x="525" y="591" on="0"/>
        <pt x="483" y="650" on="0"/>
        <pt x="419" y="691" on="0"/>
        <pt x="338" y="712" on="0"/>
        <pt x="294" y="712" on="1"/>
        <pt x="248" y="712" on="0"/>
        <pt x="165" y="688" on="0"/>
        <pt x="102" y="642" on="0"/>
        <pt x="65" y="572" on="0"/>
        <pt x="65" y="527" on="1"/>
        <pt x="65" y="468" on="0"/>
        <pt x="125" y="396" on="0"/>
        <pt x="216" y="348" on="0"/>
        <pt x="322" y="314" on="0"/>
        <pt x="413" y="271" on="0"/>
        <pt x="473" y="209" on="0"/>
        <pt x="473" y="157" on="1"/>
        <pt x="473" y="92" on="0"/>
        <pt x="378" y="32" on="0"/>
        <pt x="299" y="32" on="1"/>
        <pt x="236" y="32" on="0"/>
        <pt x="160" y="65" on="0"/>
        <pt x="120" y="111" on="0"/>
        <pt x="106" y="160" on="0"/>
        <pt x="105" y="177" on="1"/>
      </contour>
      <contour>
        <pt x="312" y="821" on="1"/>
        <pt x="312" y="820" on="0"/>
        <pt x="334" y="834" on="0"/>
        <pt x="367" y="854" on="0"/>
        <pt x="406" y="878" on="0"/>
        <pt x="439" y="899" on="0"/>
        <pt x="461" y="913" on="0"/>
        <pt x="461" y="913" on="1"/>
        <pt x="486" y="882" on="1"/>
        <pt x="486" y="882" on="0"/>
        <pt x="464" y="860" on="0"/>
        <pt x="431" y="828" on="0"/>
        <pt x="392" y="790" on="0"/>
        <pt x="359" y="758" on="0"/>
        <pt x="337" y="737" on="0"/>
        <pt x="337" y="737" on="1"/>
        <pt x="287" y="737" on="1"/>
        <pt x="287" y="737" on="0"/>
        <pt x="265" y="759" on="0"/>
        <pt x="232" y="791" on="0"/>
        <pt x="193" y="829" on="0"/>
        <pt x="160" y="861" on="0"/>
        <pt x="138" y="882" on="0"/>
        <pt x="138" y="882" on="1"/>
        <pt x="162" y="912" on="1"/>
        <pt x="162" y="912" on="0"/>
        <pt x="185" y="899" on="0"/>
        <pt x="218" y="878" on="0"/>
        <pt x="257" y="855" on="0"/>
        <pt x="290" y="834" on="0"/>
        <pt x="312" y="821" on="0"/>
      </contour>
    </TTGlyph>
    <TTGlyph name="Scedilla" xMin="60" yMin="-220" xMax="575" yMax="712">
      <contour>
        <pt x="60" y="177" on="1"/>
        <pt x="61" y="135" on="0"/>
        <pt x="102" y="65" on="0"/>
        <pt x="171" y="15" on="0"/>
        <pt x="264" y="-12" on="0"/>
        <pt x="318" y="-12" on="1"/>
        <pt x="438" y="-12" on="0"/>
        <pt x="575" y="94" on="0"/>
        <pt x="575" y="190" on="1"/>
        <pt x="575" y="255" on="0"/>
        <pt x="513" y="338" on="0"/>
        <pt x="420" y="392" on="0"/>
        <pt x="311" y="427" on="0"/>
        <pt x="218" y="465" on="0"/>
        <pt x="156" y="514" on="0"/>
        <pt x="156" y="555" on="1"/>
        <pt x="156" y="577" on="0"/>
        <pt x="177" y="618" on="0"/>
        <pt x="218" y="649" on="0"/>
        <pt x="279" y="668" on="0"/>
        <pt x="318" y="668" on="1"/>
        <pt x="382" y="668" on="0"/>
        <pt x="459" y="613" on="0"/>
        <pt x="467" y="554" on="1"/>
        <pt x="546" y="554" on="1"/>
        <pt x="540" y="593" on="0"/>
        <pt x="497" y="652" on="0"/>
        <pt x="434" y="692" on="0"/>
        <pt x="356" y="712" on="0"/>
        <pt x="316" y="712" on="1"/>
        <pt x="267" y="712" on="0"/>
        <pt x="182" y="688" on="0"/>
        <pt x="119" y="641" on="0"/>
        <pt x="83" y="571" on="0"/>
        <pt x="83" y="525" on="1"/>
        <pt x="83" y="459" on="0"/>
        <pt x="143" y="379" on="0"/>
        <pt x="234" y="330" on="0"/>
        <pt x="340" y="298" on="0"/>
        <pt x="431" y="262" on="0"/>
        <pt x="491" y="209" on="0"/>
        <pt x="491" y="163" on="1"/>
        <pt x="491" y="127" on="0"/>
        <pt x="466" y="78" on="0"/>
        <pt x="421" y="46" on="0"/>
        <pt x="357" y="32" on="0"/>
        <pt x="319" y="32" on="1"/>
        <pt x="270" y="32" on="0"/>
        <pt x="204" y="65" on="0"/>
        <pt x="163" y="111" on="0"/>
        <pt x="145" y="160" on="0"/>
        <pt x="144" y="177" on="1"/>
      </contour>
      <contour>
        <pt x="371" y="-49" on="1"/>
        <pt x="277" y="-49" on="1"/>
        <pt x="277" y="-220" on="1"/>
        <pt x="311" y="-220" on="1"/>
      </contour>
    </TTGlyph>
    <TTGlyph name="Scircumflex" xMin="37" yMin="-12" xMax="557" yMax="912">
      <contour>
        <pt x="37" y="177" on="1"/>
        <pt x="39" y="134" on="0"/>
        <pt x="80" y="64" on="0"/>
        <pt x="151" y="15" on="0"/>
        <pt x="247" y="-12" on="0"/>
        <pt x="304" y="-12" on="1"/>
        <pt x="362" y="-12" on="0"/>
        <pt x="455" y="16" on="0"/>
        <pt x="521" y="68" on="0"/>
        <pt x="557" y="142" on="0"/>
        <pt x="557" y="187" on="1"/>
        <pt x="557" y="249" on="0"/>
        <pt x="495" y="328" on="0"/>
        <pt x="402" y="381" on="0"/>
        <pt x="293" y="417" on="0"/>
        <pt x="200" y="457" on="0"/>
        <pt x="138" y="509" on="0"/>
        <pt x="138" y="552" on="1"/>
        <pt x="138" y="576" on="0"/>
        <pt x="159" y="618" on="0"/>
        <pt x="200" y="649" on="0"/>
        <pt x="260" y="668" on="0"/>
        <pt x="299" y="668" on="1"/>
        <pt x="364" y="668" on="0"/>
        <pt x="455" y="613" on="0"/>
        <pt x="463" y="554" on="1"/>
        <pt x="531" y="554" on="1"/>
        <pt x="525" y="591" on="0"/>
        <pt x="483" y="650" on="0"/>
        <pt x="419" y="691" on="0"/>
        <pt x="338" y="712" on="0"/>
        <pt x="294" y="712" on="1"/>
        <pt x="248" y="712" on="0"/>
        <pt x="165" y="688" on="0"/>
        <pt x="102" y="642" on="0"/>
        <pt x="65" y="572" on="0"/>
        <pt x="65" y="527" on="1"/>
        <pt x="65" y="468" on="0"/>
        <pt x="125" y="396" on="0"/>
        <pt x="216" y="348" on="0"/>
        <pt x="322" y="314" on="0"/>
        <pt x="413" y="271" on="0"/>
        <pt x="473" y="209" on="0"/>
        <pt x="473" y="157" on="1"/>
        <pt x="473" y="92" on="0"/>
        <pt x="378" y="32" on="0"/>
        <pt x="299" y="32" on="1"/>
        <pt x="236" y="32" on="0"/>
        <pt x="160" y="65" on="0"/>
        <pt x="120" y="111" on="0"/>
        <pt x="106" y="160" on="0"/>
        <pt x="105" y="177" on="1"/>
      </contour>
      <contour>
        <pt x="312" y="828" on="1"/>
        <pt x="312" y="828" on="0"/>
        <pt x="334" y="815" on="0"/>
        <pt x="367" y="795" on="0"/>
        <pt x="406" y="771" on="0"/>
        <pt x="439" y="750" on="0"/>
        <pt x="461" y="736" on="0"/>
        <pt x="461" y="736" on="1"/>
        <pt x="486" y="767" on="1"/>
        <pt x="486" y="767" on="0"/>
        <pt x="464" y="789" on="0"/>
        <pt x="431" y="821" on="0"/>
        <pt x="392" y="859" on="0"/>
        <pt x="359" y="891" on="0"/>
        <pt x="337" y="912" on="0"/>
        <pt x="337" y="912" on="1"/>
        <pt x="287" y="912" on="1"/>
        <pt x="287" y="912" on="0"/>
        <pt x="265" y="890" on="0"/>
        <pt x="232" y="858" on="0"/>
        <pt x="193" y="820" on="0"/>
        <pt x="160" y="788" on="0"/>
        <pt x="138" y="766" on="0"/>
        <pt x="138" y="767" on="1"/>
        <pt x="162" y="737" on="1"/>
        <pt x="162" y="737" on="0"/>
        <pt x="185" y="750" on="0"/>
        <pt x="218" y="771" on="0"/>
        <pt x="257" y="794" on="0"/>
        <pt x="290" y="815" on="0"/>
        <pt x="312" y="828" on="0"/>
      </contour>
    </TTGlyph>
    <TTGlyph name="T" xMin="20" yMin="0" xMax="647" yMax="700">
      <contour>
        <pt x="379" y="0" on="1"/>
        <pt x="379" y="645" on="1"/>
        <pt x="647" y="645" on="1"/>
        <pt x="647" y="700" on="1"/>
        <pt x="20" y="700" on="1"/>
        <pt x="20" y="645" on="1"/>
        <pt x="288" y="645" on="1"/>
        <pt x="288" y="0" on="1"/>
      </contour>
    </TTGlyph>
    <TTGlyph name="Tbar" xMin="20" yMin="0" xMax="647" yMax="700">
      <contour>
        <pt x="177" y="471" on="1"/>
        <pt x="288" y="471" on="1"/>
        <pt x="288" y="0" on="1"/>
        <pt x="379" y="0" on="1"/>
        <pt x="379" y="471" on="1"/>
        <pt x="490" y="471" on="1"/>
        <pt x="490" y="511" on="1"/>
        <pt x="379" y="511" on="1"/>
        <pt x="379" y="645" on="1"/>
        <pt x="647" y="645" on="1"/>
        <pt x="647" y="700" on="1"/>
        <pt x="20" y="700" on="1"/>
        <pt x="20" y="645" on="1"/>
        <pt x="288" y="645" on="1"/>
        <pt x="288" y="511" on="1"/>
        <pt x="177" y="511" on="1"/>
      </contour>
    </TTGlyph>
    <TTGlyph name="Tcaron" xMin="20" yMin="0" xMax="647" yMax="913">
      <contour>
        <pt x="379" y="0" on="1"/>
        <pt x="379" y="645" on="1"/>
        <pt x="647" y="645" on="1"/>
        <pt x="647" y="700" on="1"/>
        <pt x="20" y="700" on="1"/>
        <pt x="20" y="645" on="1"/>
        <pt x="288" y="645" on="1"/>
        <pt x="288" y="0" on="1"/>
      </contour>
      <contour>
        <pt x="333" y="821" on="1"/>
        <pt x="333" y="820" on="0"/>
        <pt x="355" y="834" on="0"/>
        <pt x="388" y="854" on="0"/>
        <pt x="427" y="878" on="0"/>
        <pt x="460" y="899" on="0"/>
        <pt x="482" y="913" on="0"/>
        <pt x="482" y="913" on="1"/>
        <pt x="507" y="882" on="1"/>
        <pt x="507" y="882" on="0"/>
        <pt x="485" y="860" on="0"/>
        <pt x="452" y="828" on="0"/>
        <pt x="413" y="790" on="0"/>
        <pt x="380" y="758" on="0"/>
        <pt x="358" y="737" on="0"/>
        <pt x="358" y="737" on="1"/>
        <pt x="308" y="737" on="1"/>
        <pt x="308" y="737" on="0"/>
        <pt x="286" y="759" on="0"/>
        <pt x="253" y="791" on="0"/>
        <pt x="214" y="829" on="0"/>
        <pt x="181" y="861" on="0"/>
        <pt x="159" y="882" on="0"/>
        <pt x="159" y="882" on="1"/>
        <pt x="183" y="912" on="1"/>
        <pt x="183" y="912" on="0"/>
        <pt x="206" y="899" on="0"/>
        <pt x="239" y="878" on="0"/>
        <pt x="278" y="855" on="0"/>
        <pt x="311" y="834" on="0"/>
        <pt x="333" y="821" on="0"/>
      </contour>
    </TTGlyph>
    <TTGlyph name="Thorn" xMin="120" yMin="0" xMax="590" yMax="700">
      <contour>
        <pt x="211" y="584" on="1"/>
        <pt x="217" y="584" on="0"/>
        <pt x="228" y="585" on="0"/>
        <pt x="233" y="585" on="1"/>
        <pt x="298" y="585" on="0"/>
        <pt x="395" y="543" on="0"/>
        <pt x="459" y="477" on="0"/>
        <pt x="491" y="395" on="0"/>
        <pt x="491" y="356" on="1"/>
        <pt x="491" y="317" on="0"/>
        <pt x="457" y="238" on="0"/>
        <pt x="389" y="174" on="0"/>
        <pt x="287" y="134" on="0"/>
        <pt x="218" y="134" on="1"/>
        <pt x="211" y="134" on="1"/>
      </contour>
      <contour>
        <pt x="211" y="0" on="1"/>
        <pt x="211" y="90" on="1"/>
        <pt x="223" y="90" on="1"/>
        <pt x="325" y="90" on="0"/>
        <pt x="465" y="144" on="0"/>
        <pt x="552" y="226" on="0"/>
        <pt x="590" y="321" on="0"/>
        <pt x="590" y="362" on="1"/>
        <pt x="590" y="413" on="0"/>
        <pt x="543" y="509" on="0"/>
        <pt x="455" y="583" on="0"/>
        <pt x="329" y="628" on="0"/>
        <pt x="249" y="628" on="1"/>
        <pt x="211" y="628" on="1"/>
        <pt x="211" y="700" on="1"/>
        <pt x="120" y="700" on="1"/>
        <pt x="120" y="0" on="1"/>
      </contour>
    </TTGlyph>
    <TTGlyph name="U" xMin="80" yMin="-12" xMax="640" yMax="700">
      <contour>
        <pt x="80" y="700" on="1"/>
        <pt x="80" y="270" on="1"/>
        <pt x="80" y="229" on="0"/>
        <pt x="96" y="130" on="0"/>
        <pt x="156" y="45" on="0"/>
        <pt x="274" y="-12" on="0"/>
        <pt x="376" y="-12" on="1"/>
        <pt x="440" y="-12" on="0"/>
        <pt x="539" y="28" on="0"/>
        <pt x="606" y="98" on="0"/>
        <pt x="640" y="191" on="0"/>
        <pt x="640" y="244" on="1"/>
        <pt x="640" y="700" on="1"/>
        <pt x="596" y="700" on="1"/>
        <pt x="596" y="277" on="1"/>
        <pt x="596" y="255" on="0"/>
        <pt x="594" y="210" on="0"/>
        <pt x="584" y="165" on="0"/>
        <pt x="563" y="121" on="0"/>
        <pt x="543" y="99" on="1"/>
        <pt x="507" y="60" on="0"/>
        <pt x="417" y="32" on="0"/>
        <pt x="368" y="32" on="1"/>
        <pt x="326" y="32" on="0"/>
        <pt x="261" y="58" on="0"/>
        <pt x="232" y="84" on="1"/>
        <pt x="209" y="104" on="0"/>
        <pt x="185" y="144" on="0"/>
        <pt x="173" y="183" on="0"/>
        <pt x="171" y="223" on="0"/>
        <pt x="171" y="243" on="1"/>
        <pt x="171" y="700" on="1"/>
      </contour>
    </TTGlyph>
    <TTGlyph name="Uacute" xMin="80" yMin="-12" xMax="640" yMax="912">
      <contour>
        <pt x="80" y="700" on="1"/>
        <pt x="80" y="270" on="1"/>
        <pt x="80" y="229" on="0"/>
        <pt x="96" y="130" on="0"/>
        <pt x="156" y="45" on="0"/>
        <pt x="274" y="-12" on="0"/>
        <pt x="376" y="-12" on="1"/>
        <pt x="440" y="-12" on="0"/>
        <pt x="539" y="28" on="0"/>
        <pt x="606" y="98" on="0"/>
        <pt x="640" y="191" on="0"/>
        <pt x="640" y="244" on="1"/>
        <pt x="640" y="700" on="1"/>
        <pt x="596" y="700" on="1"/>
        <pt x="596" y="277" on="1"/>
        <pt x="596" y="255" on="0"/>
        <pt x="594" y="210" on="0"/>
        <pt x="584" y="165" on="0"/>
        <pt x="563" y="121" on="0"/>
        <pt x="543" y="99" on="1"/>
        <pt x="507" y="60" on="0"/>
        <pt x="417" y="32" on="0"/>
        <pt x="368" y="32" on="1"/>
        <pt x="326" y="32" on="0"/>
        <pt x="261" y="58" on="0"/>
        <pt x="232" y="84" on="1"/>
        <pt x="209" y="104" on="0"/>
        <pt x="185" y="144" on="0"/>
        <pt x="173" y="183" on="0"/>
        <pt x="171" y="223" on="0"/>
        <pt x="171" y="243" on="1"/>
        <pt x="171" y="700" on="1"/>
      </contour>
      <contour>
        <pt x="346" y="912" on="1"/>
        <pt x="457" y="912" on="1"/>
        <pt x="302" y="785" on="1"/>
        <pt x="263" y="785" on="1"/>
      </contour>
    </TTGlyph>
    <TTGlyph name="Ubreve" xMin="80" yMin="-12" xMax="640" yMax="912">
      <contour>
        <pt x="80" y="700" on="1"/>
        <pt x="80" y="270" on="1"/>
        <pt x="80" y="229" on="0"/>
        <pt x="96" y="130" on="0"/>
        <pt x="156" y="45" on="0"/>
        <pt x="274" y="-12" on="0"/>
        <pt x="376" y="-12" on="1"/>
        <pt x="440" y="-12" on="0"/>
        <pt x="539" y="28" on="0"/>
        <pt x="606" y="98" on="0"/>
        <pt x="640" y="191" on="0"/>
        <pt x="640" y="244" on="1"/>
        <pt x="640" y="700" on="1"/>
        <pt x="596" y="700" on="1"/>
        <pt x="596" y="277" on="1"/>
        <pt x="596" y="255" on="0"/>
        <pt x="594" y="210" on="0"/>
        <pt x="584" y="165" on="0"/>
        <pt x="563" y="121" on="0"/>
        <pt x="543" y="99" on="1"/>
        <pt x="507" y="60" on="0"/>
        <pt x="417" y="32" on="0"/>
        <pt x="368" y="32" on="1"/>
        <pt x="326" y="32" on="0"/>
        <pt x="261" y="58" on="0"/>
        <pt x="232" y="84" on="1"/>
        <pt x="209" y="104" on="0"/>
        <pt x="185" y="144" on="0"/>
        <pt x="173" y="183" on="0"/>
        <pt x="171" y="223" on="0"/>
        <pt x="171" y="243" on="1"/>
        <pt x="171" y="700" on="1"/>
      </contour>
      <contour>
        <pt x="213" y="912" on="1"/>
        <pt x="213" y="884" on="0"/>
        <pt x="235" y="834" on="0"/>
        <pt x="275" y="797" on="0"/>
        <pt x="328" y="776" on="0"/>
        <pt x="360" y="776" on="1"/>
        <pt x="391" y="776" on="0"/>
        <pt x="445" y="797" on="0"/>
        <pt x="485" y="834" on="0"/>
        <pt x="507" y="884" on="0"/>
        <pt x="507" y="912" on="1"/>
        <pt x="465" y="912" on="1"/>
        <pt x="463" y="867" on="0"/>
        <pt x="402" y="812" on="0"/>
        <pt x="360" y="812" on="1"/>
        <pt x="319" y="812" on="0"/>
        <pt x="258" y="867" on="0"/>
        <pt x="255" y="912" on="1"/>
      </contour>
    </TTGlyph>
    <TTGlyph name="Ucircumflex" xMin="80" yMin="-12" xMax="640" yMax="912">
      <contour>
        <pt x="80" y="700" on="1"/>
        <pt x="80" y="270" on="1"/>
        <pt x="80" y="229" on="0"/>
        <pt x="96" y="130" on="0"/>
        <pt x="156" y="45" on="0"/>
        <pt x="274" y="-12" on="0"/>
        <pt x="376" y="-12" on="1"/>
        <pt x="440" y="-12" on="0"/>
        <pt x="539" y="28" on="0"/>
        <pt x="606" y="98" on="0"/>
        <pt x="640" y="191" on="0"/>
        <pt x="640" y="244" on="1"/>
        <pt x="640" y="700" on="1"/>
        <pt x="596" y="700" on="1"/>
        <pt x="596" y="277" on="1"/>
        <pt x="596" y="255" on="0"/>
        <pt x="594" y="210" on="0"/>
        <pt x="584" y="165" on="0"/>
        <pt x="563" y="121" on="0"/>
        <pt x="543" y="99" on="1"/>
        <pt x="507" y="60" on="0"/>
        <pt x="417" y="32" on="0"/>
        <pt x="368" y="32" on="1"/>
        <pt x="326" y="32" on="0"/>
        <pt x="261" y="58" on="0"/>
        <pt x="232" y="84" on="1"/>
        <pt x="209" y="104" on="0"/>
        <pt x="185" y="144" on="0"/>
        <pt x="173" y="183" on="0"/>
        <pt x="171" y="223" on="0"/>
        <pt x="171" y="243" on="1"/>
        <pt x="171" y="700" on="1"/>
      </contour>
      <contour>
        <pt x="359" y="828" on="1"/>
        <pt x="359" y="828" on="0"/>
        <pt x="381" y="815" on="0"/>
        <pt x="414" y="795" on="0"/>
        <pt x="453" y="771" on="0"/>
        <pt x="486" y="750" on="0"/>
        <pt x="508" y="736" on="0"/>
        <pt x="508" y="736" on="1"/>
        <pt x="533" y="767" on="1"/>
        <pt x="533" y="767" on="0"/>
        <pt x="511" y="789" on="0"/>
        <pt x="478" y="821" on="0"/>
        <pt x="439" y="859" on="0"/>
        <pt x="406" y="891" on="0"/>
        <pt x="384" y="912" on="0"/>
        <pt x="384" y="912" on="1"/>
        <pt x="334" y="912" on="1"/>
        <pt x="334" y="912" on="0"/>
        <pt x="312" y="890" on="0"/>
        <pt x="279" y="858" on="0"/>
        <pt x="240" y="820" on="0"/>
        <pt x="207" y="788" on="0"/>
        <pt x="185" y="766" on="0"/>
        <pt x="185" y="767" on="1"/>
        <pt x="209" y="737" on="1"/>
        <pt x="209" y="737" on="0"/>
        <pt x="232" y="750" on="0"/>
        <pt x="265" y="771" on="0"/>
        <pt x="304" y="794" on="0"/>
        <pt x="337" y="815" on="0"/>
        <pt x="359" y="828" on="0"/>
      </contour>
    </TTGlyph>
    <TTGlyph name="Udieresis" xMin="80" yMin="-12" xMax="640" yMax="912">
      <contour>
        <pt x="80" y="700" on="1"/>
        <pt x="80" y="270" on="1"/>
        <pt x="80" y="229" on="0"/>
        <pt x="96" y="130" on="0"/>
        <pt x="156" y="45" on="0"/>
        <pt x="274" y="-12" on="0"/>
        <pt x="376" y="-12" on="1"/>
        <pt x="440" y="-12" on="0"/>
        <pt x="539" y="28" on="0"/>
        <pt x="606" y="98" on="0"/>
        <pt x="640" y="191" on="0"/>
        <pt x="640" y="244" on="1"/>
        <pt x="640" y="700" on="1"/>
        <pt x="596" y="700" on="1"/>
        <pt x="596" y="277" on="1"/>
        <pt x="596" y="255" on="0"/>
        <pt x="594" y="210" on="0"/>
        <pt x="584" y="165" on="0"/>
        <pt x="563" y="121" on="0"/>
        <pt x="543" y="99" on="1"/>
        <pt x="507" y="60" on="0"/>
        <pt x="417" y="32" on="0"/>
        <pt x="368" y="32" on="1"/>
        <pt x="326" y="32" on="0"/>
        <pt x="261" y="58" on="0"/>
        <pt x="232" y="84" on="1"/>
        <pt x="209" y="104" on="0"/>
        <pt x="185" y="144" on="0"/>
        <pt x="173" y="183" on="0"/>
        <pt x="171" y="223" on="0"/>
        <pt x="171" y="243" on="1"/>
        <pt x="171" y="700" on="1"/>
      </contour>
      <contour>
        <pt x="237" y="858" on="1"/>
        <pt x="237" y="836" on="0"/>
        <pt x="269" y="804" on="0"/>
        <pt x="291" y="804" on="1"/>
        <pt x="313" y="804" on="0"/>
        <pt x="345" y="836" on="0"/>
        <pt x="345" y="858" on="1"/>
        <pt x="345" y="880" on="0"/>
        <pt x="313" y="912" on="0"/>
        <pt x="291" y="912" on="1"/>
        <pt x="269" y="912" on="0"/>
        <pt x="237" y="880" on="0"/>
      </contour>
      <contour>
        <pt x="375" y="858" on="1"/>
        <pt x="375" y="836" on="0"/>
        <pt x="407" y="804" on="0"/>
        <pt x="429" y="804" on="1"/>
        <pt x="451" y="804" on="0"/>
        <pt x="483" y="836" on="0"/>
        <pt x="483" y="858" on="1"/>
        <pt x="483" y="880" on="0"/>
        <pt x="451" y="912" on="0"/>
        <pt x="429" y="912" on="1"/>
        <pt x="407" y="912" on="0"/>
        <pt x="375" y="880" on="0"/>
      </contour>
    </TTGlyph>
    <TTGlyph name="Ugrave" xMin="80" yMin="-12" xMax="640" yMax="912">
      <contour>
        <pt x="80" y="700" on="1"/>
        <pt x="80" y="270" on="1"/>
        <pt x="80" y="229" on="0"/>
        <pt x="96" y="130" on="0"/>
        <pt x="156" y="45" on="0"/>
        <pt x="274" y="-12" on="0"/>
        <pt x="376" y="-12" on="1"/>
        <pt x="440" y="-12" on="0"/>
        <pt x="539" y="28" on="0"/>
        <pt x="606" y="98" on="0"/>
        <pt x="640" y="191" on="0"/>
        <pt x="640" y="244" on="1"/>
        <pt x="640" y="700" on="1"/>
        <pt x="596" y="700" on="1"/>
        <pt x="596" y="277" on="1"/>
        <pt x="596" y="255" on="0"/>
        <pt x="594" y="210" on="0"/>
        <pt x="584" y="165" on="0"/>
        <pt x="563" y="121" on="0"/>
        <pt x="543" y="99" on="1"/>
        <pt x="507" y="60" on="0"/>
        <pt x="417" y="32" on="0"/>
        <pt x="368" y="32" on="1"/>
        <pt x="326" y="32" on="0"/>
        <pt x="261" y="58" on="0"/>
        <pt x="232" y="84" on="1"/>
        <pt x="209" y="104" on="0"/>
        <pt x="185" y="144" on="0"/>
        <pt x="173" y="183" on="0"/>
        <pt x="171" y="223" on="0"/>
        <pt x="171" y="243" on="1"/>
        <pt x="171" y="700" on="1"/>
      </contour>
      <contour>
        <pt x="374" y="912" on="1"/>
        <pt x="263" y="912" on="1"/>
        <pt x="418" y="785" on="1"/>
        <pt x="457" y="785" on="1"/>
      </contour>
    </TTGlyph>
    <TTGlyph name="Uhungarumlaut" xMin="80" yMin="-12" xMax="640" yMax="912">
      <contour>
        <pt x="80" y="700" on="1"/>
        <pt x="80" y="270" on="1"/>
        <pt x="80" y="229" on="0"/>
        <pt x="96" y="130" on="0"/>
        <pt x="156" y="45" on="0"/>
        <pt x="274" y="-12" on="0"/>
        <pt x="376" y="-12" on="1"/>
        <pt x="440" y="-12" on="0"/>
        <pt x="539" y="28" on="0"/>
        <pt x="606" y="98" on="0"/>
        <pt x="640" y="191" on="0"/>
        <pt x="640" y="244" on="1"/>
        <pt x="640" y="700" on="1"/>
        <pt x="596" y="700" on="1"/>
        <pt x="596" y="277" on="1"/>
        <pt x="596" y="255" on="0"/>
        <pt x="594" y="210" on="0"/>
        <pt x="584" y="165" on="0"/>
        <pt x="563" y="121" on="0"/>
        <pt x="543" y="99" on="1"/>
        <pt x="507" y="60" on="0"/>
        <pt x="417" y="32" on="0"/>
        <pt x="368" y="32" on="1"/>
        <pt x="326" y="32" on="0"/>
        <pt x="261" y="58" on="0"/>
        <pt x="232" y="84" on="1"/>
        <pt x="209" y="104" on="0"/>
        <pt x="185" y="144" on="0"/>
        <pt x="173" y="183" on="0"/>
        <pt x="171" y="223" on="0"/>
        <pt x="171" y="243" on="1"/>
        <pt x="171" y="700" on="1"/>
      </contour>
      <contour>
        <pt x="265" y="912" on="1"/>
        <pt x="376" y="912" on="1"/>
        <pt x="253" y="785" on="1"/>
        <pt x="214" y="785" on="1"/>
      </contour>
      <contour>
        <pt x="395" y="912" on="1"/>
        <pt x="506" y="912" on="1"/>
        <pt x="383" y="785" on="1"/>
        <pt x="344" y="785" on="1"/>
      </contour>
    </TTGlyph>
    <TTGlyph name="Umacron" xMin="80" yMin="-12" xMax="640" yMax="823">
      <contour>
        <pt x="80" y="700" on="1"/>
        <pt x="80" y="270" on="1"/>
        <pt x="80" y="229" on="0"/>
        <pt x="96" y="130" on="0"/>
        <pt x="156" y="45" on="0"/>
        <pt x="274" y="-12" on="0"/>
        <pt x="376" y="-12" on="1"/>
        <pt x="440" y="-12" on="0"/>
        <pt x="539" y="28" on="0"/>
        <pt x="606" y="98" on="0"/>
        <pt x="640" y="191" on="0"/>
        <pt x="640" y="244" on="1"/>
        <pt x="640" y="700" on="1"/>
        <pt x="596" y="700" on="1"/>
        <pt x="596" y="277" on="1"/>
        <pt x="596" y="255" on="0"/>
        <pt x="594" y="210" on="0"/>
        <pt x="584" y="165" on="0"/>
        <pt x="563" y="121" on="0"/>
        <pt x="543" y="99" on="1"/>
        <pt x="507" y="60" on="0"/>
        <pt x="417" y="32" on="0"/>
        <pt x="368" y="32" on="1"/>
        <pt x="326" y="32" on="0"/>
        <pt x="261" y="58" on="0"/>
        <pt x="232" y="84" on="1"/>
        <pt x="209" y="104" on="0"/>
        <pt x="185" y="144" on="0"/>
        <pt x="173" y="183" on="0"/>
        <pt x="171" y="223" on="0"/>
        <pt x="171" y="243" on="1"/>
        <pt x="171" y="700" on="1"/>
      </contour>
      <contour>
        <pt x="203" y="783" on="1"/>
        <pt x="516" y="783" on="1"/>
        <pt x="516" y="823" on="1"/>
        <pt x="203" y="823" on="1"/>
      </contour>
    </TTGlyph>
    <TTGlyph name="Uogonek" xMin="80" yMin="-190" xMax="640" yMax="700">
      <contour>
        <pt x="80" y="700" on="1"/>
        <pt x="80" y="270" on="1"/>
        <pt x="80" y="230" on="0"/>
        <pt x="95" y="136" on="0"/>
        <pt x="149" y="52" on="0"/>
        <pt x="256" y="-7" on="0"/>
        <pt x="348" y="-11" on="1"/>
        <pt x="318" y="-33" on="1"/>
        <pt x="291" y="-53" on="0"/>
        <pt x="246" y="-101" on="0"/>
        <pt x="246" y="-130" on="1"/>
        <pt x="246" y="-164" on="0"/>
        <pt x="293" y="-190" on="0"/>
        <pt x="320" y="-190" on="1"/>
        <pt x="343" y="-190" on="0"/>
        <pt x="388" y="-174" on="0"/>
        <pt x="404" y="-162" on="1"/>
        <pt x="393" y="-135" on="1"/>
        <pt x="383" y="-140" on="0"/>
        <pt x="353" y="-152" on="0"/>
        <pt x="339" y="-152" on="1"/>
        <pt x="318" y="-152" on="0"/>
        <pt x="307" y="-126" on="0"/>
        <pt x="307" y="-120" on="1"/>
        <pt x="307" y="-90" on="0"/>
        <pt x="360" y="-34" on="0"/>
        <pt x="394" y="-11" on="1"/>
        <pt x="454" y="-8" on="0"/>
        <pt x="545" y="34" on="0"/>
        <pt x="608" y="103" on="0"/>
        <pt x="640" y="193" on="0"/>
        <pt x="640" y="244" on="1"/>
        <pt x="640" y="700" on="1"/>
        <pt x="596" y="700" on="1"/>
        <pt x="596" y="277" on="1"/>
        <pt x="596" y="255" on="0"/>
        <pt x="594" y="210" on="0"/>
        <pt x="584" y="165" on="0"/>
        <pt x="563" y="121" on="0"/>
        <pt x="543" y="99" on="1"/>
        <pt x="507" y="60" on="0"/>
        <pt x="417" y="32" on="0"/>
        <pt x="368" y="32" on="1"/>
        <pt x="326" y="32" on="0"/>
        <pt x="261" y="58" on="0"/>
        <pt x="232" y="84" on="1"/>
        <pt x="209" y="104" on="0"/>
        <pt x="185" y="144" on="0"/>
        <pt x="173" y="183" on="0"/>
        <pt x="171" y="223" on="0"/>
        <pt x="171" y="243" on="1"/>
        <pt x="171" y="700" on="1"/>
      </contour>
    </TTGlyph>
    <TTGlyph name="Uring" xMin="80" yMin="-12" xMax="640" yMax="920">
      <contour>
        <pt x="80" y="700" on="1"/>
        <pt x="80" y="270" on="1"/>
        <pt x="80" y="229" on="0"/>
        <pt x="96" y="130" on="0"/>
        <pt x="156" y="45" on="0"/>
        <pt x="274" y="-12" on="0"/>
        <pt x="376" y="-12" on="1"/>
        <pt x="440" y="-12" on="0"/>
        <pt x="539" y="28" on="0"/>
        <pt x="606" y="98" on="0"/>
        <pt x="640" y="191" on="0"/>
        <pt x="640" y="244" on="1"/>
        <pt x="640" y="700" on="1"/>
        <pt x="596" y="700" on="1"/>
        <pt x="596" y="277" on="1"/>
        <pt x="596" y="255" on="0"/>
        <pt x="594" y="210" on="0"/>
        <pt x="584" y="165" on="0"/>
        <pt x="563" y="121" on="0"/>
        <pt x="543" y="99" on="1"/>
        <pt x="507" y="60" on="0"/>
        <pt x="417" y="32" on="0"/>
        <pt x="368" y="32" on="1"/>
        <pt x="326" y="32" on="0"/>
        <pt x="261" y="58" on="0"/>
        <pt x="232" y="84" on="1"/>
        <pt x="209" y="104" on="0"/>
        <pt x="185" y="144" on="0"/>
        <pt x="173" y="183" on="0"/>
        <pt x="171" y="223" on="0"/>
        <pt x="171" y="243" on="1"/>
        <pt x="171" y="700" on="1"/>
      </contour>
      <contour>
        <pt x="301" y="829" on="1"/>
        <pt x="301" y="854" on="0"/>
        <pt x="335" y="887" on="0"/>
        <pt x="360" y="887" on="1"/>
        <pt x="384" y="887" on="0"/>
        <pt x="419" y="854" on="0"/>
        <pt x="419" y="829" on="1"/>
        <pt x="419" y="804" on="0"/>
        <pt x="384" y="770" on="0"/>
        <pt x="360" y="770" on="1"/>
        <pt x="335" y="770" on="0"/>
        <pt x="301" y="804" on="0"/>
      </contour>
      <contour>
        <pt x="268" y="829" on="1"/>
        <pt x="268" y="810" on="0"/>
        <pt x="282" y="777" on="0"/>
        <pt x="307" y="752" on="0"/>
        <pt x="341" y="737" on="0"/>
        <pt x="360" y="737" on="1"/>
        <pt x="379" y="737" on="0"/>
        <pt x="413" y="752" on="0"/>
        <pt x="438" y="777" on="0"/>
        <pt x="452" y="810" on="0"/>
        <pt x="452" y="829" on="1"/>
        <pt x="452" y="844" on="0"/>
        <pt x="441" y="877" on="0"/>
        <pt x="418" y="903" on="0"/>
        <pt x="383" y="920" on="0"/>
        <pt x="360" y="920" on="1"/>
        <pt x="337" y="920" on="0"/>
        <pt x="303" y="903" on="0"/>
        <pt x="280" y="877" on="0"/>
        <pt x="268" y="844" on="0"/>
      </contour>
    </TTGlyph>
    <TTGlyph name="Utilde" xMin="80" yMin="-12" xMax="640" yMax="900">
      <contour>
        <pt x="80" y="700" on="1"/>
        <pt x="80" y="270" on="1"/>
        <pt x="80" y="229" on="0"/>
        <pt x="96" y="130" on="0"/>
        <pt x="156" y="45" on="0"/>
        <pt x="274" y="-12" on="0"/>
        <pt x="376" y="-12" on="1"/>
        <pt x="440" y="-12" on="0"/>
        <pt x="539" y="28" on="0"/>
        <pt x="606" y="98" on="0"/>
        <pt x="640" y="191" on="0"/>
        <pt x="640" y="244" on="1"/>
        <pt x="640" y="700" on="1"/>
        <pt x="596" y="700" on="1"/>
        <pt x="596" y="277" on="1"/>
        <pt x="596" y="255" on="0"/>
        <pt x="594" y="210" on="0"/>
        <pt x="584" y="165" on="0"/>
        <pt x="563" y="121" on="0"/>
        <pt x="543" y="99" on="1"/>
        <pt x="507" y="60" on="0"/>
        <pt x="417" y="32" on="0"/>
        <pt x="368" y="32" on="1"/>
        <pt x="326" y="32" on="0"/>
        <pt x="261" y="58" on="0"/>
        <pt x="232" y="84" on="1"/>
        <pt x="209" y="104" on="0"/>
        <pt x="185" y="144" on="0"/>
        <pt x="173" y="183" on="0"/>
        <pt x="171" y="223" on="0"/>
        <pt x="171" y="243" on="1"/>
        <pt x="171" y="700" on="1"/>
      </contour>
      <contour>
        <pt x="201" y="789" on="1"/>
        <pt x="212" y="808" on="0"/>
        <pt x="247" y="833" on="0"/>
        <pt x="264" y="833" on="1"/>
        <pt x="277" y="833" on="0"/>
        <pt x="302" y="825" on="0"/>
        <pt x="313" y="820" on="1"/>
        <pt x="349" y="806" on="0"/>
        <pt x="409" y="784" on="0"/>
        <pt x="435" y="784" on="1"/>
        <pt x="470" y="784" on="0"/>
        <pt x="529" y="831" on="0"/>
        <pt x="546" y="884" on="1"/>
        <pt x="516" y="898" on="1"/>
        <pt x="505" y="872" on="0"/>
        <pt x="471" y="853" on="0"/>
        <pt x="454" y="853" on="1"/>
        <pt x="442" y="853" on="0"/>
        <pt x="419" y="859" on="0"/>
        <pt x="410" y="861" on="1"/>
        <pt x="367" y="875" on="0"/>
        <pt x="306" y="900" on="0"/>
        <pt x="283" y="900" on="1"/>
        <pt x="245" y="900" on="0"/>
        <pt x="188" y="845" on="0"/>
        <pt x="174" y="804" on="1"/>
      </contour>
    </TTGlyph>
    <TTGlyph name="V" xMin="30" yMin="0" xMax="667" yMax="700">
      <contour>
        <pt x="30" y="700" on="1"/>
        <pt x="323" y="0" on="1"/>
        <pt x="383" y="0" on="1"/>
        <pt x="667" y="700" on="1"/>
        <pt x="615" y="700" on="1"/>
        <pt x="382" y="124" on="1"/>
        <pt x="378" y="124" on="1"/>
        <pt x="138" y="700" on="1"/>
      </contour>
    </TTGlyph>
    <TTGlyph name="W" xMin="30" yMin="0" xMax="1026" yMax="700">
      <contour>
        <pt x="30" y="700" on="1"/>
        <pt x="278" y="0" on="1"/>
        <pt x="338" y="0" on="1"/>
        <pt x="529" y="547" on="1"/>
        <pt x="534" y="547" on="1"/>
        <pt x="719" y="0" on="1"/>
        <pt x="778" y="0" on="1"/>
        <pt x="1026" y="700" on="1"/>
        <pt x="980" y="700" on="1"/>
        <pt x="773" y="116" on="1"/>
        <pt x="769" y="116" on="1"/>
        <pt x="574" y="700" on="1"/>
        <pt x="531" y="700" on="1"/>
        <pt x="332" y="119" on="1"/>
        <pt x="328" y="119" on="1"/>
        <pt x="122" y="700" on="1"/>
      </contour>
    </TTGlyph>
    <TTGlyph name="Wacute" xMin="30" yMin="0" xMax="1026" yMax="912">
      <contour>
        <pt x="30" y="700" on="1"/>
        <pt x="278" y="0" on="1"/>
        <pt x="338" y="0" on="1"/>
        <pt x="529" y="547" on="1"/>
        <pt x="534" y="547" on="1"/>
        <pt x="719" y="0" on="1"/>
        <pt x="778" y="0" on="1"/>
        <pt x="1026" y="700" on="1"/>
        <pt x="980" y="700" on="1"/>
        <pt x="773" y="116" on="1"/>
        <pt x="769" y="116" on="1"/>
        <pt x="574" y="700" on="1"/>
        <pt x="531" y="700" on="1"/>
        <pt x="332" y="119" on="1"/>
        <pt x="328" y="119" on="1"/>
        <pt x="122" y="700" on="1"/>
      </contour>
      <contour>
        <pt x="514" y="912" on="1"/>
        <pt x="625" y="912" on="1"/>
        <pt x="470" y="785" on="1"/>
        <pt x="431" y="785" on="1"/>
      </contour>
    </TTGlyph>
    <TTGlyph name="Wcircumflex" xMin="30" yMin="0" xMax="1026" yMax="912">
      <contour>
        <pt x="30" y="700" on="1"/>
        <pt x="278" y="0" on="1"/>
        <pt x="338" y="0" on="1"/>
        <pt x="529" y="547" on="1"/>
        <pt x="534" y="547" on="1"/>
        <pt x="719" y="0" on="1"/>
        <pt x="778" y="0" on="1"/>
        <pt x="1026" y="700" on="1"/>
        <pt x="980" y="700" on="1"/>
        <pt x="773" y="116" on="1"/>
        <pt x="769" y="116" on="1"/>
        <pt x="574" y="700" on="1"/>
        <pt x="531" y="700" on="1"/>
        <pt x="332" y="119" on="1"/>
        <pt x="328" y="119" on="1"/>
        <pt x="122" y="700" on="1"/>
      </contour>
      <contour>
        <pt x="527" y="828" on="1"/>
        <pt x="527" y="828" on="0"/>
        <pt x="549" y="815" on="0"/>
        <pt x="582" y="795" on="0"/>
        <pt x="621" y="771" on="0"/>
        <pt x="654" y="750" on="0"/>
        <pt x="676" y="736" on="0"/>
        <pt x="676" y="736" on="1"/>
        <pt x="701" y="767" on="1"/>
        <pt x="701" y="767" on="0"/>
        <pt x="679" y="789" on="0"/>
        <pt x="646" y="821" on="0"/>
        <pt x="607" y="859" on="0"/>
        <pt x="574" y="891" on="0"/>
        <pt x="552" y="912" on="0"/>
        <pt x="552" y="912" on="1"/>
        <pt x="502" y="912" on="1"/>
        <pt x="502" y="912" on="0"/>
        <pt x="480" y="890" on="0"/>
        <pt x="447" y="858" on="0"/>
        <pt x="408" y="820" on="0"/>
        <pt x="375" y="788" on="0"/>
        <pt x="353" y="766" on="0"/>
        <pt x="353" y="767" on="1"/>
        <pt x="377" y="737" on="1"/>
        <pt x="377" y="737" on="0"/>
        <pt x="400" y="750" on="0"/>
        <pt x="433" y="771" on="0"/>
        <pt x="472" y="794" on="0"/>
        <pt x="505" y="815" on="0"/>
        <pt x="527" y="828" on="0"/>
      </contour>
    </TTGlyph>
    <TTGlyph name="Wdieresis" xMin="30" yMin="0" xMax="1026" yMax="912">
      <contour>
        <pt x="30" y="700" on="1"/>
        <pt x="278" y="0" on="1"/>
        <pt x="338" y="0" on="1"/>
        <pt x="529" y="547" on="1"/>
        <pt x="534" y="547" on="1"/>
        <pt x="719" y="0" on="1"/>
        <pt x="778" y="0" on="1"/>
        <pt x="1026" y="700" on="1"/>
        <pt x="980" y="700" on="1"/>
        <pt x="773" y="116" on="1"/>
        <pt x="769" y="116" on="1"/>
        <pt x="574" y="700" on="1"/>
        <pt x="531" y="700" on="1"/>
        <pt x="332" y="119" on="1"/>
        <pt x="328" y="119" on="1"/>
        <pt x="122" y="700" on="1"/>
      </contour>
      <contour>
        <pt x="405" y="858" on="1"/>
        <pt x="405" y="836" on="0"/>
        <pt x="437" y="804" on="0"/>
        <pt x="459" y="804" on="1"/>
        <pt x="481" y="804" on="0"/>
        <pt x="513" y="836" on="0"/>
        <pt x="513" y="858" on="1"/>
        <pt x="513" y="880" on="0"/>
        <pt x="481" y="912" on="0"/>
        <pt x="459" y="912" on="1"/>
        <pt x="437" y="912" on="0"/>
        <pt x="405" y="880" on="0"/>
      </contour>
      <contour>
        <pt x="543" y="858" on="1"/>
        <pt x="543" y="836" on="0"/>
        <pt x="575" y="804" on="0"/>
        <pt x="597" y="804" on="1"/>
        <pt x="619" y="804" on="0"/>
        <pt x="651" y="836" on="0"/>
        <pt x="651" y="858" on="1"/>
        <pt x="651" y="880" on="0"/>
        <pt x="619" y="912" on="0"/>
        <pt x="597" y="912" on="1"/>
        <pt x="575" y="912" on="0"/>
        <pt x="543" y="880" on="0"/>
      </contour>
    </TTGlyph>
    <TTGlyph name="Wgrave" xMin="30" yMin="0" xMax="1026" yMax="912">
      <contour>
        <pt x="30" y="700" on="1"/>
        <pt x="278" y="0" on="1"/>
        <pt x="338" y="0" on="1"/>
        <pt x="529" y="547" on="1"/>
        <pt x="534" y="547" on="1"/>
        <pt x="719" y="0" on="1"/>
        <pt x="778" y="0" on="1"/>
        <pt x="1026" y="700" on="1"/>
        <pt x="980" y="700" on="1"/>
        <pt x="773" y="116" on="1"/>
        <pt x="769" y="116" on="1"/>
        <pt x="574" y="700" on="1"/>
        <pt x="531" y="700" on="1"/>
        <pt x="332" y="119" on="1"/>
        <pt x="328" y="119" on="1"/>
        <pt x="122" y="700" on="1"/>
      </contour>
      <contour>
        <pt x="542" y="912" on="1"/>
        <pt x="431" y="912" on="1"/>
        <pt x="586" y="785" on="1"/>
        <pt x="625" y="785" on="1"/>
      </contour>
    </TTGlyph>
    <TTGlyph name="X" xMin="30" yMin="0" xMax="689" yMax="700">
      <contour>
        <pt x="142" y="700" on="1"/>
        <pt x="30" y="700" on="1"/>
        <pt x="303" y="349" on="1"/>
        <pt x="35" y="0" on="1"/>
        <pt x="89" y="0" on="1"/>
        <pt x="328" y="313" on="1"/>
        <pt x="332" y="313" on="1"/>
        <pt x="576" y="0" on="1"/>
        <pt x="689" y="0" on="1"/>
        <pt x="386" y="387" on="1"/>
        <pt x="625" y="700" on="1"/>
        <pt x="572" y="700" on="1"/>
        <pt x="361" y="425" on="1"/>
        <pt x="356" y="425" on="1"/>
      </contour>
    </TTGlyph>
    <TTGlyph name="Y" xMin="30" yMin="0" xMax="609" yMax="700">
      <contour>
        <pt x="30" y="700" on="1"/>
        <pt x="272" y="265" on="1"/>
        <pt x="272" y="0" on="1"/>
        <pt x="363" y="0" on="1"/>
        <pt x="363" y="274" on="1"/>
        <pt x="609" y="700" on="1"/>
        <pt x="555" y="700" on="1"/>
        <pt x="341" y="331" on="1"/>
        <pt x="337" y="331" on="1"/>
        <pt x="133" y="700" on="1"/>
      </contour>
    </TTGlyph>
    <TTGlyph name="Yacute" xMin="30" yMin="0" xMax="609" yMax="912">
      <contour>
        <pt x="30" y="700" on="1"/>
        <pt x="272" y="265" on="1"/>
        <pt x="272" y="0" on="1"/>
        <pt x="363" y="0" on="1"/>
        <pt x="363" y="274" on="1"/>
        <pt x="609" y="700" on="1"/>
        <pt x="555" y="700" on="1"/>
        <pt x="341" y="331" on="1"/>
        <pt x="337" y="331" on="1"/>
        <pt x="133" y="700" on="1"/>
      </contour>
      <contour>
        <pt x="305" y="912" on="1"/>
        <pt x="416" y="912" on="1"/>
        <pt x="261" y="785" on="1"/>
        <pt x="222" y="785" on="1"/>
      </contour>
    </TTGlyph>
    <TTGlyph name="Ycircumflex" xMin="30" yMin="0" xMax="609" yMax="912">
      <contour>
        <pt x="30" y="700" on="1"/>
        <pt x="272" y="265" on="1"/>
        <pt x="272" y="0" on="1"/>
        <pt x="363" y="0" on="1"/>
        <pt x="363" y="274" on="1"/>
        <pt x="609" y="700" on="1"/>
        <pt x="555" y="700" on="1"/>
        <pt x="341" y="331" on="1"/>
        <pt x="337" y="331" on="1"/>
        <pt x="133" y="700" on="1"/>
      </contour>
      <contour>
        <pt x="319" y="828" on="1"/>
        <pt x="319" y="828" on="0"/>
        <pt x="341" y="815" on="0"/>
        <pt x="374" y="795" on="0"/>
        <pt x="413" y="771" on="0"/>
        <pt x="446" y="750" on="0"/>
        <pt x="468" y="736" on="0"/>
        <pt x="468" y="736" on="1"/>
        <pt x="493" y="767" on="1"/>
        <pt x="493" y="767" on="0"/>
        <pt x="471" y="789" on="0"/>
        <pt x="438" y="821" on="0"/>
        <pt x="399" y="859" on="0"/>
        <pt x="366" y="891" on="0"/>
        <pt x="344" y="912" on="0"/>
        <pt x="344" y="912" on="1"/>
        <pt x="294" y="912" on="1"/>
        <pt x="294" y="912" on="0"/>
        <pt x="272" y="890" on="0"/>
        <pt x="239" y="858" on="0"/>
        <pt x="200" y="820" on="0"/>
        <pt x="167" y="788" on="0"/>
        <pt x="145" y="766" on="0"/>
        <pt x="145" y="767" on="1"/>
        <pt x="169" y="737" on="1"/>
        <pt x="169" y="737" on="0"/>
        <pt x="192" y="750" on="0"/>
        <pt x="225" y="771" on="0"/>
        <pt x="264" y="794" on="0"/>
        <pt x="297" y="815" on="0"/>
        <pt x="319" y="828" on="0"/>
      </contour>
    </TTGlyph>
    <TTGlyph name="Ydieresis" xMin="30" yMin="0" xMax="609" yMax="912">
      <contour>
        <pt x="30" y="700" on="1"/>
        <pt x="272" y="265" on="1"/>
        <pt x="272" y="0" on="1"/>
        <pt x="363" y="0" on="1"/>
        <pt x="363" y="274" on="1"/>
        <pt x="609" y="700" on="1"/>
        <pt x="555" y="700" on="1"/>
        <pt x="341" y="331" on="1"/>
        <pt x="337" y="331" on="1"/>
        <pt x="133" y="700" on="1"/>
      </contour>
      <contour>
        <pt x="196" y="858" on="1"/>
        <pt x="196" y="836" on="0"/>
        <pt x="228" y="804" on="0"/>
        <pt x="250" y="804" on="1"/>
        <pt x="272" y="804" on="0"/>
        <pt x="304" y="836" on="0"/>
        <pt x="304" y="858" on="1"/>
        <pt x="304" y="880" on="0"/>
        <pt x="272" y="912" on="0"/>
        <pt x="250" y="912" on="1"/>
        <pt x="228" y="912" on="0"/>
        <pt x="196" y="880" on="0"/>
      </contour>
      <contour>
        <pt x="334" y="858" on="1"/>
        <pt x="334" y="836" on="0"/>
        <pt x="366" y="804" on="0"/>
        <pt x="388" y="804" on="1"/>
        <pt x="410" y="804" on="0"/>
        <pt x="442" y="836" on="0"/>
        <pt x="442" y="858" on="1"/>
        <pt x="442" y="880" on="0"/>
        <pt x="410" y="912" on="0"/>
        <pt x="388" y="912" on="1"/>
        <pt x="366" y="912" on="0"/>
        <pt x="334" y="880" on="0"/>
      </contour>
    </TTGlyph>
    <TTGlyph name="Ygrave" xMin="30" yMin="0" xMax="609" yMax="912">
      <contour>
        <pt x="30" y="700" on="1"/>
        <pt x="272" y="265" on="1"/>
        <pt x="272" y="0" on="1"/>
        <pt x="363" y="0" on="1"/>
        <pt x="363" y="274" on="1"/>
        <pt x="609" y="700" on="1"/>
        <pt x="555" y="700" on="1"/>
        <pt x="341" y="331" on="1"/>
        <pt x="337" y="331" on="1"/>
        <pt x="133" y="700" on="1"/>
      </contour>
      <contour>
        <pt x="333" y="912" on="1"/>
        <pt x="222" y="912" on="1"/>
        <pt x="377" y="785" on="1"/>
        <pt x="416" y="785" on="1"/>
      </contour>
    </TTGlyph>
    <TTGlyph name="Z" xMin="30" yMin="0" xMax="636" yMax="700">
      <contour>
        <pt x="55" y="700" on="1"/>
        <pt x="55" y="645" on="1"/>
        <pt x="478" y="645" on="1"/>
        <pt x="30" y="0" on="1"/>
        <pt x="636" y="0" on="1"/>
        <pt x="636" y="55" on="1"/>
        <pt x="175" y="55" on="1"/>
        <pt x="619" y="700" on="1"/>
      </contour>
    </TTGlyph>
    <TTGlyph name="Zacute" xMin="30" yMin="0" xMax="636" yMax="912">
      <contour>
        <pt x="55" y="700" on="1"/>
        <pt x="55" y="645" on="1"/>
        <pt x="478" y="645" on="1"/>
        <pt x="30" y="0" on="1"/>
        <pt x="636" y="0" on="1"/>
        <pt x="636" y="55" on="1"/>
        <pt x="175" y="55" on="1"/>
        <pt x="619" y="700" on="1"/>
      </contour>
      <contour>
        <pt x="319" y="912" on="1"/>
        <pt x="430" y="912" on="1"/>
        <pt x="275" y="785" on="1"/>
        <pt x="236" y="785" on="1"/>
      </contour>
    </TTGlyph>
    <TTGlyph name="Zcaron" xMin="30" yMin="0" xMax="636" yMax="913">
      <contour>
        <pt x="55" y="700" on="1"/>
        <pt x="55" y="645" on="1"/>
        <pt x="478" y="645" on="1"/>
        <pt x="30" y="0" on="1"/>
        <pt x="636" y="0" on="1"/>
        <pt x="636" y="55" on="1"/>
        <pt x="175" y="55" on="1"/>
        <pt x="619" y="700" on="1"/>
      </contour>
      <contour>
        <pt x="332" y="821" on="1"/>
        <pt x="332" y="820" on="0"/>
        <pt x="354" y="834" on="0"/>
        <pt x="387" y="854" on="0"/>
        <pt x="426" y="878" on="0"/>
        <pt x="459" y="899" on="0"/>
        <pt x="481" y="913" on="0"/>
        <pt x="481" y="913" on="1"/>
        <pt x="506" y="882" on="1"/>
        <pt x="506" y="882" on="0"/>
        <pt x="484" y="860" on="0"/>
        <pt x="451" y="828" on="0"/>
        <pt x="412" y="790" on="0"/>
        <pt x="379" y="758" on="0"/>
        <pt x="357" y="737" on="0"/>
        <pt x="357" y="737" on="1"/>
        <pt x="307" y="737" on="1"/>
        <pt x="307" y="737" on="0"/>
        <pt x="285" y="759" on="0"/>
        <pt x="252" y="791" on="0"/>
        <pt x="213" y="829" on="0"/>
        <pt x="180" y="861" on="0"/>
        <pt x="158" y="882" on="0"/>
        <pt x="158" y="882" on="1"/>
        <pt x="182" y="912" on="1"/>
        <pt x="182" y="912" on="0"/>
        <pt x="205" y="899" on="0"/>
        <pt x="238" y="878" on="0"/>
        <pt x="277" y="855" on="0"/>
        <pt x="310" y="834" on="0"/>
        <pt x="332" y="821" on="0"/>
      </contour>
    </TTGlyph>
    <TTGlyph name="Zdotaccent" xMin="30" yMin="0" xMax="636" yMax="912">
      <contour>
        <pt x="55" y="700" on="1"/>
        <pt x="55" y="645" on="1"/>
        <pt x="478" y="645" on="1"/>
        <pt x="30" y="0" on="1"/>
        <pt x="636" y="0" on="1"/>
        <pt x="636" y="55" on="1"/>
        <pt x="175" y="55" on="1"/>
        <pt x="619" y="700" on="1"/>
      </contour>
      <contour>
        <pt x="279" y="858" on="1"/>
        <pt x="279" y="836" on="0"/>
        <pt x="311" y="804" on="0"/>
        <pt x="333" y="804" on="1"/>
        <pt x="355" y="804" on="0"/>
        <pt x="387" y="836" on="0"/>
        <pt x="387" y="858" on="1"/>
        <pt x="387" y="880" on="0"/>
        <pt x="355" y="912" on="0"/>
        <pt x="333" y="912" on="1"/>
        <pt x="311" y="912" on="0"/>
        <pt x="279" y="880" on="0"/>
      </contour>
    </TTGlyph>
    <TTGlyph name="a" xMin="40" yMin="-12" xMax="460" yMax="511">
      <contour>
        <pt x="264" y="511" on="1"/>
        <pt x="337" y="511" on="0"/>
        <pt x="417" y="470" on="0"/>
        <pt x="454" y="404" on="0"/>
        <pt x="460" y="318" on="0"/>
        <pt x="460" y="273" on="1"/>
        <pt x="460" y="0" on="1"/>
        <pt x="379" y="0" on="1"/>
        <pt x="379" y="49" on="1"/>
        <pt x="350" y="21" on="0"/>
        <pt x="260" y="-12" on="0"/>
        <pt x="215" y="-12" on="1"/>
        <pt x="172" y="-12" on="0"/>
        <pt x="106" y="18" on="0"/>
        <pt x="62" y="66" on="0"/>
        <pt x="40" y="126" on="0"/>
        <pt x="40" y="157" on="1"/>
        <pt x="40" y="189" on="0"/>
        <pt x="64" y="253" on="0"/>
        <pt x="112" y="304" on="0"/>
        <pt x="182" y="336" on="0"/>
        <pt x="227" y="336" on="1"/>
        <pt x="272" y="336" on="0"/>
        <pt x="353" y="301" on="0"/>
        <pt x="379" y="269" on="1"/>
        <pt x="379" y="312" on="1"/>
        <pt x="379" y="394" on="0"/>
        <pt x="330" y="474" on="0"/>
        <pt x="265" y="474" on="1"/>
        <pt x="237" y="474" on="0"/>
        <pt x="195" y="460" on="0"/>
        <pt x="162" y="435" on="0"/>
        <pt x="134" y="398" on="0"/>
        <pt x="120" y="375" on="1"/>
        <pt x="68" y="427" on="1"/>
        <pt x="82" y="442" on="0"/>
        <pt x="113" y="472" on="0"/>
        <pt x="158" y="496" on="0"/>
        <pt x="220" y="511" on="0"/>
      </contour>
      <contour>
        <pt x="379" y="198" on="1"/>
        <pt x="374" y="210" on="0"/>
        <pt x="355" y="242" on="0"/>
        <pt x="325" y="272" on="0"/>
        <pt x="283" y="293" on="0"/>
        <pt x="254" y="293" on="1"/>
        <pt x="225" y="293" on="0"/>
        <pt x="177" y="270" on="0"/>
        <pt x="144" y="233" on="0"/>
        <pt x="126" y="183" on="0"/>
        <pt x="126" y="156" on="1"/>
        <pt x="126" y="124" on="0"/>
        <pt x="149" y="77" on="0"/>
        <pt x="185" y="44" on="0"/>
        <pt x="229" y="28" on="0"/>
        <pt x="249" y="28" on="1"/>
        <pt x="268" y="28" on="0"/>
        <pt x="307" y="42" on="0"/>
        <pt x="342" y="67" on="0"/>
        <pt x="370" y="101" on="0"/>
        <pt x="379" y="121" on="1"/>
      </contour>
    </TTGlyph>
    <TTGlyph name="aacute" xMin="40" yMin="-12" xMax="460" yMax="712">
      <contour>
        <pt x="264" y="511" on="1"/>
        <pt x="337" y="511" on="0"/>
        <pt x="417" y="470" on="0"/>
        <pt x="454" y="404" on="0"/>
        <pt x="460" y="318" on="0"/>
        <pt x="460" y="273" on="1"/>
        <pt x="460" y="0" on="1"/>
        <pt x="379" y="0" on="1"/>
        <pt x="379" y="49" on="1"/>
        <pt x="350" y="21" on="0"/>
        <pt x="260" y="-12" on="0"/>
        <pt x="215" y="-12" on="1"/>
        <pt x="172" y="-12" on="0"/>
        <pt x="106" y="18" on="0"/>
        <pt x="62" y="66" on="0"/>
        <pt x="40" y="126" on="0"/>
        <pt x="40" y="157" on="1"/>
        <pt x="40" y="189" on="0"/>
        <pt x="64" y="253" on="0"/>
        <pt x="112" y="304" on="0"/>
        <pt x="182" y="336" on="0"/>
        <pt x="227" y="336" on="1"/>
        <pt x="272" y="336" on="0"/>
        <pt x="353" y="301" on="0"/>
        <pt x="379" y="269" on="1"/>
        <pt x="379" y="312" on="1"/>
        <pt x="379" y="394" on="0"/>
        <pt x="330" y="474" on="0"/>
        <pt x="265" y="474" on="1"/>
        <pt x="237" y="474" on="0"/>
        <pt x="195" y="460" on="0"/>
        <pt x="162" y="435" on="0"/>
        <pt x="134" y="398" on="0"/>
        <pt x="120" y="375" on="1"/>
        <pt x="68" y="427" on="1"/>
        <pt x="82" y="442" on="0"/>
        <pt x="113" y="472" on="0"/>
        <pt x="158" y="496" on="0"/>
        <pt x="220" y="511" on="0"/>
      </contour>
      <contour>
        <pt x="379" y="198" on="1"/>
        <pt x="374" y="210" on="0"/>
        <pt x="355" y="242" on="0"/>
        <pt x="325" y="272" on="0"/>
        <pt x="283" y="293" on="0"/>
        <pt x="254" y="293" on="1"/>
        <pt x="225" y="293" on="0"/>
        <pt x="177" y="270" on="0"/>
        <pt x="144" y="233" on="0"/>
        <pt x="126" y="183" on="0"/>
        <pt x="126" y="156" on="1"/>
        <pt x="126" y="124" on="0"/>
        <pt x="149" y="77" on="0"/>
        <pt x="185" y="44" on="0"/>
        <pt x="229" y="28" on="0"/>
        <pt x="249" y="28" on="1"/>
        <pt x="268" y="28" on="0"/>
        <pt x="307" y="42" on="0"/>
        <pt x="342" y="67" on="0"/>
        <pt x="370" y="101" on="0"/>
        <pt x="379" y="121" on="1"/>
      </contour>
      <contour>
        <pt x="256" y="712" on="1"/>
        <pt x="367" y="712" on="1"/>
        <pt x="212" y="585" on="1"/>
        <pt x="173" y="585" on="1"/>
      </contour>
    </TTGlyph>
    <TTGlyph name="abreve" xMin="40" yMin="-12" xMax="460" yMax="712">
      <contour>
        <pt x="264" y="511" on="1"/>
        <pt x="337" y="511" on="0"/>
        <pt x="417" y="470" on="0"/>
        <pt x="454" y="404" on="0"/>
        <pt x="460" y="318" on="0"/>
        <pt x="460" y="273" on="1"/>
        <pt x="460" y="0" on="1"/>
        <pt x="379" y="0" on="1"/>
        <pt x="379" y="49" on="1"/>
        <pt x="350" y="21" on="0"/>
        <pt x="260" y="-12" on="0"/>
        <pt x="215" y="-12" on="1"/>
        <pt x="172" y="-12" on="0"/>
        <pt x="106" y="18" on="0"/>
        <pt x="62" y="66" on="0"/>
        <pt x="40" y="126" on="0"/>
        <pt x="40" y="157" on="1"/>
        <pt x="40" y="189" on="0"/>
        <pt x="64" y="253" on="0"/>
        <pt x="112" y="304" on="0"/>
        <pt x="182" y="336" on="0"/>
        <pt x="227" y="336" on="1"/>
        <pt x="272" y="336" on="0"/>
        <pt x="353" y="301" on="0"/>
        <pt x="379" y="269" on="1"/>
        <pt x="379" y="312" on="1"/>
        <pt x="379" y="394" on="0"/>
        <pt x="330" y="474" on="0"/>
        <pt x="265" y="474" on="1"/>
        <pt x="237" y="474" on="0"/>
        <pt x="195" y="460" on="0"/>
        <pt x="162" y="435" on="0"/>
        <pt x="134" y="398" on="0"/>
        <pt x="120" y="375" on="1"/>
        <pt x="68" y="427" on="1"/>
        <pt x="82" y="442" on="0"/>
        <pt x="113" y="472" on="0"/>
        <pt x="158" y="496" on="0"/>
        <pt x="220" y="511" on="0"/>
      </contour>
      <contour>
        <pt x="379" y="198" on="1"/>
        <pt x="374" y="210" on="0"/>
        <pt x="355" y="242" on="0"/>
        <pt x="325" y="272" on="0"/>
        <pt x="283" y="293" on="0"/>
        <pt x="254" y="293" on="1"/>
        <pt x="225" y="293" on="0"/>
        <pt x="177" y="270" on="0"/>
        <pt x="144" y="233" on="0"/>
        <pt x="126" y="183" on="0"/>
        <pt x="126" y="156" on="1"/>
        <pt x="126" y="124" on="0"/>
        <pt x="149" y="77" on="0"/>
        <pt x="185" y="44" on="0"/>
        <pt x="229" y="28" on="0"/>
        <pt x="249" y="28" on="1"/>
        <pt x="268" y="28" on="0"/>
        <pt x="307" y="42" on="0"/>
        <pt x="342" y="67" on="0"/>
        <pt x="370" y="101" on="0"/>
        <pt x="379" y="121" on="1"/>
      </contour>
      <contour>
        <pt x="123" y="712" on="1"/>
        <pt x="123" y="684" on="0"/>
        <pt x="145" y="634" on="0"/>
        <pt x="185" y="597" on="0"/>
        <pt x="238" y="576" on="0"/>
        <pt x="270" y="576" on="1"/>
        <pt x="301" y="576" on="0"/>
        <pt x="355" y="597" on="0"/>
        <pt x="395" y="634" on="0"/>
        <pt x="417" y="684" on="0"/>
        <pt x="417" y="712" on="1"/>
        <pt x="375" y="712" on="1"/>
        <pt x="373" y="667" on="0"/>
        <pt x="312" y="612" on="0"/>
        <pt x="270" y="612" on="1"/>
        <pt x="229" y="612" on="0"/>
        <pt x="168" y="667" on="0"/>
        <pt x="165" y="712" on="1"/>
      </contour>
    </TTGlyph>
    <TTGlyph name="acircumflex" xMin="40" yMin="-12" xMax="460" yMax="712">
      <contour>
        <pt x="264" y="511" on="1"/>
        <pt x="337" y="511" on="0"/>
        <pt x="417" y="470" on="0"/>
        <pt x="454" y="404" on="0"/>
        <pt x="460" y="318" on="0"/>
        <pt x="460" y="273" on="1"/>
        <pt x="460" y="0" on="1"/>
        <pt x="379" y="0" on="1"/>
        <pt x="379" y="49" on="1"/>
        <pt x="350" y="21" on="0"/>
        <pt x="260" y="-12" on="0"/>
        <pt x="215" y="-12" on="1"/>
        <pt x="172" y="-12" on="0"/>
        <pt x="106" y="18" on="0"/>
        <pt x="62" y="66" on="0"/>
        <pt x="40" y="126" on="0"/>
        <pt x="40" y="157" on="1"/>
        <pt x="40" y="189" on="0"/>
        <pt x="64" y="253" on="0"/>
        <pt x="112" y="304" on="0"/>
        <pt x="182" y="336" on="0"/>
        <pt x="227" y="336" on="1"/>
        <pt x="272" y="336" on="0"/>
        <pt x="353" y="301" on="0"/>
        <pt x="379" y="269" on="1"/>
        <pt x="379" y="312" on="1"/>
        <pt x="379" y="394" on="0"/>
        <pt x="330" y="474" on="0"/>
        <pt x="265" y="474" on="1"/>
        <pt x="237" y="474" on="0"/>
        <pt x="195" y="460" on="0"/>
        <pt x="162" y="435" on="0"/>
        <pt x="134" y="398" on="0"/>
        <pt x="120" y="375" on="1"/>
        <pt x="68" y="427" on="1"/>
        <pt x="82" y="442" on="0"/>
        <pt x="113" y="472" on="0"/>
        <pt x="158" y="496" on="0"/>
        <pt x="220" y="511" on="0"/>
      </contour>
      <contour>
        <pt x="379" y="198" on="1"/>
        <pt x="374" y="210" on="0"/>
        <pt x="355" y="242" on="0"/>
        <pt x="325" y="272" on="0"/>
        <pt x="283" y="293" on="0"/>
        <pt x="254" y="293" on="1"/>
        <pt x="225" y="293" on="0"/>
        <pt x="177" y="270" on="0"/>
        <pt x="144" y="233" on="0"/>
        <pt x="126" y="183" on="0"/>
        <pt x="126" y="156" on="1"/>
        <pt x="126" y="124" on="0"/>
        <pt x="149" y="77" on="0"/>
        <pt x="185" y="44" on="0"/>
        <pt x="229" y="28" on="0"/>
        <pt x="249" y="28" on="1"/>
        <pt x="268" y="28" on="0"/>
        <pt x="307" y="42" on="0"/>
        <pt x="342" y="67" on="0"/>
        <pt x="370" y="101" on="0"/>
        <pt x="379" y="121" on="1"/>
      </contour>
      <contour>
        <pt x="269" y="628" on="1"/>
        <pt x="269" y="628" on="0"/>
        <pt x="291" y="615" on="0"/>
        <pt x="324" y="595" on="0"/>
        <pt x="363" y="571" on="0"/>
        <pt x="396" y="550" on="0"/>
        <pt x="418" y="536" on="0"/>
        <pt x="418" y="536" on="1"/>
        <pt x="443" y="567" on="1"/>
        <pt x="443" y="567" on="0"/>
        <pt x="421" y="589" on="0"/>
        <pt x="388" y="621" on="0"/>
        <pt x="349" y="659" on="0"/>
        <pt x="316" y="691" on="0"/>
        <pt x="294" y="712" on="0"/>
        <pt x="294" y="712" on="1"/>
        <pt x="244" y="712" on="1"/>
        <pt x="244" y="712" on="0"/>
        <pt x="222" y="690" on="0"/>
        <pt x="189" y="658" on="0"/>
        <pt x="150" y="620" on="0"/>
        <pt x="117" y="588" on="0"/>
        <pt x="95" y="566" on="0"/>
        <pt x="95" y="567" on="1"/>
        <pt x="119" y="537" on="1"/>
        <pt x="119" y="537" on="0"/>
        <pt x="142" y="550" on="0"/>
        <pt x="175" y="571" on="0"/>
        <pt x="214" y="594" on="0"/>
        <pt x="247" y="615" on="0"/>
        <pt x="269" y="628" on="0"/>
      </contour>
    </TTGlyph>
    <TTGlyph name="acute" xMin="0" yMin="585" xMax="194" yMax="712">
      <contour>
        <pt x="83" y="712" on="1"/>
        <pt x="194" y="712" on="1"/>
        <pt x="39" y="585" on="1"/>
        <pt x="0" y="585" on="1"/>
      </contour>
    </TTGlyph>
    <TTGlyph name="adieresis" xMin="40" yMin="-12" xMax="460" yMax="712">
      <contour>
        <pt x="264" y="511" on="1"/>
        <pt x="337" y="511" on="0"/>
        <pt x="417" y="470" on="0"/>
        <pt x="454" y="404" on="0"/>
        <pt x="460" y="318" on="0"/>
        <pt x="460" y="273" on="1"/>
        <pt x="460" y="0" on="1"/>
        <pt x="379" y="0" on="1"/>
        <pt x="379" y="49" on="1"/>
        <pt x="350" y="21" on="0"/>
        <pt x="260" y="-12" on="0"/>
        <pt x="215" y="-12" on="1"/>
        <pt x="172" y="-12" on="0"/>
        <pt x="106" y="18" on="0"/>
        <pt x="62" y="66" on="0"/>
        <pt x="40" y="126" on="0"/>
        <pt x="40" y="157" on="1"/>
        <pt x="40" y="189" on="0"/>
        <pt x="64" y="253" on="0"/>
        <pt x="112" y="304" on="0"/>
        <pt x="182" y="336" on="0"/>
        <pt x="227" y="336" on="1"/>
        <pt x="272" y="336" on="0"/>
        <pt x="353" y="301" on="0"/>
        <pt x="379" y="269" on="1"/>
        <pt x="379" y="312" on="1"/>
        <pt x="379" y="394" on="0"/>
        <pt x="330" y="474" on="0"/>
        <pt x="265" y="474" on="1"/>
        <pt x="237" y="474" on="0"/>
        <pt x="195" y="460" on="0"/>
        <pt x="162" y="435" on="0"/>
        <pt x="134" y="398" on="0"/>
        <pt x="120" y="375" on="1"/>
        <pt x="68" y="427" on="1"/>
        <pt x="82" y="442" on="0"/>
        <pt x="113" y="472" on="0"/>
        <pt x="158" y="496" on="0"/>
        <pt x="220" y="511" on="0"/>
      </contour>
      <contour>
        <pt x="379" y="198" on="1"/>
        <pt x="374" y="210" on="0"/>
        <pt x="355" y="242" on="0"/>
        <pt x="325" y="272" on="0"/>
        <pt x="283" y="293" on="0"/>
        <pt x="254" y="293" on="1"/>
        <pt x="225" y="293" on="0"/>
        <pt x="177" y="270" on="0"/>
        <pt x="144" y="233" on="0"/>
        <pt x="126" y="183" on="0"/>
        <pt x="126" y="156" on="1"/>
        <pt x="126" y="124" on="0"/>
        <pt x="149" y="77" on="0"/>
        <pt x="185" y="44" on="0"/>
        <pt x="229" y="28" on="0"/>
        <pt x="249" y="28" on="1"/>
        <pt x="268" y="28" on="0"/>
        <pt x="307" y="42" on="0"/>
        <pt x="342" y="67" on="0"/>
        <pt x="370" y="101" on="0"/>
        <pt x="379" y="121" on="1"/>
      </contour>
      <contour>
        <pt x="147" y="658" on="1"/>
        <pt x="147" y="636" on="0"/>
        <pt x="179" y="604" on="0"/>
        <pt x="201" y="604" on="1"/>
        <pt x="223" y="604" on="0"/>
        <pt x="255" y="636" on="0"/>
        <pt x="255" y="658" on="1"/>
        <pt x="255" y="680" on="0"/>
        <pt x="223" y="712" on="0"/>
        <pt x="201" y="712" on="1"/>
        <pt x="179" y="712" on="0"/>
        <pt x="147" y="680" on="0"/>
      </contour>
      <contour>
        <pt x="285" y="658" on="1"/>
        <pt x="285" y="636" on="0"/>
        <pt x="317" y="604" on="0"/>
        <pt x="339" y="604" on="1"/>
        <pt x="361" y="604" on="0"/>
        <pt x="393" y="636" on="0"/>
        <pt x="393" y="658" on="1"/>
        <pt x="393" y="680" on="0"/>
        <pt x="361" y="712" on="0"/>
        <pt x="339" y="712" on="1"/>
        <pt x="317" y="712" on="0"/>
        <pt x="285" y="680" on="0"/>
      </contour>
    </TTGlyph>
    <TTGlyph name="ae" xMin="41" yMin="-12" xMax="828" yMax="512">
      <contour>
        <pt x="453" y="274" on="1"/>
        <pt x="453" y="324" on="0"/>
        <pt x="478" y="400" on="0"/>
        <pt x="518" y="451" on="0"/>
        <pt x="570" y="477" on="0"/>
        <pt x="596" y="477" on="1"/>
        <pt x="656" y="477" on="0"/>
        <pt x="731" y="374" on="0"/>
        <pt x="731" y="283" on="1"/>
        <pt x="731" y="274" on="1"/>
      </contour>
      <contour>
        <pt x="374" y="116" on="1"/>
        <pt x="365" y="95" on="0"/>
        <pt x="337" y="64" on="0"/>
        <pt x="303" y="43" on="0"/>
        <pt x="267" y="33" on="0"/>
        <pt x="251" y="33" on="1"/>
        <pt x="225" y="33" on="0"/>
        <pt x="180" y="53" on="0"/>
        <pt x="147" y="88" on="0"/>
        <pt x="128" y="136" on="0"/>
        <pt x="128" y="165" on="1"/>
        <pt x="128" y="195" on="0"/>
        <pt x="148" y="242" on="0"/>
        <pt x="182" y="273" on="0"/>
        <pt x="227" y="290" on="0"/>
        <pt x="251" y="290" on="1"/>
        <pt x="281" y="290" on="0"/>
        <pt x="325" y="270" on="0"/>
        <pt x="355" y="243" on="0"/>
        <pt x="371" y="214" on="0"/>
        <pt x="374" y="204" on="1"/>
      </contour>
      <contour>
        <pt x="453" y="239" on="1"/>
        <pt x="822" y="239" on="1"/>
        <pt x="822" y="256" on="1"/>
        <pt x="822" y="333" on="0"/>
        <pt x="777" y="433" on="0"/>
        <pt x="709" y="490" on="0"/>
        <pt x="632" y="512" on="0"/>
        <pt x="599" y="512" on="1"/>
        <pt x="576" y="512" on="0"/>
        <pt x="526" y="502" on="0"/>
        <pt x="479" y="483" on="0"/>
        <pt x="440" y="457" on="0"/>
        <pt x="428" y="441" on="1"/>
        <pt x="390" y="485" on="0"/>
        <pt x="310" y="512" on="0"/>
        <pt x="258" y="512" on="1"/>
        <pt x="206" y="512" on="0"/>
        <pt x="132" y="490" on="0"/>
        <pt x="95" y="462" on="1"/>
        <pt x="125" y="420" on="1"/>
        <pt x="154" y="446" on="0"/>
        <pt x="222" y="477" on="0"/>
        <pt x="260" y="477" on="1"/>
        <pt x="275" y="477" on="0"/>
        <pt x="313" y="468" on="0"/>
        <pt x="347" y="451" on="0"/>
        <pt x="372" y="424" on="0"/>
        <pt x="374" y="406" on="1"/>
        <pt x="374" y="274" on="1"/>
        <pt x="356" y="295" on="0"/>
        <pt x="316" y="319" on="0"/>
        <pt x="276" y="332" on="0"/>
        <pt x="240" y="336" on="0"/>
        <pt x="227" y="336" on="1"/>
        <pt x="182" y="336" on="0"/>
        <pt x="112" y="305" on="0"/>
        <pt x="65" y="254" on="0"/>
        <pt x="41" y="188" on="0"/>
        <pt x="41" y="154" on="1"/>
        <pt x="41" y="124" on="0"/>
        <pt x="63" y="65" on="0"/>
        <pt x="107" y="18" on="0"/>
        <pt x="174" y="-12" on="0"/>
        <pt x="219" y="-12" on="1"/>
        <pt x="271" y="-12" on="0"/>
        <pt x="373" y="34" on="0"/>
        <pt x="412" y="86" on="1"/>
        <pt x="427" y="68" on="0"/>
        <pt x="467" y="33" on="0"/>
        <pt x="518" y="5" on="0"/>
        <pt x="582" y="-12" on="0"/>
        <pt x="621" y="-12" on="1"/>
        <pt x="674" y="-12" on="0"/>
        <pt x="782" y="33" on="0"/>
        <pt x="828" y="81" on="1"/>
        <pt x="799" y="111" on="1"/>
        <pt x="756" y="66" on="0"/>
        <pt x="680" y="29" on="0"/>
        <pt x="628" y="29" on="1"/>
        <pt x="592" y="29" on="0"/>
        <pt x="528" y="58" on="0"/>
        <pt x="480" y="111" on="0"/>
        <pt x="453" y="187" on="0"/>
        <pt x="453" y="235" on="1"/>
      </contour>
    </TTGlyph>
    <TTGlyph name="agrave" xMin="40" yMin="-12" xMax="460" yMax="712">
      <contour>
        <pt x="264" y="511" on="1"/>
        <pt x="337" y="511" on="0"/>
        <pt x="417" y="470" on="0"/>
        <pt x="454" y="404" on="0"/>
        <pt x="460" y="318" on="0"/>
        <pt x="460" y="273" on="1"/>
        <pt x="460" y="0" on="1"/>
        <pt x="379" y="0" on="1"/>
        <pt x="379" y="49" on="1"/>
        <pt x="350" y="21" on="0"/>
        <pt x="260" y="-12" on="0"/>
        <pt x="215" y="-12" on="1"/>
        <pt x="172" y="-12" on="0"/>
        <pt x="106" y="18" on="0"/>
        <pt x="62" y="66" on="0"/>
        <pt x="40" y="126" on="0"/>
        <pt x="40" y="157" on="1"/>
        <pt x="40" y="189" on="0"/>
        <pt x="64" y="253" on="0"/>
        <pt x="112" y="304" on="0"/>
        <pt x="182" y="336" on="0"/>
        <pt x="227" y="336" on="1"/>
        <pt x="272" y="336" on="0"/>
        <pt x="353" y="301" on="0"/>
        <pt x="379" y="269" on="1"/>
        <pt x="379" y="312" on="1"/>
        <pt x="379" y="394" on="0"/>
        <pt x="330" y="474" on="0"/>
        <pt x="265" y="474" on="1"/>
        <pt x="237" y="474" on="0"/>
        <pt x="195" y="460" on="0"/>
        <pt x="162" y="435" on="0"/>
        <pt x="134" y="398" on="0"/>
        <pt x="120" y="375" on="1"/>
        <pt x="68" y="427" on="1"/>
        <pt x="82" y="442" on="0"/>
        <pt x="113" y="472" on="0"/>
        <pt x="158" y="496" on="0"/>
        <pt x="220" y="511" on="0"/>
      </contour>
      <contour>
        <pt x="379" y="198" on="1"/>
        <pt x="374" y="210" on="0"/>
        <pt x="355" y="242" on="0"/>
        <pt x="325" y="272" on="0"/>
        <pt x="283" y="293" on="0"/>
        <pt x="254" y="293" on="1"/>
        <pt x="225" y="293" on="0"/>
        <pt x="177" y="270" on="0"/>
        <pt x="144" y="233" on="0"/>
        <pt x="126" y="183" on="0"/>
        <pt x="126" y="156" on="1"/>
        <pt x="126" y="124" on="0"/>
        <pt x="149" y="77" on="0"/>
        <pt x="185" y="44" on="0"/>
        <pt x="229" y="28" on="0"/>
        <pt x="249" y="28" on="1"/>
        <pt x="268" y="28" on="0"/>
        <pt x="307" y="42" on="0"/>
        <pt x="342" y="67" on="0"/>
        <pt x="370" y="101" on="0"/>
        <pt x="379" y="121" on="1"/>
      </contour>
      <contour>
        <pt x="284" y="712" on="1"/>
        <pt x="173" y="712" on="1"/>
        <pt x="328" y="585" on="1"/>
        <pt x="367" y="585" on="1"/>
      </contour>
    </TTGlyph>
    <TTGlyph name="amacron" xMin="40" yMin="-12" xMax="460" yMax="623">
      <contour>
        <pt x="264" y="511" on="1"/>
        <pt x="337" y="511" on="0"/>
        <pt x="417" y="470" on="0"/>
        <pt x="454" y="404" on="0"/>
        <pt x="460" y="318" on="0"/>
        <pt x="460" y="273" on="1"/>
        <pt x="460" y="0" on="1"/>
        <pt x="379" y="0" on="1"/>
        <pt x="379" y="49" on="1"/>
        <pt x="350" y="21" on="0"/>
        <pt x="260" y="-12" on="0"/>
        <pt x="215" y="-12" on="1"/>
        <pt x="172" y="-12" on="0"/>
        <pt x="106" y="18" on="0"/>
        <pt x="62" y="66" on="0"/>
        <pt x="40" y="126" on="0"/>
        <pt x="40" y="157" on="1"/>
        <pt x="40" y="189" on="0"/>
        <pt x="64" y="253" on="0"/>
        <pt x="112" y="304" on="0"/>
        <pt x="182" y="336" on="0"/>
        <pt x="227" y="336" on="1"/>
        <pt x="272" y="336" on="0"/>
        <pt x="353" y="301" on="0"/>
        <pt x="379" y="269" on="1"/>
        <pt x="379" y="312" on="1"/>
        <pt x="379" y="394" on="0"/>
        <pt x="330" y="474" on="0"/>
        <pt x="265" y="474" on="1"/>
        <pt x="237" y="474" on="0"/>
        <pt x="195" y="460" on="0"/>
        <pt x="162" y="435" on="0"/>
        <pt x="134" y="398" on="0"/>
        <pt x="120" y="375" on="1"/>
        <pt x="68" y="427" on="1"/>
        <pt x="82" y="442" on="0"/>
        <pt x="113" y="472" on="0"/>
        <pt x="158" y="496" on="0"/>
        <pt x="220" y="511" on="0"/>
      </contour>
      <contour>
        <pt x="379" y="198" on="1"/>
        <pt x="374" y="210" on="0"/>
        <pt x="355" y="242" on="0"/>
        <pt x="325" y="272" on="0"/>
        <pt x="283" y="293" on="0"/>
        <pt x="254" y="293" on="1"/>
        <pt x="225" y="293" on="0"/>
        <pt x="177" y="270" on="0"/>
        <pt x="144" y="233" on="0"/>
        <pt x="126" y="183" on="0"/>
        <pt x="126" y="156" on="1"/>
        <pt x="126" y="124" on="0"/>
        <pt x="149" y="77" on="0"/>
        <pt x="185" y="44" on="0"/>
        <pt x="229" y="28" on="0"/>
        <pt x="249" y="28" on="1"/>
        <pt x="268" y="28" on="0"/>
        <pt x="307" y="42" on="0"/>
        <pt x="342" y="67" on="0"/>
        <pt x="370" y="101" on="0"/>
        <pt x="379" y="121" on="1"/>
      </contour>
      <contour>
        <pt x="113" y="583" on="1"/>
        <pt x="426" y="583" on="1"/>
        <pt x="426" y="623" on="1"/>
        <pt x="113" y="623" on="1"/>
      </contour>
    </TTGlyph>
    <TTGlyph name="ampersand" xMin="60" yMin="-11" xMax="686" yMax="713">
      <contour>
        <pt x="508" y="60" on="1"/>
        <pt x="447" y="15" on="0"/>
        <pt x="350" y="-11" on="0"/>
        <pt x="309" y="-11" on="1"/>
        <pt x="248" y="-11" on="0"/>
        <pt x="155" y="22" on="0"/>
        <pt x="92" y="77" on="0"/>
        <pt x="60" y="147" on="0"/>
        <pt x="60" y="183" on="1"/>
        <pt x="60" y="221" on="0"/>
        <pt x="89" y="285" on="0"/>
        <pt x="140" y="340" on="0"/>
        <pt x="208" y="385" on="0"/>
        <pt x="248" y="404" on="1"/>
        <pt x="216" y="449" on="0"/>
        <pt x="171" y="524" on="0"/>
        <pt x="171" y="566" on="1"/>
        <pt x="171" y="591" on="0"/>
        <pt x="188" y="644" on="0"/>
        <pt x="225" y="686" on="0"/>
        <pt x="282" y="713" on="0"/>
        <pt x="322" y="713" on="1"/>
        <pt x="353" y="713" on="0"/>
        <pt x="407" y="693" on="0"/>
        <pt x="447" y="655" on="0"/>
        <pt x="471" y="602" on="0"/>
        <pt x="471" y="569" on="1"/>
        <pt x="471" y="527" on="0"/>
        <pt x="414" y="446" on="0"/>
        <pt x="344" y="413" on="1"/>
        <pt x="543" y="151" on="1"/>
        <pt x="573" y="191" on="0"/>
        <pt x="605" y="294" on="0"/>
        <pt x="608" y="374" on="1"/>
        <pt x="686" y="374" on="1"/>
        <pt x="681" y="320" on="0"/>
        <pt x="650" y="234" on="0"/>
        <pt x="613" y="168" on="0"/>
        <pt x="578" y="125" on="0"/>
        <pt x="569" y="115" on="1"/>
        <pt x="660" y="0" on="1"/>
        <pt x="554" y="0" on="1"/>
      </contour>
      <contour>
        <pt x="327" y="669" on="1"/>
        <pt x="305" y="669" on="0"/>
        <pt x="274" y="654" on="0"/>
        <pt x="254" y="630" on="0"/>
        <pt x="245" y="600" on="0"/>
        <pt x="245" y="585" on="1"/>
        <pt x="245" y="550" on="0"/>
        <pt x="289" y="483" on="0"/>
        <pt x="321" y="443" on="1"/>
        <pt x="334" y="450" on="0"/>
        <pt x="365" y="475" on="0"/>
        <pt x="391" y="508" on="0"/>
        <pt x="408" y="550" on="0"/>
        <pt x="408" y="575" on="1"/>
        <pt x="408" y="588" on="0"/>
        <pt x="400" y="621" on="0"/>
        <pt x="382" y="649" on="0"/>
        <pt x="351" y="669" on="0"/>
      </contour>
      <contour>
        <pt x="273" y="369" on="1"/>
        <pt x="200" y="331" on="0"/>
        <pt x="145" y="257" on="0"/>
        <pt x="145" y="212" on="1"/>
        <pt x="145" y="171" on="0"/>
        <pt x="179" y="108" on="0"/>
        <pt x="234" y="64" on="0"/>
        <pt x="301" y="41" on="0"/>
        <pt x="334" y="41" on="1"/>
        <pt x="342" y="41" on="0"/>
        <pt x="375" y="44" on="0"/>
        <pt x="417" y="54" on="0"/>
        <pt x="462" y="74" on="0"/>
        <pt x="483" y="92" on="1"/>
      </contour>
    </TTGlyph>
</ttFont>
